<svg width="704" height="574" viewBox="0 0 704 574" fill="none" xmlns="http://www.w3.org/2000/svg">
<path d="M281.959 233.957C307.244 189.784 322.02 140.381 325.141 89.5786C328.262 38.7758 319.644 -12.0635 299.956 -59L151.978 26.5875L231.966 166.567C235.476 172.647 237.324 179.544 237.324 186.564C237.324 193.585 235.476 200.481 231.966 206.561C228.511 212.548 223.563 217.537 217.605 221.042C211.647 224.546 204.882 226.447 197.971 226.558H0V400.333C57.3988 399.471 113.584 383.677 163.024 354.503C212.463 325.33 253.454 283.785 281.959 233.957Z" fill="white"/>
<path d="M351.547 407.133C358.492 407.21 365.298 409.094 371.294 412.6C377.29 416.107 382.269 421.114 385.742 427.13L504.325 632.5L653.103 546.512C627.295 488.082 585.062 438.411 531.542 403.542C478.023 368.673 415.523 350.11 351.647 350.11C287.771 350.11 225.271 368.673 171.751 403.542C118.232 438.411 75.999 488.082 50.191 546.512L199.969 632.1L318.552 426.73C321.88 420.883 326.672 416.001 332.456 412.566C338.241 409.13 344.82 407.258 351.547 407.133Z" fill="white"/>
<path d="M421.34 233.957C450.038 283.434 491.091 324.612 540.481 353.461C589.871 382.31 645.905 397.84 703.098 398.533V224.758H504.927C498.106 224.555 491.45 222.61 485.593 219.108C479.736 215.606 474.872 210.664 471.465 204.751C468.058 198.838 466.22 192.152 466.127 185.328C466.033 178.505 467.688 171.771 470.932 165.767L550.921 25.7876L402.942 -59C383.209 -12.0573 374.601 38.8139 377.793 89.6356C380.984 140.457 395.888 189.852 421.34 233.957Z" fill="white"/>
</svg>
