<svg width="125" height="115" viewBox="0 0 125 115" fill="none" xmlns="http://www.w3.org/2000/svg">
<g opacity="0.1">
<path d="M59.5316 61.8537C64.8702 52.5271 67.9899 42.0965 68.6488 31.3702C69.3078 20.644 67.4883 9.90997 63.3314 0L32.0879 18.0706L48.9763 47.6252C49.7174 48.9089 50.1076 50.3651 50.1076 51.8473C50.1076 53.3296 49.7174 54.7858 48.9763 56.0694C48.2468 57.3335 47.2021 58.3868 45.9442 59.1268C44.6862 59.8667 43.258 60.268 41.7987 60.2915H0V96.9815C12.1189 96.7996 23.9816 93.4648 34.4201 87.3053C44.8586 81.1459 53.5131 72.3741 59.5316 61.8537Z" fill="white"/>
<path d="M74.2241 98.4175C75.6905 98.4337 77.1275 98.8316 78.3934 99.5719C79.6594 100.312 80.7107 101.369 81.4439 102.64L106.481 146.001L137.893 127.846C132.444 115.509 123.527 105.021 112.228 97.6594C100.928 90.2974 87.7318 86.3779 74.2452 86.3779C60.7586 86.3779 47.5627 90.2974 36.2628 97.6594C24.9629 105.021 16.0461 115.509 10.5971 127.846L42.2206 145.916L67.2576 102.555C67.9603 101.321 68.972 100.29 70.1934 99.5646C71.4148 98.8392 72.8038 98.4439 74.2241 98.4175Z" fill="white"/>
<path d="M88.9598 61.8537C95.0191 72.3001 103.687 80.9942 114.115 87.0852C124.543 93.1762 136.374 96.4553 148.449 96.6016V59.9115H106.608C105.168 59.8687 103.763 59.458 102.526 58.7186C101.289 57.9792 100.263 56.9357 99.5431 55.6873C98.8237 54.4389 98.4357 53.0272 98.416 51.5864C98.3963 50.1457 98.7456 48.7239 99.4306 47.4564L116.319 17.9017L85.0755 0C80.909 9.91128 79.0917 20.652 79.7655 31.3823C80.4394 42.1126 83.5862 52.5415 88.9598 61.8537Z" fill="white"/>
</g>
</svg>
