<svg width="75" height="75" viewBox="0 0 75 75" fill="none" xmlns="http://www.w3.org/2000/svg">
<path d="M70.3652 72.472H68.2585V6.32021C68.2585 5.98498 68.1253 5.66347 67.8883 5.42642C67.6512 5.18937 67.3297 5.0562 66.9945 5.0562H43.3989C43.2329 5.05618 43.0685 5.08886 42.9152 5.15238C42.7618 5.2159 42.6224 5.309 42.5051 5.42638C42.3877 5.54376 42.2946 5.68311 42.2311 5.83647C42.1676 5.98984 42.1349 6.15422 42.1349 6.32021V11.7977H39.6069V6.32021C39.6069 5.98498 39.4737 5.66347 39.2366 5.42642C38.9996 5.18937 38.6781 5.0562 38.3428 5.0562H32.8652V1.26401C32.8652 0.565723 32.2992 0 31.6012 0C30.9032 0 30.3372 0.565723 30.3372 1.26401V5.0562H24.8597C24.6937 5.05618 24.5293 5.08886 24.376 5.15238C24.2226 5.2159 24.0832 5.309 23.9659 5.42638C23.8485 5.54376 23.7554 5.68311 23.6919 5.83647C23.6283 5.98984 23.5957 6.15422 23.5957 6.32021V11.7977H19.8035C19.6375 11.7977 19.4731 11.8304 19.3197 11.8939C19.1664 11.9574 19.027 12.0505 18.9097 12.1679C18.7923 12.2853 18.6992 12.4246 18.6357 12.578C18.5721 12.7313 18.5395 12.8957 18.5395 13.0617V23.5954H8.00579C7.83979 23.5954 7.67541 23.6281 7.52205 23.6916C7.36868 23.7551 7.22933 23.8482 7.11195 23.9656C6.99457 24.083 6.90147 24.2223 6.83795 24.3757C6.77443 24.529 6.74175 24.6934 6.74177 24.8594V72.4718H4.63474C3.9366 72.4718 3.37073 73.0376 3.37073 73.7358C3.37073 74.4341 3.93674 75 4.63474 75H70.3652C71.0634 75 71.6292 74.4343 71.6292 73.736C71.6292 73.0377 71.0632 72.472 70.3652 72.472ZM26.1236 7.58423H37.0785V11.7977H26.1236V7.58423ZM21.9101 72.472H21.0674V70.3652C21.0674 69.6669 20.5013 69.1012 19.8033 69.1012C19.1053 69.1012 18.5393 69.6669 18.5393 70.3652V72.472H17.6966V68.2585H21.9101V72.472ZM30.337 40.028V72.472H24.4381V66.9945C24.4381 66.6592 24.3049 66.3377 24.0679 66.1007C23.8308 65.8636 23.5093 65.7305 23.1741 65.7305H16.4326C16.2666 65.7305 16.1022 65.7631 15.9489 65.8266C15.7955 65.8902 15.6561 65.9833 15.5388 66.1006C15.4214 66.218 15.3283 66.3574 15.2648 66.5107C15.2012 66.6641 15.1686 66.8285 15.1686 66.9945V72.472H9.26965V26.1236H30.337V40.028ZM31.601 23.5956H21.0674V14.3259H42.1347V38.764H32.8652V34.5505H36.6574C37.3555 34.5505 37.9214 33.9848 37.9214 33.2865C37.9214 32.5882 37.3554 32.0225 36.6574 32.0225H32.8652V27.809H36.6574C37.3555 27.809 37.9214 27.2433 37.9214 26.545C37.9214 25.8467 37.3554 25.281 36.6574 25.281H32.8652V24.8597C32.8652 24.6937 32.8325 24.5293 32.769 24.3759C32.7055 24.2225 32.6124 24.0832 32.495 23.9658C32.3776 23.8484 32.2382 23.7553 32.0848 23.6917C31.9315 23.6282 31.7671 23.5955 31.601 23.5956ZM53.9326 72.472H32.8652V41.2922H53.9326V72.472ZM65.7303 72.472H56.4606V38.3426C56.4606 37.6443 55.8946 37.0786 55.1966 37.0786C54.4986 37.0786 53.9326 37.6443 53.9326 38.3426V38.7639H51.4046V38.3426C51.4046 37.6443 50.8386 37.0786 50.1406 37.0786C49.4426 37.0786 48.8765 37.6443 48.8765 38.3426V38.7639H44.6631V7.58423H65.7304V72.472H65.7303Z" fill="#0C0E17"/>
<path d="M38.3427 69.9441C38.678 69.944 38.9994 69.8109 39.2365 69.5738C39.4735 69.3368 39.6067 69.0153 39.6067 68.6801V45.0847C39.6067 44.3864 39.0407 43.8207 38.3427 43.8207C37.6447 43.8207 37.0787 44.3864 37.0787 45.0847V68.6802C37.0787 68.8462 37.1114 69.0106 37.1749 69.1639C37.2385 69.3173 37.3316 69.4566 37.4489 69.574C37.5663 69.6913 37.7057 69.7844 37.859 69.8479C38.0124 69.9114 38.1767 69.9441 38.3427 69.9441ZM43.3989 69.9441C43.7342 69.944 44.0556 69.8109 44.2927 69.5738C44.5297 69.3368 44.6629 69.0153 44.6629 68.6801V45.0847C44.6629 44.3864 44.0969 43.8207 43.3989 43.8207C42.7009 43.8207 42.1349 44.3864 42.1349 45.0847V68.6802C42.1349 68.8462 42.1676 69.0106 42.2311 69.1639C42.2947 69.3173 42.3878 69.4566 42.5051 69.574C42.6225 69.6913 42.7619 69.7844 42.9152 69.8479C43.0686 69.9114 43.2329 69.9441 43.3989 69.9441ZM48.455 69.9441C48.7902 69.944 49.1117 69.8109 49.3487 69.5738C49.5858 69.3368 49.719 69.0153 49.719 68.6801V45.0847C49.719 44.3864 49.153 43.8207 48.455 43.8207C47.757 43.8207 47.191 44.3864 47.191 45.0847V68.6802C47.191 69.0154 47.3242 69.3369 47.5612 69.5739C47.7983 69.8109 48.1198 69.9441 48.455 69.9441ZM50.1404 16.0112C50.3064 16.0112 50.4708 15.9785 50.6242 15.915C50.7775 15.8515 50.9169 15.7584 51.0343 15.641C51.1516 15.5236 51.2448 15.3843 51.3083 15.2309C51.3718 15.0775 51.4045 14.9132 51.4044 14.7472V13.0619C51.4044 12.3636 50.8384 11.7979 50.1404 11.7979C49.4424 11.7979 48.8764 12.3636 48.8764 13.0619V14.7473C48.8764 14.9133 48.9091 15.0777 48.9726 15.231C49.0362 15.3844 49.1293 15.5237 49.2467 15.6411C49.364 15.7584 49.5034 15.8515 49.6567 15.915C49.8101 15.9785 49.9744 16.0112 50.1404 16.0112ZM55.1966 16.0112C55.3626 16.0112 55.527 15.9785 55.6804 15.915C55.8337 15.8515 55.9731 15.7584 56.0905 15.641C56.2078 15.5236 56.301 15.3843 56.3645 15.2309C56.428 15.0775 56.4607 14.9132 56.4607 14.7472V13.0619C56.4607 12.3636 55.8946 11.7979 55.1966 11.7979C54.4986 11.7979 53.9326 12.3636 53.9326 13.0619V14.7473C53.9326 14.9133 53.9653 15.0777 54.0288 15.231C54.0924 15.3844 54.1855 15.5237 54.3028 15.6411C54.4202 15.7584 54.5596 15.8515 54.7129 15.915C54.8663 15.9785 55.0306 16.0112 55.1966 16.0112ZM60.2528 16.0112C60.4188 16.0112 60.5832 15.9785 60.7366 15.915C60.8899 15.8515 61.0293 15.7584 61.1467 15.641C61.2641 15.5236 61.3572 15.3843 61.4207 15.2309C61.4842 15.0775 61.5169 14.9132 61.5168 14.7472V13.0619C61.5168 12.3636 60.9508 11.7979 60.2528 11.7979C59.5548 11.7979 58.9888 12.3636 58.9888 13.0619V14.7473C58.9888 14.9133 59.0215 15.0777 59.085 15.231C59.1486 15.3844 59.2417 15.5237 59.3591 15.6411C59.4764 15.7584 59.6158 15.8515 59.7691 15.915C59.9225 15.9785 60.0869 16.0112 60.2528 16.0112ZM50.1404 24.4381C50.3064 24.4382 50.4708 24.4055 50.6242 24.342C50.7775 24.2784 50.9169 24.1853 51.0343 24.068C51.1516 23.9506 51.2448 23.8112 51.3083 23.6579C51.3718 23.5045 51.4045 23.3401 51.4044 23.1741V21.4887C51.4044 20.7904 50.8384 20.2247 50.1404 20.2247C49.4424 20.2247 48.8764 20.7904 48.8764 21.4887V23.1741C48.8764 23.3401 48.9091 23.5045 48.9726 23.6579C49.0361 23.8112 49.1292 23.9506 49.2466 24.068C49.364 24.1853 49.5033 24.2784 49.6567 24.342C49.8101 24.4055 49.9744 24.4382 50.1404 24.4381ZM55.1966 24.4381C55.3626 24.4382 55.527 24.4055 55.6804 24.342C55.8337 24.2784 55.9731 24.1853 56.0905 24.068C56.2078 23.9506 56.301 23.8112 56.3645 23.6579C56.428 23.5045 56.4607 23.3401 56.4607 23.1741V21.4887C56.4607 20.7904 55.8946 20.2247 55.1966 20.2247C54.4986 20.2247 53.9326 20.7904 53.9326 21.4887V23.1741C53.9326 23.3401 53.9653 23.5045 54.0288 23.6579C54.0923 23.8112 54.1854 23.9506 54.3028 24.068C54.4202 24.1853 54.5595 24.2784 54.7129 24.342C54.8663 24.4055 55.0306 24.4382 55.1966 24.4381ZM60.2528 24.4381C60.4188 24.4382 60.5832 24.4055 60.7366 24.342C60.8899 24.2784 61.0293 24.1853 61.1467 24.068C61.2641 23.9506 61.3572 23.8112 61.4207 23.6579C61.4842 23.5045 61.5169 23.3401 61.5168 23.1741V21.4887C61.5168 20.7904 60.9508 20.2247 60.2528 20.2247C59.5548 20.2247 58.9888 20.7904 58.9888 21.4887V23.1741C58.9888 23.3401 59.0215 23.5045 59.085 23.6579C59.1485 23.8112 59.2416 23.9506 59.359 24.068C59.4764 24.1853 59.6157 24.2784 59.7691 24.342C59.9225 24.4055 60.0868 24.4382 60.2528 24.4381ZM50.1404 32.8652C50.3064 32.8653 50.4708 32.8326 50.6242 32.7691C50.7775 32.7055 50.9169 32.6124 51.0343 32.4951C51.1516 32.3777 51.2448 32.2383 51.3083 32.085C51.3718 31.9316 51.4045 31.7672 51.4044 31.6012V29.9158C51.4044 29.2175 50.8384 28.6518 50.1404 28.6518C49.4424 28.6518 48.8764 29.2175 48.8764 29.9158V31.6012C48.8764 31.9365 49.0096 32.258 49.2466 32.495C49.4837 32.7321 49.8052 32.8652 50.1404 32.8652ZM55.1966 32.8652C55.3626 32.8653 55.527 32.8326 55.6804 32.7691C55.8337 32.7055 55.9731 32.6124 56.0905 32.4951C56.2078 32.3777 56.301 32.2383 56.3645 32.085C56.428 31.9316 56.4607 31.7672 56.4607 31.6012V29.9158C56.4607 29.2175 55.8946 28.6518 55.1966 28.6518C54.4986 28.6518 53.9326 29.2175 53.9326 29.9158V31.6012C53.9326 31.9365 54.0658 32.258 54.3028 32.495C54.5399 32.7321 54.8614 32.8652 55.1966 32.8652ZM60.2528 32.8652C60.4188 32.8653 60.5832 32.8326 60.7366 32.7691C60.8899 32.7055 61.0293 32.6124 61.1467 32.4951C61.2641 32.3777 61.3572 32.2383 61.4207 32.085C61.4842 31.9316 61.5169 31.7672 61.5168 31.6012V29.9158C61.5168 29.2175 60.9508 28.6518 60.2528 28.6518C59.5548 28.6518 58.9888 29.2175 58.9888 29.9158V31.6012C58.9888 31.9365 59.122 32.258 59.359 32.495C59.5961 32.7321 59.9176 32.8652 60.2528 32.8652ZM14.7472 36.236C14.9132 36.236 15.0775 36.2033 15.2309 36.1398C15.3843 36.0763 15.5236 35.9832 15.641 35.8658C15.7584 35.7484 15.8515 35.6091 15.915 35.4557C15.9785 35.3023 16.0112 35.138 16.0112 34.972V33.2865C16.0112 32.5882 15.4452 32.0225 14.7472 32.0225C14.0492 32.0225 13.4832 32.5882 13.4832 33.2865V34.972C13.4832 35.3072 13.6164 35.6287 13.8534 35.8657C14.0905 36.1028 14.4119 36.2359 14.7472 36.236ZM19.8034 36.236C19.9694 36.236 20.1337 36.2033 20.2871 36.1398C20.4405 36.0763 20.5798 35.9832 20.6972 35.8658C20.8146 35.7484 20.9077 35.6091 20.9712 35.4557C21.0347 35.3023 21.0674 35.138 21.0674 34.972V33.2865C21.0674 32.5882 20.5014 32.0225 19.8034 32.0225C19.1054 32.0225 18.5394 32.5882 18.5394 33.2865V34.972C18.5394 35.3072 18.6725 35.6287 18.9096 35.8658C19.1466 36.1028 19.4681 36.236 19.8034 36.236ZM24.8596 36.236C25.0256 36.236 25.1899 36.2033 25.3433 36.1398C25.4967 36.0763 25.636 35.9832 25.7534 35.8658C25.8708 35.7484 25.9639 35.6091 26.0274 35.4557C26.0909 35.3023 26.1236 35.138 26.1236 34.972V33.2865C26.1236 32.5882 25.5576 32.0225 24.8596 32.0225C24.1616 32.0225 23.5956 32.5882 23.5956 33.2865V34.972C23.5956 35.3072 23.7287 35.6287 23.9658 35.8658C24.2028 36.1028 24.5243 36.236 24.8596 36.236ZM14.7472 44.6629C14.9132 44.663 15.0775 44.6303 15.2309 44.5668C15.3843 44.5032 15.5236 44.4101 15.641 44.2928C15.7584 44.1754 15.8515 44.036 15.915 43.8827C15.9785 43.7293 16.0112 43.5649 16.0112 43.3989V41.7135C16.0112 41.0152 15.4452 40.4495 14.7472 40.4495C14.0492 40.4495 13.4832 41.0152 13.4832 41.7135V43.3989C13.4832 43.7341 13.6164 44.0556 13.8534 44.2927C14.0905 44.5297 14.4119 44.6629 14.7472 44.6629ZM19.8034 44.6629C19.9694 44.663 20.1337 44.6303 20.2871 44.5668C20.4405 44.5032 20.5798 44.4101 20.6972 44.2928C20.8146 44.1754 20.9077 44.036 20.9712 43.8827C21.0347 43.7293 21.0674 43.5649 21.0674 43.3989V41.7135C21.0674 41.0152 20.5014 40.4495 19.8034 40.4495C19.1054 40.4495 18.5394 41.0152 18.5394 41.7135V43.3989C18.5394 43.7342 18.6725 44.0557 18.9096 44.2927C19.1466 44.5298 19.4681 44.6629 19.8034 44.6629ZM24.8596 44.6629C25.0256 44.663 25.1899 44.6303 25.3433 44.5668C25.4967 44.5032 25.636 44.4101 25.7534 44.2928C25.8708 44.1754 25.9639 44.036 26.0274 43.8827C26.0909 43.7293 26.1236 43.5649 26.1236 43.3989V41.7135C26.1236 41.0152 25.5576 40.4495 24.8596 40.4495C24.1616 40.4495 23.5956 41.0152 23.5956 41.7135V43.3989C23.5956 43.7342 23.7287 44.0557 23.9658 44.2927C24.2028 44.5298 24.5243 44.6629 24.8596 44.6629ZM14.7472 53.0899C14.9132 53.0899 15.0775 53.0572 15.2309 52.9937C15.3843 52.9302 15.5236 52.8371 15.641 52.7197C15.7584 52.6023 15.8515 52.463 15.915 52.3096C15.9785 52.1563 16.0112 51.9919 16.0112 51.8259V50.1404C16.0112 49.4421 15.4452 48.8764 14.7472 48.8764C14.0492 48.8764 13.4832 49.4421 13.4832 50.1404V51.8259C13.4832 51.9919 13.5158 52.1562 13.5794 52.3096C13.6429 52.463 13.736 52.6023 13.8534 52.7197C13.9707 52.837 14.1101 52.9301 14.2635 52.9937C14.4168 53.0572 14.5812 53.0899 14.7472 53.0899ZM19.8034 53.0899C19.9694 53.0899 20.1337 53.0572 20.2871 52.9937C20.4405 52.9302 20.5798 52.8371 20.6972 52.7197C20.8146 52.6023 20.9077 52.463 20.9712 52.3096C21.0347 52.1563 21.0674 51.9919 21.0674 51.8259V50.1404C21.0674 49.4421 20.5014 48.8764 19.8034 48.8764C19.1054 48.8764 18.5394 49.4421 18.5394 50.1404V51.8259C18.5393 51.9919 18.572 52.1563 18.6355 52.3096C18.699 52.463 18.7922 52.6023 18.9095 52.7197C19.0269 52.8371 19.1663 52.9302 19.3196 52.9937C19.473 53.0572 19.6374 53.0899 19.8034 53.0899ZM24.8596 53.0899C25.0256 53.0899 25.1899 53.0572 25.3433 52.9937C25.4967 52.9302 25.636 52.8371 25.7534 52.7197C25.8708 52.6023 25.9639 52.463 26.0274 52.3096C26.0909 52.1563 26.1236 51.9919 26.1236 51.8259V50.1404C26.1236 49.4421 25.5576 48.8764 24.8596 48.8764C24.1616 48.8764 23.5956 49.4421 23.5956 50.1404V51.8259C23.5955 51.9919 23.6282 52.1563 23.6917 52.3096C23.7553 52.463 23.8484 52.6023 23.9657 52.7197C24.0831 52.8371 24.2225 52.9302 24.3758 52.9937C24.5292 53.0572 24.6936 53.0899 24.8596 53.0899ZM14.7472 61.5168C14.9132 61.5169 15.0775 61.4842 15.2309 61.4207C15.3843 61.3572 15.5236 61.264 15.641 61.1467C15.7584 61.0293 15.8515 60.8899 15.915 60.7366C15.9785 60.5832 16.0112 60.4188 16.0112 60.2528V58.5674C16.0112 57.8691 15.4452 57.3034 14.7472 57.3034C14.0492 57.3034 13.4832 57.8691 13.4832 58.5674V60.2528C13.4832 60.5881 13.6163 60.9096 13.8534 61.1466C14.0904 61.3837 14.4119 61.5168 14.7472 61.5168ZM19.8034 61.5168C19.9694 61.5169 20.1337 61.4842 20.2871 61.4207C20.4405 61.3572 20.5798 61.264 20.6972 61.1467C20.8146 61.0293 20.9077 60.8899 20.9712 60.7366C21.0347 60.5832 21.0674 60.4188 21.0674 60.2528V58.5674C21.0674 57.8691 20.5014 57.3034 19.8034 57.3034C19.1054 57.3034 18.5394 57.8691 18.5394 58.5674V60.2528C18.5393 60.4188 18.572 60.5832 18.6355 60.7366C18.699 60.8899 18.7922 61.0293 18.9095 61.1467C19.0269 61.264 19.1663 61.3572 19.3196 61.4207C19.473 61.4842 19.6374 61.5169 19.8034 61.5168ZM24.8596 61.5168C25.0256 61.5169 25.1899 61.4842 25.3433 61.4207C25.4967 61.3572 25.636 61.264 25.7534 61.1467C25.8708 61.0293 25.9639 60.8899 26.0274 60.7366C26.0909 60.5832 26.1236 60.4188 26.1236 60.2528V58.5674C26.1236 57.8691 25.5576 57.3034 24.8596 57.3034C24.1616 57.3034 23.5956 57.8691 23.5956 58.5674V60.2528C23.5955 60.4188 23.6282 60.5832 23.6917 60.7366C23.7553 60.8899 23.8484 61.0293 23.9657 61.1467C24.0831 61.264 24.2225 61.3572 24.3758 61.4207C24.5292 61.4842 24.6936 61.5169 24.8596 61.5168ZM60.2528 41.2922C60.4188 41.2922 60.5832 41.2595 60.7366 41.196C60.8899 41.1325 61.0293 41.0394 61.1467 40.922C61.2641 40.8046 61.3572 40.6653 61.4207 40.5119C61.4842 40.3585 61.5169 40.1942 61.5168 40.0282V38.3427C61.5168 37.6444 60.9508 37.0787 60.2528 37.0787C59.5548 37.0787 58.9888 37.6444 58.9888 38.3427V40.0282C58.9888 40.3634 59.122 40.6849 59.359 40.922C59.5961 41.159 59.9176 41.2922 60.2528 41.2922ZM60.2528 49.7191C60.4188 49.7192 60.5832 49.6865 60.7366 49.623C60.8899 49.5594 61.0293 49.4663 61.1467 49.349C61.2641 49.2316 61.3572 49.0922 61.4207 48.9389C61.4842 48.7855 61.5169 48.6211 61.5168 48.4551V46.7697C61.5168 46.0714 60.9508 45.5057 60.2528 45.5057C59.5548 45.5057 58.9888 46.0714 58.9888 46.7697V48.4551C58.9888 48.7904 59.122 49.1119 59.359 49.3489C59.5961 49.586 59.9176 49.7191 60.2528 49.7191ZM60.2528 58.1461C60.4188 58.1461 60.5832 58.1134 60.7366 58.0499C60.8899 57.9864 61.0293 57.8933 61.1467 57.7759C61.2641 57.6585 61.3572 57.5192 61.4207 57.3658C61.4842 57.2125 61.5169 57.0481 61.5168 56.8821V55.1966C61.5168 54.4983 60.9508 53.9326 60.2528 53.9326C59.5548 53.9326 58.9888 54.4983 58.9888 55.1966V56.8821C58.9888 57.0481 59.0215 57.2124 59.085 57.3658C59.1486 57.5192 59.2417 57.6585 59.359 57.7759C59.4764 57.8932 59.6158 57.9864 59.7691 58.0499C59.9225 58.1134 60.0868 58.1461 60.2528 58.1461ZM60.2528 66.573C60.4188 66.5731 60.5832 66.5404 60.7366 66.4769C60.8899 66.4134 61.0293 66.3202 61.1467 66.2029C61.2641 66.0855 61.3572 65.9461 61.4207 65.7928C61.4842 65.6394 61.5169 65.475 61.5168 65.309V63.6236C61.5168 62.9253 60.9508 62.3596 60.2528 62.3596C59.5548 62.3596 58.9888 62.9253 58.9888 63.6236V65.309C58.9888 65.6443 59.122 65.9658 59.359 66.2028C59.5961 66.4399 59.9176 66.573 60.2528 66.573ZM37.9213 19.8034C37.9213 19.4681 37.7881 19.1466 37.5511 18.9096C37.314 18.6725 36.9925 18.5394 36.6573 18.5394H26.5449C26.3789 18.5393 26.2145 18.572 26.0611 18.6355C25.9078 18.699 25.7684 18.7922 25.651 18.9095C25.5337 19.0269 25.4406 19.1663 25.377 19.3196C25.3135 19.473 25.2808 19.6374 25.2809 19.8034C25.2809 20.1386 25.414 20.4601 25.6511 20.6972C25.8881 20.9342 26.2096 21.0674 26.5449 21.0674H36.6573C36.8233 21.0674 36.9877 21.0347 37.141 20.9712C37.2944 20.9077 37.4337 20.8146 37.5511 20.6972C37.6685 20.5798 37.7616 20.4405 37.8251 20.2871C37.8886 20.1337 37.9213 19.9694 37.9213 19.8034Z" fill="#0C0E17"/>
</svg>
