<svg width="75" height="75" viewBox="0 0 75 75" fill="none" xmlns="http://www.w3.org/2000/svg">
<path d="M35.1562 62.4023C35.9648 62.4023 36.6211 61.7461 36.6211 60.9375C36.6211 60.1289 35.9648 59.4727 35.1562 59.4727C34.3477 59.4727 33.6914 60.1289 33.6914 60.9375C33.6914 61.7461 34.3477 62.4023 35.1562 62.4023ZM57.1289 53.6133H48.3398C47.5308 53.6133 46.875 54.2691 46.875 55.0781V63.8672C46.875 64.6762 47.5308 65.332 48.3398 65.332H57.1289C57.9379 65.332 58.5938 64.6762 58.5938 63.8672V55.0781C58.5938 54.2691 57.9379 53.6133 57.1289 53.6133ZM55.6641 62.4023H49.8047V56.543H55.6641V62.4023ZM21.9727 18.457H13.1836C12.3746 18.457 11.7188 19.1128 11.7188 19.9219V28.7109C11.7188 29.52 12.3746 30.1758 13.1836 30.1758H21.9727C22.7817 30.1758 23.4375 29.52 23.4375 28.7109V19.9219C23.4375 19.1128 22.7817 18.457 21.9727 18.457ZM20.5078 27.2461H14.6484V21.3867H20.5078V27.2461ZM39.5508 18.457H30.7617C29.9527 18.457 29.2969 19.1128 29.2969 19.9219V28.7109C29.2969 29.52 29.9527 30.1758 30.7617 30.1758H39.5508C40.3598 30.1758 41.0156 29.52 41.0156 28.7109V19.9219C41.0156 19.1128 40.3598 18.457 39.5508 18.457ZM38.0859 27.2461H32.2266V21.3867H38.0859V27.2461ZM46.875 19.9219V28.7109C46.875 29.52 47.5308 30.1758 48.3398 30.1758H57.1289C57.9379 30.1758 58.5938 29.52 58.5938 28.7109V19.9219C58.5938 19.1128 57.9379 18.457 57.1289 18.457H48.3398C47.5308 18.457 46.875 19.1128 46.875 19.9219ZM49.8047 21.3867H55.6641V27.2461H49.8047V21.3867ZM21.9727 36.0352H13.1836C12.3746 36.0352 11.7188 36.691 11.7188 37.5V46.2891C11.7188 47.0981 12.3746 47.7539 13.1836 47.7539H21.9727C22.7817 47.7539 23.4375 47.0981 23.4375 46.2891V37.5C23.4375 36.691 22.7817 36.0352 21.9727 36.0352ZM20.5078 44.8242H14.6484V38.9648H20.5078V44.8242ZM39.5508 36.0352H30.7617C29.9527 36.0352 29.2969 36.691 29.2969 37.5V46.2891C29.2969 47.0981 29.9527 47.7539 30.7617 47.7539H39.5508C40.3598 47.7539 41.0156 47.0981 41.0156 46.2891V37.5C41.0156 36.691 40.3598 36.0352 39.5508 36.0352ZM38.0859 44.8242H32.2266V38.9648H38.0859V44.8242ZM57.1289 36.0352H48.3398C47.5308 36.0352 46.875 36.691 46.875 37.5V46.2891C46.875 47.0981 47.5308 47.7539 48.3398 47.7539H57.1289C57.9379 47.7539 58.5938 47.0981 58.5938 46.2891V37.5C58.5938 36.691 57.9379 36.0352 57.1289 36.0352ZM55.6641 44.8242H49.8047V38.9648H55.6641V44.8242ZM21.9727 53.6133H13.1836C12.3746 53.6133 11.7188 54.2691 11.7188 55.0781V63.8672C11.7188 64.6762 12.3746 65.332 13.1836 65.332H21.9727C22.7817 65.332 23.4375 64.6762 23.4375 63.8672V55.0781C23.4375 54.2691 22.7817 53.6133 21.9727 53.6133ZM20.5078 62.4023H14.6484V56.543H20.5078V62.4023Z" fill="#0C0E17"/>
<path d="M54.1992 0H16.1133C15.3042 0 14.6484 0.655811 14.6484 1.46484V9.66797H7.32422C6.51519 9.66797 5.85938 10.3238 5.85938 11.1328V72.0703H1.46484C0.655811 72.0703 0 72.7261 0 73.5352C0 74.3442 0.655811 75 1.46484 75H68.8477C69.6567 75 70.3125 74.3442 70.3125 73.5352C70.3125 72.7261 69.6567 72.0703 68.8477 72.0703H64.4531V11.1328C64.4531 10.3238 63.7973 9.66797 62.9883 9.66797H55.6641V1.46484C55.6641 0.655811 55.0083 0 54.1992 0ZM17.5781 2.92969H52.7344V9.66797H17.5781V2.92969ZM41.0156 72.0703H36.6211V66.7969C36.6211 65.9878 35.9653 65.332 35.1562 65.332C34.3472 65.332 33.6914 65.9878 33.6914 66.7969V72.0703H29.2969V56.543H41.0156V72.0703ZM61.5234 72.0703H43.9453V55.0781C43.9453 54.2691 43.2895 53.6133 42.4805 53.6133H27.832C27.023 53.6133 26.3672 54.2691 26.3672 55.0781V72.0703H8.78906V12.5977H61.5234V72.0703Z" fill="#0C0E17"/>
</svg>
