<svg width="75" height="75" viewBox="0 0 75 75" fill="none" xmlns="http://www.w3.org/2000/svg">
<path d="M31.6406 17.5781H36.3281C36.6389 17.5781 36.937 17.4547 37.1568 17.2349C37.3765 17.0151 37.5 16.7171 37.5 16.4062V9.375C37.5 9.0642 37.3765 8.76613 37.1568 8.54636C36.937 8.32659 36.6389 8.20312 36.3281 8.20312H31.6406C31.3298 8.20312 31.0318 8.32659 30.812 8.54636C30.5922 8.76613 30.4688 9.0642 30.4688 9.375V16.4062C30.4688 16.7171 30.5922 17.0151 30.812 17.2349C31.0318 17.4547 31.3298 17.5781 31.6406 17.5781ZM32.8125 10.5469H35.1562V15.2344H32.8125V10.5469ZM41.0156 17.5781H45.7031C46.0139 17.5781 46.312 17.4547 46.5318 17.2349C46.7515 17.0151 46.875 16.7171 46.875 16.4062V9.375C46.875 9.0642 46.7515 8.76613 46.5318 8.54636C46.312 8.32659 46.0139 8.20312 45.7031 8.20312H41.0156C40.7048 8.20312 40.4068 8.32659 40.187 8.54636C39.9672 8.76613 39.8438 9.0642 39.8438 9.375V16.4062C39.8438 16.7171 39.9672 17.0151 40.187 17.2349C40.4068 17.4547 40.7048 17.5781 41.0156 17.5781ZM42.1875 10.5469H44.5312V15.2344H42.1875V10.5469ZM50.3906 17.5781H55.0781C55.3889 17.5781 55.687 17.4547 55.9068 17.2349C56.1265 17.0151 56.25 16.7171 56.25 16.4062V9.375C56.25 9.0642 56.1265 8.76613 55.9068 8.54636C55.687 8.32659 55.3889 8.20312 55.0781 8.20312H50.3906C50.0798 8.20312 49.7818 8.32659 49.562 8.54636C49.3422 8.76613 49.2188 9.0642 49.2188 9.375V16.4062C49.2188 16.7171 49.3422 17.0151 49.562 17.2349C49.7818 17.4547 50.0798 17.5781 50.3906 17.5781ZM51.5625 10.5469H53.9062V15.2344H51.5625V10.5469ZM31.6406 29.2969H36.3281C36.6389 29.2969 36.937 29.1734 37.1568 28.9536C37.3765 28.7339 37.5 28.4358 37.5 28.125V21.0938C37.5 20.7829 37.3765 20.4849 37.1568 20.2651C36.937 20.0453 36.6389 19.9219 36.3281 19.9219H31.6406C31.3298 19.9219 31.0318 20.0453 30.812 20.2651C30.5922 20.4849 30.4688 20.7829 30.4688 21.0938V28.125C30.4688 28.4358 30.5922 28.7339 30.812 28.9536C31.0318 29.1734 31.3298 29.2969 31.6406 29.2969ZM32.8125 22.2656H35.1562V26.9531H32.8125V22.2656ZM41.0156 29.2969H45.7031C46.0139 29.2969 46.312 29.1734 46.5318 28.9536C46.7515 28.7339 46.875 28.4358 46.875 28.125V21.0938C46.875 20.7829 46.7515 20.4849 46.5318 20.2651C46.312 20.0453 46.0139 19.9219 45.7031 19.9219H41.0156C40.7048 19.9219 40.4068 20.0453 40.187 20.2651C39.9672 20.4849 39.8438 20.7829 39.8438 21.0938V28.125C39.8438 28.4358 39.9672 28.7339 40.187 28.9536C40.4068 29.1734 40.7048 29.2969 41.0156 29.2969ZM42.1875 22.2656H44.5312V26.9531H42.1875V22.2656ZM50.3906 29.2969H55.0781C55.3889 29.2969 55.687 29.1734 55.9068 28.9536C56.1265 28.7339 56.25 28.4358 56.25 28.125V21.0938C56.25 20.7829 56.1265 20.4849 55.9068 20.2651C55.687 20.0453 55.3889 19.9219 55.0781 19.9219H50.3906C50.0798 19.9219 49.7818 20.0453 49.562 20.2651C49.3422 20.4849 49.2188 20.7829 49.2188 21.0938V28.125C49.2188 28.4358 49.3422 28.7339 49.562 28.9536C49.7818 29.1734 50.0798 29.2969 50.3906 29.2969ZM51.5625 22.2656H53.9062V26.9531H51.5625V22.2656ZM22.2656 17.5781H26.9531C27.2639 17.5781 27.562 17.4547 27.7818 17.2349C28.0015 17.0151 28.125 16.7171 28.125 16.4062V9.375C28.125 9.0642 28.0015 8.76613 27.7818 8.54636C27.562 8.32659 27.2639 8.20312 26.9531 8.20312H22.2656C21.9548 8.20312 21.6568 8.32659 21.437 8.54636C21.2172 8.76613 21.0938 9.0642 21.0938 9.375V16.4062C21.0938 16.7171 21.2172 17.0151 21.437 17.2349C21.6568 17.4547 21.9548 17.5781 22.2656 17.5781ZM23.4375 10.5469H25.7812V15.2344H23.4375V10.5469ZM22.2656 29.2969H26.9531C27.2639 29.2969 27.562 29.1734 27.7818 28.9536C28.0015 28.7339 28.125 28.4358 28.125 28.125V21.0938C28.125 20.7829 28.0015 20.4849 27.7818 20.2651C27.562 20.0453 27.2639 19.9219 26.9531 19.9219H22.2656C21.9548 19.9219 21.6568 20.0453 21.437 20.2651C21.2172 20.4849 21.0938 20.7829 21.0938 21.0938V28.125C21.0938 28.4358 21.2172 28.7339 21.437 28.9536C21.6568 29.1734 21.9548 29.2969 22.2656 29.2969ZM23.4375 22.2656H25.7812V26.9531H23.4375V22.2656ZM31.6406 41.0156H36.3281C36.6389 41.0156 36.937 40.8922 37.1568 40.6724C37.3765 40.4526 37.5 40.1546 37.5 39.8438V32.8125C37.5 32.5017 37.3765 32.2036 37.1568 31.9839C36.937 31.7641 36.6389 31.6406 36.3281 31.6406H31.6406C31.3298 31.6406 31.0318 31.7641 30.812 31.9839C30.5922 32.2036 30.4688 32.5017 30.4688 32.8125V39.8438C30.4688 40.1546 30.5922 40.4526 30.812 40.6724C31.0318 40.8922 31.3298 41.0156 31.6406 41.0156ZM32.8125 33.9844H35.1562V38.6719H32.8125V33.9844ZM22.2656 41.0156H26.9531C27.2639 41.0156 27.562 40.8922 27.7818 40.6724C28.0015 40.4526 28.125 40.1546 28.125 39.8438V32.8125C28.125 32.5017 28.0015 32.2036 27.7818 31.9839C27.562 31.7641 27.2639 31.6406 26.9531 31.6406H22.2656C21.9548 31.6406 21.6568 31.7641 21.437 31.9839C21.2172 32.2036 21.0938 32.5017 21.0938 32.8125V39.8438C21.0938 40.1546 21.2172 40.4526 21.437 40.6724C21.6568 40.8922 21.9548 41.0156 22.2656 41.0156ZM23.4375 33.9844H25.7812V38.6719H23.4375V33.9844ZM41.0156 41.0156H45.7031C46.0139 41.0156 46.312 40.8922 46.5318 40.6724C46.7515 40.4526 46.875 40.1546 46.875 39.8438V32.8125C46.875 32.5017 46.7515 32.2036 46.5318 31.9839C46.312 31.7641 46.0139 31.6406 45.7031 31.6406H41.0156C40.7048 31.6406 40.4068 31.7641 40.187 31.9839C39.9672 32.2036 39.8438 32.5017 39.8438 32.8125V39.8438C39.8438 40.1546 39.9672 40.4526 40.187 40.6724C40.4068 40.8922 40.7048 41.0156 41.0156 41.0156ZM42.1875 33.9844H44.5312V38.6719H42.1875V33.9844ZM50.3906 41.0156H55.0781C55.3889 41.0156 55.687 40.8922 55.9068 40.6724C56.1265 40.4526 56.25 40.1546 56.25 39.8438V32.8125C56.25 32.5017 56.1265 32.2036 55.9068 31.9839C55.687 31.7641 55.3889 31.6406 55.0781 31.6406H50.3906C50.0798 31.6406 49.7818 31.7641 49.562 31.9839C49.3422 32.2036 49.2188 32.5017 49.2188 32.8125V39.8438C49.2188 40.1546 49.3422 40.4526 49.562 40.6724C49.7818 40.8922 50.0798 41.0156 50.3906 41.0156ZM51.5625 33.9844H53.9062V38.6719H51.5625V33.9844ZM31.6406 52.7344H36.3281C36.6389 52.7344 36.937 52.6109 37.1568 52.3911C37.3765 52.1714 37.5 51.8733 37.5 51.5625V44.5312C37.5 44.2204 37.3765 43.9224 37.1568 43.7026C36.937 43.4828 36.6389 43.3594 36.3281 43.3594H31.6406C31.3298 43.3594 31.0318 43.4828 30.812 43.7026C30.5922 43.9224 30.4688 44.2204 30.4688 44.5312V51.5625C30.4688 51.8733 30.5922 52.1714 30.812 52.3911C31.0318 52.6109 31.3298 52.7344 31.6406 52.7344ZM32.8125 45.7031H35.1562V50.3906H32.8125V45.7031ZM22.2656 52.7344H26.9531C27.2639 52.7344 27.562 52.6109 27.7818 52.3911C28.0015 52.1714 28.125 51.8733 28.125 51.5625V44.5312C28.125 44.2204 28.0015 43.9224 27.7818 43.7026C27.562 43.4828 27.2639 43.3594 26.9531 43.3594H22.2656C21.9548 43.3594 21.6568 43.4828 21.437 43.7026C21.2172 43.9224 21.0938 44.2204 21.0938 44.5312V51.5625C21.0938 51.8733 21.2172 52.1714 21.437 52.3911C21.6568 52.6109 21.9548 52.7344 22.2656 52.7344ZM23.4375 45.7031H25.7812V50.3906H23.4375V45.7031ZM41.0156 52.7344H45.7031C46.0139 52.7344 46.312 52.6109 46.5318 52.3911C46.7515 52.1714 46.875 51.8733 46.875 51.5625V44.5312C46.875 44.2204 46.7515 43.9224 46.5318 43.7026C46.312 43.4828 46.0139 43.3594 45.7031 43.3594H41.0156C40.7048 43.3594 40.4068 43.4828 40.187 43.7026C39.9672 43.9224 39.8438 44.2204 39.8438 44.5312V51.5625C39.8438 51.8733 39.9672 52.1714 40.187 52.3911C40.4068 52.6109 40.7048 52.7344 41.0156 52.7344ZM42.1875 45.7031H44.5312V50.3906H42.1875V45.7031ZM50.3906 52.7344H55.0781C55.3889 52.7344 55.687 52.6109 55.9068 52.3911C56.1265 52.1714 56.25 51.8733 56.25 51.5625V44.5312C56.25 44.2204 56.1265 43.9224 55.9068 43.7026C55.687 43.4828 55.3889 43.3594 55.0781 43.3594H50.3906C50.0798 43.3594 49.7818 43.4828 49.562 43.7026C49.3422 43.9224 49.2188 44.2204 49.2188 44.5312V51.5625C49.2188 51.8733 49.3422 52.1714 49.562 52.3911C49.7818 52.6109 50.0798 52.7344 50.3906 52.7344ZM51.5625 45.7031H53.9062V50.3906H51.5625V45.7031Z" fill="#0C0E17"/>
<path d="M71.4844 45.7031H60.9375V4.6875C60.9375 4.3767 60.814 4.07863 60.5942 3.85886C60.3745 3.63909 60.0764 3.51563 59.7656 3.51562H17.5781C17.2673 3.51563 16.9692 3.63909 16.7495 3.85886C16.5297 4.07863 16.4062 4.3767 16.4062 4.6875V46.7391C15.4209 46.1052 14.2829 45.7487 13.112 45.707C11.9412 45.6653 10.7807 45.94 9.75279 46.5021C8.72484 47.0642 7.86741 47.893 7.27073 48.9013C6.67404 49.9096 6.36015 51.06 6.36209 52.2316C6.36332 52.8826 6.46409 53.5295 6.66092 54.15C5.21551 54.6681 3.99955 55.6801 3.22761 57.0074C2.45568 58.3347 2.17739 59.892 2.44185 61.4045C2.70632 62.917 3.49654 64.2875 4.67306 65.2741C5.84959 66.2607 7.3368 66.8 8.87225 66.7969C9.86137 66.7908 10.8357 66.5558 11.7187 66.1102V70.3125C11.7187 70.6233 11.8422 70.9214 12.062 71.1411C12.2817 71.3609 12.5798 71.4844 12.8906 71.4844C13.2014 71.4844 13.4995 71.3609 13.7192 71.1411C13.939 70.9214 14.0625 70.6233 14.0625 70.3125V66.1102C14.7956 66.4721 15.5911 66.6905 16.4062 66.7535V70.3125C16.4062 70.6233 16.5297 70.9214 16.7495 71.1411C16.9692 71.3609 17.2673 71.4844 17.5781 71.4844H69.1406C69.4514 71.4844 69.7495 71.3609 69.9692 71.1411C70.189 70.9214 70.3125 70.6233 70.3125 70.3125V52.7344H71.4844C71.7952 52.7344 72.0932 52.6109 72.313 52.3911C72.5328 52.1714 72.6562 51.8733 72.6562 51.5625V46.875C72.6562 46.5642 72.5328 46.2661 72.313 46.0464C72.0932 45.8266 71.7952 45.7031 71.4844 45.7031ZM12.8906 59.7656C12.5798 59.7656 12.2817 59.8891 12.062 60.1089C11.8422 60.3286 11.7187 60.6267 11.7187 60.9375V63.2812C10.9589 64.028 9.93756 64.4485 8.87225 64.4531C7.801 64.4573 6.76924 64.0491 5.99081 63.3131C5.21238 62.5771 4.74699 61.5699 4.69109 60.5001C4.63519 59.4303 4.99307 58.38 5.69055 57.5669C6.38804 56.7539 7.37164 56.2403 8.43748 56.1328C8.63293 56.1119 8.81997 56.0421 8.98138 55.9299C9.1428 55.8177 9.2734 55.6667 9.36117 55.4909C9.44894 55.315 9.49105 55.1198 9.48363 54.9234C9.47622 54.727 9.41951 54.5356 9.31873 54.3668C8.9246 53.7241 8.71461 52.9855 8.7117 52.2316C8.7117 51.1218 9.15259 50.0574 9.93739 49.2726C10.7222 48.4878 11.7866 48.0469 12.8965 48.0469C14.0063 48.0469 15.0707 48.4878 15.8555 49.2726C16.6403 50.0574 17.0812 51.1218 17.0812 52.2316C17.0783 52.9855 16.8683 53.7241 16.4742 54.3668C16.3734 54.5356 16.3167 54.727 16.3093 54.9234C16.3019 55.1198 16.344 55.315 16.4318 55.4909C16.5195 55.6667 16.6501 55.8177 16.8115 55.9299C16.973 56.0421 17.16 56.1119 17.3555 56.1328C18.4219 56.2403 19.4059 56.7542 20.1035 57.568C20.8011 58.3817 21.1587 59.4327 21.102 60.503C21.0453 61.5734 20.5787 62.5808 19.7991 63.3162C19.0195 64.0517 17.9866 64.4589 16.9148 64.4531C15.8475 64.45 14.8237 64.0294 14.0625 63.2812V60.9375C14.0625 60.6267 13.939 60.3286 13.7192 60.1089C13.4995 59.8891 13.2014 59.7656 12.8906 59.7656ZM44.5312 69.1406H32.8125V57.4219H44.5312V69.1406ZM58.5937 69.1406H46.875V56.25C46.875 55.9392 46.7515 55.6411 46.5317 55.4214C46.312 55.2016 46.0139 55.0781 45.7031 55.0781H31.6406C31.3298 55.0781 31.0317 55.2016 30.812 55.4214C30.5922 55.6411 30.4687 55.9392 30.4687 56.25V69.1406H18.75V66.5285C20.0702 66.1434 21.2345 65.3501 22.076 64.2624C22.9174 63.1747 23.3928 61.8484 23.4339 60.4738C23.4751 59.0993 23.0798 57.7469 22.3049 56.6109C21.5299 55.4748 20.4151 54.6133 19.1203 54.15C19.3171 53.5295 19.4179 52.8826 19.4191 52.2316C19.4181 51.2395 19.1892 50.2608 18.75 49.3711V5.85938H58.5937V69.1406ZM67.9687 69.1406H60.9375V52.7344H67.9687V69.1406ZM70.3125 50.3906H60.9375V48.0469H70.3125V50.3906Z" fill="#0C0E17"/>
</svg>
