<svg width="113" height="121" viewBox="0 0 113 121" fill="none" xmlns="http://www.w3.org/2000/svg">
<path d="M23.5316 61.8537C28.8702 52.5271 31.9899 42.0965 32.6488 31.3702C33.3078 20.644 31.4883 9.90997 27.3314 0L-3.91207 18.0706L12.9763 47.6252C13.7174 48.9089 14.1076 50.3651 14.1076 51.8473C14.1076 53.3296 13.7174 54.7858 12.9763 56.0694C12.2468 57.3335 11.2021 58.3868 9.94417 59.1268C8.68624 59.8667 7.25799 60.268 5.79875 60.2915H-36V96.9815C-23.8811 96.7996 -12.0184 93.4648 -1.57991 87.3053C8.8586 81.1459 17.5131 72.3741 23.5316 61.8537Z" fill="#FF8A0A"/>
<path d="M38.224 98.4173C39.6905 98.4335 41.1274 98.8313 42.3934 99.5717C43.6593 100.312 44.7106 101.369 45.4438 102.639L70.4808 146L101.893 127.845C96.4442 115.509 87.5274 105.021 76.2275 97.6591C64.9276 90.2971 51.7317 86.3777 38.2451 86.3777C24.7586 86.3777 11.5627 90.2971 0.262775 97.6591C-11.0371 105.021 -19.954 115.509 -25.403 127.845L6.22054 145.916L31.2576 102.555C31.9603 101.32 32.972 100.29 34.1933 99.5643C35.4147 98.8389 36.8037 98.4436 38.224 98.4173Z" fill="#FF8A0A"/>
<path d="M52.9598 61.8537C59.0191 72.3001 67.6869 80.9942 78.1148 87.0852C88.5428 93.1762 100.374 96.4553 112.449 96.6016V59.9115H70.6082C69.168 59.8687 67.7627 59.458 66.526 58.7186C65.2894 57.9792 64.2625 56.9357 63.5431 55.6873C62.8236 54.4389 62.4356 53.0272 62.416 51.5864C62.3963 50.1457 62.7456 48.7239 63.4306 47.4564L80.319 17.9017L49.0755 0C44.909 9.91128 43.0916 20.652 43.7655 31.3823C44.4393 42.1126 47.5861 52.5415 52.9598 61.8537Z" fill="#FF8A0A"/>
</svg>
