<svg width="45" height="44" viewBox="0 0 45 44" fill="none" xmlns="http://www.w3.org/2000/svg">
<g clip-path="url(#clip0_807_18452)">
<path d="M44.5 22C44.5 34.1507 34.6507 44 22.5 44C10.3493 44 0.5 34.1481 0.5 22C0.5 10.0263 10.0588 0.287891 21.9586 0C21.9491 0.131484 21.944 0.265547 21.944 0.399609C21.944 1.66905 22.379 2.90015 23.1765 3.88781C23.974 4.87546 25.0858 5.56002 26.3268 5.82742C25.3624 7.48895 24.9673 9.42012 25.2017 11.3269C25.4361 13.2337 26.2872 15.0117 27.6254 16.3901C28.9635 17.7686 30.7155 18.672 32.6145 18.9628C34.5135 19.2537 36.4555 18.9161 38.1449 18.0013C38.5302 19.3249 39.3945 20.4575 40.5694 21.1785C41.7443 21.8994 43.1455 22.1571 44.5 21.9012V22Z" fill="#FFB864"/>
<path d="M29.2874 40.0589C30.8152 40.0589 32.0538 38.82 32.0538 37.2917C32.0538 35.7634 30.8152 34.5245 29.2874 34.5245C27.7596 34.5245 26.5211 35.7634 26.5211 37.2917C26.5211 38.82 27.7596 40.0589 29.2874 40.0589Z" fill="white"/>
<path d="M16.6572 7.95784C18.185 7.95784 19.4235 6.71892 19.4235 5.19065C19.4235 3.66237 18.185 2.42346 16.6572 2.42346C15.1294 2.42346 13.8909 3.66237 13.8909 5.19065C13.8909 6.71892 15.1294 7.95784 16.6572 7.95784Z" fill="white"/>
<path d="M10.4387 34.9095C11.9665 34.9095 13.205 33.6706 13.205 32.1423C13.205 30.614 11.9665 29.3751 10.4387 29.3751C8.91089 29.3751 7.67236 30.614 7.67236 32.1423C7.67236 33.6706 8.91089 34.9095 10.4387 34.9095Z" fill="white"/>
<path d="M15.4291 23.0055C17.1415 23.0055 18.5297 21.6169 18.5297 19.904C18.5297 18.1911 17.1415 16.8025 15.4291 16.8025C13.7167 16.8025 12.3285 18.1911 12.3285 19.904C12.3285 21.6169 13.7167 23.0055 15.4291 23.0055Z" fill="white"/>
<path d="M31.6816 3.85346C32.6517 3.85346 33.4382 3.06702 33.4382 2.09689C33.4382 1.12677 32.6517 0.340332 31.6816 0.340332C30.7115 0.340332 29.925 1.12677 29.925 2.09689C29.925 3.06702 30.7115 3.85346 31.6816 3.85346Z" fill="#FFB864"/>
<path d="M30.2336 11.9728C31.2037 11.9728 31.9902 11.1864 31.9902 10.2163C31.9902 9.24616 31.2037 8.45972 30.2336 8.45972C29.2635 8.45972 28.4771 9.24616 28.4771 10.2163C28.4771 11.1864 29.2635 11.9728 30.2336 11.9728Z" fill="#FFB864"/>
<path d="M38.3504 11.0757C39.0429 11.0757 39.6042 10.5143 39.6042 9.82182C39.6042 9.12935 39.0429 8.56799 38.3504 8.56799C37.6579 8.56799 37.0966 9.12935 37.0966 9.82182C37.0966 10.5143 37.6579 11.0757 38.3504 11.0757Z" fill="#FFB864"/>
<path d="M8.07371 13.1339C9.21042 13.1339 10.1319 12.2124 10.1319 11.0757C10.1319 9.93895 9.21042 9.01746 8.07371 9.01746C6.93699 9.01746 6.0155 9.93895 6.0155 11.0757C6.0155 12.2124 6.93699 13.1339 8.07371 13.1339Z" fill="white"/>
<path d="M19.7337 28.6645C20.8705 28.6645 21.7919 27.743 21.7919 26.6063C21.7919 25.4696 20.8705 24.5481 19.7337 24.5481C18.597 24.5481 17.6755 25.4696 17.6755 26.6063C17.6755 27.743 18.597 28.6645 19.7337 28.6645Z" fill="white"/>
<path d="M26.5674 15.058C26.3269 15.2977 26.031 15.4742 25.7059 15.5721C25.3808 15.6699 25.0366 15.686 24.7038 15.6188C24.371 15.5517 24.0599 15.4035 23.7981 15.1873C23.5364 14.9711 23.332 14.6936 23.2032 14.3795C23.0744 14.0653 23.0252 13.7243 23.0598 13.3865C23.0945 13.0488 23.212 12.7249 23.4019 12.4434C23.5918 12.162 23.8482 11.9318 24.1484 11.7733C24.4486 11.6147 24.7833 11.5327 25.1228 11.5346H25.2337C25.4167 12.7921 25.8719 13.9945 26.5674 15.058Z" fill="white"/>
<path d="M5.00404 22.9385C5.56267 22.9385 6.01552 22.4856 6.01552 21.927C6.01552 21.3684 5.56267 20.9155 5.00404 20.9155C4.44541 20.9155 3.99255 21.3684 3.99255 21.927C3.99255 22.4856 4.44541 22.9385 5.00404 22.9385Z" fill="white"/>
<path d="M28.6524 23.1172C29.2713 23.1172 29.773 22.6155 29.773 21.9966C29.773 21.3777 29.2713 20.876 28.6524 20.876C28.0335 20.876 27.5317 21.3777 27.5317 21.9966C27.5317 22.6155 28.0335 23.1172 28.6524 23.1172Z" fill="white"/>
<path d="M40.7798 25.3086C41.3987 25.3086 41.9004 24.8069 41.9004 24.188C41.9004 23.5691 41.3987 23.0674 40.7798 23.0674C40.1609 23.0674 39.6592 23.5691 39.6592 24.188C39.6592 24.8069 40.1609 25.3086 40.7798 25.3086Z" fill="white"/>
<path opacity="0.15" d="M44.5 21.9011V22C44.5 34.1507 34.6498 44 22.5 44C16.8119 44.0077 11.3434 41.8044 7.24951 37.8554C10.3691 39.4697 13.8312 40.3098 17.3437 40.3046C28.8972 40.3046 38.3709 31.3972 39.2733 20.0741C39.9078 20.8102 40.7247 21.3664 41.6421 21.6871C42.5595 22.0078 43.5451 22.0816 44.5 21.9011Z" fill="black"/>
</g>
<defs>
<clipPath id="clip0_807_18452">
<rect width="44" height="44" fill="white" transform="translate(0.5)"/>
</clipPath>
</defs>
</svg>
