<svg width="119" height="80" viewBox="0 0 119 80" fill="none" xmlns="http://www.w3.org/2000/svg">
<g opacity="0.12">
<path d="M71.0308 25.4112C66.766 17.9607 64.2739 9.62836 63.7475 1.05978C63.2211 -7.50879 64.6746 -16.0835 67.9953 -24L92.9538 -9.56452L79.4627 14.0449C78.8707 15.0704 78.559 16.2336 78.559 17.4177C78.559 18.6018 78.8707 19.765 79.4627 20.7905C80.0455 21.8002 80.88 22.6417 81.8849 23.2328C82.8898 23.8239 84.0307 24.1445 85.1964 24.1632H118.587V53.4727C108.906 53.3274 99.4295 50.6634 91.0908 45.7429C82.7521 40.8225 75.8385 33.8153 71.0308 25.4112Z" fill="white"/>
<path d="M59.2937 54.6196C58.1223 54.6325 56.9744 54.9504 55.9631 55.5418C54.9518 56.1332 54.112 56.9777 53.5263 57.9924L33.5257 92.6308L8.43225 78.1278C12.7851 68.2727 19.9082 59.8951 28.935 54.014C37.9619 48.1329 48.5033 45.0019 59.2769 45.0019C70.0505 45.0019 80.5919 48.1329 89.6187 54.014C98.6455 59.8951 105.769 68.2727 110.121 78.1278L84.8594 92.5633L64.8588 57.9249C64.2975 56.9387 63.4893 56.1154 62.5136 55.5359C61.5379 54.9564 60.4283 54.6406 59.2937 54.6196Z" fill="white"/>
<path d="M47.5224 25.4112C42.682 33.7561 35.7578 40.7014 27.4276 45.5671C19.0973 50.4328 9.64646 53.0523 -1.52588e-05 53.1691V23.8597H33.4242C34.5747 23.8255 35.6973 23.4974 36.6852 22.9067C37.6731 22.3161 38.4934 21.4824 39.0681 20.4852C39.6428 19.4879 39.9527 18.3602 39.9685 17.2093C39.9842 16.0584 39.7052 14.9226 39.1579 13.91L25.6668 -9.69943L50.6254 -24C53.9537 -16.0825 55.4055 -7.50237 54.8672 1.0694C54.3289 9.64117 51.8151 17.9722 47.5224 25.4112Z" fill="white"/>
</g>
</svg>
