<svg width="155" height="170" viewBox="0 0 155 170" fill="none" xmlns="http://www.w3.org/2000/svg">
<path d="M13.0425 98.7498C21.5657 83.8598 26.5462 67.2073 27.5983 50.0828C28.6503 32.9582 25.7455 15.8213 19.109 0L-30.7714 28.8498L-3.80903 76.034C-2.62581 78.0834 -2.00289 80.4081 -2.00289 82.7746C-2.00289 85.141 -2.62581 87.4658 -3.80903 89.5152C-4.97372 91.5332 -6.64156 93.2149 -8.64986 94.3962C-10.6582 95.5776 -12.9384 96.2183 -15.2681 96.2558H-82V154.832C-62.6521 154.541 -43.7133 149.217 -27.0481 139.383C-10.383 129.55 3.43398 115.546 13.0425 98.7498Z" fill="#FF8A0A"/>
<path d="M36.4992 157.124C38.8404 157.15 41.1345 157.785 43.1556 158.967C45.1767 160.149 46.8551 161.837 48.0256 163.864L87.9974 233.09L138.147 204.106C129.448 184.41 115.212 167.667 97.172 155.913C79.1316 144.16 58.0643 137.903 36.5329 137.903C15.0015 137.903 -6.06581 144.16 -24.1062 155.913C-42.1465 167.667 -56.3823 184.41 -65.0817 204.106L-14.5946 232.956L25.3772 163.73C26.4991 161.759 28.1143 160.113 30.0642 158.955C32.0141 157.797 34.2317 157.166 36.4992 157.124Z" fill="#FF8A0A"/>
<path d="M60.0249 98.7498C69.6986 115.428 83.5368 129.308 100.185 139.032C116.833 148.756 135.721 153.991 155 154.225V95.6491H88.2007C85.9014 95.5807 83.6578 94.9251 81.6835 93.7446C79.7091 92.5641 78.0697 90.8981 76.9212 88.905C75.7726 86.912 75.1532 84.6582 75.1217 82.3581C75.0903 80.0579 75.648 77.7881 76.7416 75.7644L103.704 28.5801L53.8236 0C47.1718 15.8234 44.2703 32.971 45.3461 50.102C46.4219 67.233 51.4458 83.8829 60.0249 98.7498Z" fill="#FF8A0A"/>
</svg>
