<svg width="250" height="288" viewBox="0 0 250 288" fill="none" xmlns="http://www.w3.org/2000/svg">
<path d="M48.7438 140C60.8273 118.89 67.8884 95.2813 69.3799 71.0034C70.8713 46.7256 66.7532 22.4302 57.3445 0L-13.3721 40.901L24.8531 107.795C26.5305 110.701 27.4137 113.996 27.4137 117.351C27.4137 120.706 26.5305 124.002 24.8531 126.908C23.2019 129.769 20.8373 132.153 17.9901 133.828C15.1429 135.502 11.9102 136.411 8.60735 136.464H-86V219.508C-58.57 219.096 -31.7201 211.548 -8.09351 197.607C15.533 183.666 35.1216 163.812 48.7438 140Z" fill="#FF8A0A"/>
<path d="M81.999 222.758C85.3182 222.795 88.5705 223.695 91.4359 225.371C94.3012 227.047 96.6808 229.44 98.3403 232.314L155.009 330.458L226.108 289.366C213.775 261.443 193.592 237.706 168.016 221.042C142.44 204.379 112.572 195.508 82.0468 195.508C51.5213 195.508 21.6537 204.379 -3.92255 221.042C-29.4988 237.706 -49.6811 261.443 -62.0144 289.366L9.56227 330.267L66.2311 232.123C67.8216 229.329 70.1115 226.996 72.8759 225.355C75.6404 223.713 78.7843 222.818 81.999 222.758Z" fill="#FF8A0A"/>
<path d="M115.352 140C129.066 163.644 148.685 183.322 172.288 197.109C195.89 210.895 222.668 218.317 250 218.648V135.604H155.297C152.037 135.507 148.857 134.577 146.058 132.904C143.258 131.23 140.934 128.868 139.306 126.043C137.678 123.217 136.799 120.022 136.755 116.761C136.71 113.5 137.501 110.282 139.051 107.413L177.277 40.5187L106.56 0C97.1295 22.4332 93.0161 46.7438 94.5413 71.0307C96.0665 95.3176 103.189 118.923 115.352 140Z" fill="#FF8A0A"/>
</svg>
