<svg width="120" height="125" viewBox="0 0 120 125" fill="none" xmlns="http://www.w3.org/2000/svg">
<g opacity="0.2">
<path d="M68.1739 70.8332C74.2876 60.1526 77.8602 48.2078 78.6148 35.9244C79.3694 23.6409 77.2858 11.3486 72.5255 0L36.7462 20.6939L56.0864 54.5391C56.9351 56.0092 57.3819 57.6767 57.3819 59.3742C57.3819 61.0716 56.9351 62.7392 56.0864 64.2092C55.2509 65.6567 54.0546 66.863 52.614 67.7104C51.1735 68.5578 49.5379 69.0173 47.8668 69.0442H0V111.061C13.8783 110.852 27.4631 107.033 39.417 99.9797C51.3709 92.9261 61.2818 82.8809 68.1739 70.8332Z" fill="white"/>
<path d="M84.9994 112.705C86.6788 112.723 88.3243 113.179 89.7741 114.027C91.2238 114.875 92.4277 116.085 93.2673 117.54L121.939 167.196L157.912 146.405C151.672 132.277 141.46 120.268 128.52 111.837C115.58 103.406 100.468 98.9175 85.0236 98.9175C69.5792 98.9175 54.4676 103.406 41.5272 111.837C28.5869 120.268 18.3756 132.277 12.1355 146.405L48.3499 167.099L77.0216 117.443C77.8264 116.029 78.9849 114.849 80.3836 114.018C81.7823 113.188 83.373 112.735 84.9994 112.705Z" fill="white"/>
<path d="M101.874 70.8332C108.813 82.7961 118.739 92.7524 130.681 99.7277C142.623 106.703 156.171 110.458 170 110.626V68.6091H122.085C120.436 68.56 118.826 68.0897 117.41 67.243C115.994 66.3962 114.818 65.2012 113.994 63.7716C113.17 62.3419 112.726 60.7253 112.703 59.0754C112.681 57.4255 113.081 55.7973 113.865 54.3457L133.205 20.5005L97.4262 0C92.6548 11.3501 90.5736 23.6501 91.3453 35.9381C92.117 48.2262 95.7206 60.1692 101.874 70.8332Z" fill="white"/>
</g>
</svg>
