<svg width="85" height="63" viewBox="0 0 85 63" fill="none" xmlns="http://www.w3.org/2000/svg">
<g clip-path="url(#clip0_804_14134)">
<path d="M68.0272 29.4285H79.1342V0.605469H45.103V20.3442C45.103 40.382 58.7788 57.7416 77.9503 61.9122C79.6673 62.2859 80.6992 62.3944 80.6992 62.3944L84.1499 53.7998C68.905 46.0291 68.0272 29.4285 68.0272 29.4285Z" fill="#3D3D3D"/>
<path d="M23.7784 29.4285H34.8854V0.605469H0.850098V20.3442C0.850098 40.382 14.5269 57.7416 33.6984 61.9122C35.4154 62.2859 36.4463 62.3944 36.4463 62.3944L39.897 53.7998C24.6572 46.0291 23.7784 29.4285 23.7784 29.4285Z" fill="#3D3D3D"/>
</g>
<defs>
<clipPath id="clip0_804_14134">
<rect width="85" height="63" fill="white" transform="matrix(-1 0 0 1 85 0)"/>
</clipPath>
</defs>
</svg>
