<svg width="80" height="58" viewBox="0 0 80 58" fill="none" xmlns="http://www.w3.org/2000/svg">
<g clip-path="url(#clip0_803_11675)">
<path d="M64.0256 27.0929H74.4793V0.557434H42.45V18.7296C42.45 37.1771 55.3213 53.1589 73.365 56.9986C74.9811 57.3426 75.9522 57.4425 75.9522 57.4425L79.2 49.53C64.8518 42.376 64.0256 27.0929 64.0256 27.0929Z" fill="white"/>
<path d="M22.3797 27.0929H32.8333V0.557434H0.800049V18.7296C0.800049 37.1771 13.6723 53.1589 31.7161 56.9986C33.3321 57.3426 34.3023 57.4425 34.3023 57.4425L37.55 49.53C23.2068 42.376 22.3797 27.0929 22.3797 27.0929Z" fill="white"/>
</g>
<defs>
<clipPath id="clip0_803_11675">
<rect width="80" height="58" fill="white" transform="matrix(-1 0 0 1 80 -3.05176e-05)"/>
</clipPath>
</defs>
</svg>
