<svg width="38" height="28" viewBox="0 0 38 28" fill="none" xmlns="http://www.w3.org/2000/svg">
<g clip-path="url(#clip0_804_11767)">
<path d="M30.4123 13.0794H35.3778V0.269165H20.1639V9.04192C20.1639 17.9476 26.2777 25.663 34.8485 27.5166C35.6161 27.6827 36.0775 27.7309 36.0775 27.7309L37.6201 23.9111C30.8047 20.4574 30.4123 13.0794 30.4123 13.0794Z" fill="#FF8A0A"/>
<path d="M10.6302 13.0794H15.5957V0.269165H0.379932V9.04192C0.379932 17.9476 6.49427 25.663 15.0651 27.5166C15.8327 27.6827 16.2935 27.7309 16.2935 27.7309L17.8362 23.9111C11.0231 20.4574 10.6302 13.0794 10.6302 13.0794Z" fill="#FF8A0A"/>
</g>
<defs>
<clipPath id="clip0_804_11767">
<rect width="38" height="28" fill="white" transform="matrix(-1 0 0 1 38 0)"/>
</clipPath>
</defs>
</svg>
