<svg width="80" height="45" viewBox="0 0 80 45" fill="none" xmlns="http://www.w3.org/2000/svg">
<path d="M44.6218 35.4314C43.7063 35.6658 42.745 35.6562 41.8327 35.4034C40.9204 35.1506 40.0884 34.6634 39.4188 33.9897L16.5531 10.9924L0.0484726 27.6089C5.51183 34.4312 12.8232 39.5161 21.0933 42.2451C29.3633 44.974 38.2354 45.2292 46.6303 42.9798C55.0252 40.7304 62.5811 36.0733 68.3787 29.575C74.1762 23.0767 77.9657 15.0173 79.2859 6.37732L56.567 0.327394L48.2634 31.6765C48.0333 32.5674 47.5766 33.382 46.9381 34.0403C46.2997 34.6986 45.5015 35.178 44.6218 35.4314Z" fill="black"/>
</svg>
