<svg width="99" height="139" viewBox="0 0 99 139" fill="none" xmlns="http://www.w3.org/2000/svg">
<path d="M85.5766 49.9987C76.8602 34.9674 64.3914 22.4574 49.3906 13.6931C34.3898 4.92875 17.371 0.210473 -3.10702e-06 6.60393e-06L-7.72236e-06 52.7933L60.1891 52.7933C62.2609 52.8549 64.2824 53.4459 66.0613 54.5098C67.8403 55.5737 69.3175 57.0753 70.3524 58.8716C71.3873 60.6679 71.9454 62.6992 71.9737 64.7723C72.0021 66.8453 71.4996 68.8911 70.5142 70.715L46.2199 113.241L91.1643 139C97.1579 124.739 99.7722 109.284 98.8028 93.844C97.8335 78.4042 93.3068 63.398 85.5766 49.9987Z" fill="#FF8A0A"/>
</svg>
