<svg width="129" height="28" viewBox="0 0 129 28" fill="none" xmlns="http://www.w3.org/2000/svg">
<path d="M10.1608 11.0572C11.072 9.4653 11.6045 7.68501 11.717 5.85426C11.8294 4.0235 11.5189 2.19143 10.8094 0.5L5.47675 3.58428L8.35925 8.62865C8.48575 8.84775 8.55235 9.09629 8.55235 9.34928C8.55235 9.60227 8.48575 9.85081 8.35925 10.0699C8.23474 10.2856 8.05643 10.4654 7.84173 10.5917C7.62703 10.718 7.38325 10.7865 7.13419 10.7905H0V17.0528C2.06845 17.0217 4.09316 16.4525 5.87481 15.4012C7.65645 14.3499 9.13359 12.8528 10.1608 11.0572Z" fill="#FF8A0A"/>
<path d="M12.6687 17.2978C12.919 17.3006 13.1642 17.3685 13.3803 17.4948C13.5964 17.6212 13.7758 17.8016 13.9009 18.0184L18.1742 25.4192L23.5357 22.3205C22.6057 20.2149 21.0837 18.4249 19.1551 17.1684C17.2264 15.9118 14.9741 15.2429 12.6723 15.2429C10.3704 15.2429 8.11811 15.9118 6.18945 17.1684C4.26079 18.4249 2.73887 20.2149 1.80884 22.3205L7.20632 25.4048L11.4796 18.004C11.5996 17.7933 11.7722 17.6174 11.9807 17.4936C12.1892 17.3698 12.4262 17.3023 12.6687 17.2978Z" fill="#FF8A0A"/>
<path d="M15.1835 11.0572C16.2177 12.8401 17.6971 14.3241 19.4769 15.3637C21.2568 16.4033 23.276 16.9629 25.3371 16.9879V10.7257H18.1957C17.9499 10.7184 17.71 10.6483 17.499 10.5221C17.2879 10.3959 17.1126 10.2178 16.9898 10.0047C16.8671 9.7916 16.8008 9.55065 16.7975 9.30475C16.7941 9.05885 16.8537 8.81618 16.9706 8.59983L19.8532 3.55545L14.5205 0.5C13.8094 2.19165 13.4992 4.02487 13.6142 5.85631C13.7292 7.68775 14.2663 9.46777 15.1835 11.0572Z" fill="#FF8A0A"/>
<path d="M39.7859 22.158C38.4972 22.158 37.3064 21.9297 36.2135 21.4729C35.1369 20.9999 34.1908 20.3474 33.3751 19.5154C32.5758 18.6672 31.956 17.6721 31.5155 16.5303C31.0751 15.3721 30.8549 14.116 30.8549 12.7621C30.8549 11.3919 31.0751 10.1358 31.5155 8.99396C31.956 7.8521 32.5758 6.85704 33.3751 6.0088C34.1908 5.16056 35.1369 4.50806 36.2135 4.05131C37.3064 3.57825 38.4972 3.34173 39.7859 3.34173C41.042 3.34173 42.1675 3.56194 43.1626 4.00238C44.1739 4.44281 45.0222 5.01374 45.7073 5.71518C46.4087 6.41661 46.9063 7.16698 47.1999 7.96628L44.9977 8.96949C44.5736 7.95813 43.9129 7.14251 43.0158 6.52264C42.1186 5.88646 41.042 5.56836 39.7859 5.56836C38.5135 5.56836 37.3798 5.87014 36.3848 6.4737C35.406 7.07726 34.6394 7.91735 34.0847 8.99396C33.5301 10.0706 33.2528 11.3266 33.2528 12.7621C33.2528 14.1813 33.5301 15.4292 34.0847 16.5058C34.6394 17.5824 35.406 18.4225 36.3848 19.0261C37.3798 19.6296 38.5135 19.9314 39.7859 19.9314C41.042 19.9314 42.1186 19.6215 43.0158 19.0016C43.9129 18.3654 44.5736 17.5416 44.9977 16.5303L47.1999 17.5335C46.9063 18.3328 46.4087 19.0832 45.7073 19.7846C45.0222 20.486 44.1739 21.057 43.1626 21.4974C42.1675 21.9378 41.042 22.158 39.7859 22.158ZM55.2997 22.158C54.0274 22.158 52.8774 21.8644 51.8497 21.2772C50.822 20.6736 50.0064 19.8498 49.4028 18.8059C48.7993 17.7619 48.4975 16.5792 48.4975 15.2579C48.4975 13.9366 48.7911 12.7621 49.3784 11.7344C49.9819 10.6904 50.7975 9.87483 51.8252 9.28759C52.8529 8.68403 54.0111 8.38225 55.2997 8.38225C56.5721 8.38225 57.7221 8.68403 58.7498 9.28759C59.7775 9.87483 60.585 10.6904 61.1722 11.7344C61.7758 12.7621 62.0775 13.9366 62.0775 15.2579C62.0775 16.5955 61.7676 17.7863 61.1477 18.8303C60.5442 19.8743 59.7286 20.6899 58.7009 21.2772C57.6732 21.8644 56.5395 22.158 55.2997 22.158ZM55.2997 19.9559C56.1154 19.9559 56.8494 19.752 57.5019 19.3442C58.1707 18.9364 58.6927 18.3817 59.0679 17.6803C59.4594 16.9626 59.6551 16.1551 59.6551 15.2579C59.6551 14.3607 59.4594 13.5614 59.0679 12.86C58.6927 12.1586 58.1707 11.6039 57.5019 11.1961C56.8494 10.7883 56.1154 10.5844 55.2997 10.5844C54.4678 10.5844 53.7174 10.7883 53.0486 11.1961C52.3961 11.6039 51.8741 12.1586 51.4826 12.86C51.0912 13.5614 50.8954 14.3607 50.8954 15.2579C50.8954 16.1551 51.0912 16.9626 51.4826 17.6803C51.8741 18.3817 52.3961 18.9364 53.0486 19.3442C53.7174 19.752 54.4678 19.9559 55.2997 19.9559ZM64.1279 21.8644V8.67587H66.3546V10.2908C66.7461 9.68724 67.2681 9.22234 67.9206 8.89609C68.573 8.55353 69.3071 8.38225 70.1227 8.38225C71.0688 8.38225 71.9089 8.60247 72.643 9.0429C73.3934 9.46702 73.9806 10.0543 74.4047 10.8046C74.8452 11.5387 75.0654 12.3788 75.0654 13.3249V21.8644H72.7653V14.059C72.7653 12.966 72.4717 12.1178 71.8845 11.5142C71.2972 10.8944 70.5387 10.5844 69.6089 10.5844C68.6791 10.5844 67.9124 10.8944 67.3088 11.5142C66.7053 12.1341 66.4035 12.9823 66.4035 14.059V21.8644H64.1279ZM82.1265 22.158C80.8052 22.158 79.6551 21.8318 78.6764 21.1793C77.6977 20.5268 77.0044 19.6459 76.5966 18.5367L78.4072 17.6558C78.7824 18.4551 79.2963 19.0832 79.9488 19.5399C80.6013 19.9803 81.3272 20.2006 82.1265 20.2006C82.8442 20.2006 83.4396 20.0293 83.9127 19.6867C84.3857 19.3442 84.6223 18.8956 84.6223 18.341C84.6223 17.9495 84.5081 17.6395 84.2797 17.4111C84.0676 17.1665 83.8066 16.9789 83.4967 16.8484C83.2031 16.7016 82.9176 16.5955 82.6403 16.5303L80.6583 15.9675C79.4675 15.6413 78.5948 15.16 78.0402 14.5239C77.5019 13.8714 77.2327 13.121 77.2327 12.2727C77.2327 11.4898 77.4285 10.8128 77.82 10.2419C78.2278 9.65461 78.7743 9.19787 79.4594 8.87162C80.1608 8.54537 80.9438 8.38225 81.8084 8.38225C82.9665 8.38225 84.0024 8.67587 84.9159 9.26312C85.8457 9.85036 86.5063 10.6741 86.8978 11.7344L85.0382 12.5908C84.7446 11.9057 84.296 11.3674 83.6924 10.9759C83.1052 10.5681 82.4527 10.3642 81.735 10.3642C81.0825 10.3642 80.5523 10.5273 80.1445 10.8536C79.753 11.1798 79.5573 11.6039 79.5573 12.1259C79.5573 12.5011 79.6551 12.8111 79.8509 13.0557C80.0466 13.2841 80.2832 13.4636 80.5605 13.5941C80.8378 13.7082 81.1069 13.8061 81.3679 13.8877L83.5212 14.5239C84.5815 14.8338 85.4134 15.315 86.017 15.9675C86.6205 16.62 86.9223 17.403 86.9223 18.3165C86.9223 19.0669 86.7184 19.7357 86.3106 20.3229C85.9028 20.8938 85.34 21.3424 84.6223 21.6687C83.9045 21.9949 83.0726 22.158 82.1265 22.158ZM93.6571 22.158C92.6946 22.158 91.8382 21.9378 91.0879 21.4974C90.3538 21.057 89.7747 20.4452 89.3506 19.6623C88.9265 18.8629 88.7144 17.9495 88.7144 16.9218V8.67587H90.99V16.6771C90.99 17.6721 91.2836 18.4715 91.8709 19.075C92.4581 19.6623 93.2248 19.9559 94.1709 19.9559C95.1007 19.9559 95.8592 19.6459 96.4465 19.0261C97.0501 18.4062 97.3518 17.558 97.3518 16.4813V8.67587H99.6519V21.8644H97.4252V20.2495C97.0337 20.8531 96.5117 21.3261 95.8592 21.6687C95.2068 21.9949 94.4727 22.158 93.6571 22.158ZM102.26 21.8644V3.34173H104.535V21.8644H102.26ZM112.507 22.0112C111.219 22.0112 110.224 21.6442 109.522 20.9102C108.837 20.1761 108.494 19.1403 108.494 17.8026V10.8536H106.096V8.67587H106.586C107.173 8.67587 107.638 8.50459 107.981 8.16203C108.323 7.80316 108.494 7.32194 108.494 6.71839V5.64177H110.77V8.67587H113.731V10.8536H110.77V17.7292C110.77 18.398 110.933 18.9364 111.259 19.3442C111.602 19.7357 112.173 19.9314 112.972 19.9314C113.103 19.9314 113.249 19.9233 113.413 19.9069C113.576 19.8906 113.731 19.8743 113.877 19.858V21.8889C113.665 21.9378 113.429 21.9705 113.168 21.9868C112.907 22.0031 112.687 22.0112 112.507 22.0112ZM116.642 27.2475C116.348 27.2475 116.055 27.223 115.761 27.1741C115.468 27.1415 115.19 27.0681 114.929 26.9539V24.923C115.109 24.9556 115.329 24.9882 115.59 25.0209C115.867 25.0698 116.136 25.0943 116.397 25.0943C117.164 25.0943 117.743 24.923 118.135 24.5804C118.542 24.2379 118.926 23.6588 119.285 22.8432L119.676 21.8889L114.44 8.67587H116.911L120.924 18.9771L124.912 8.67587H127.433L121.487 23.4304C121.21 24.1318 120.851 24.768 120.41 25.339C119.986 25.9262 119.464 26.3911 118.844 26.7337C118.241 27.0762 117.507 27.2475 116.642 27.2475Z" fill="black"/>
</svg>
