<svg width="241" height="51" viewBox="0 0 241 51" fill="none" xmlns="http://www.w3.org/2000/svg">
<path d="M19.0515 19.7947C20.76 16.8099 21.7584 13.4719 21.9693 10.0392C22.1802 6.60656 21.5979 3.17143 20.2676 0L10.2689 5.78302L15.6736 15.2412C15.9108 15.652 16.0356 16.118 16.0356 16.5924C16.0356 17.0668 15.9108 17.5328 15.6736 17.9436C15.4401 18.3481 15.1058 18.6852 14.7032 18.922C14.3007 19.1588 13.8436 19.2872 13.3766 19.2947H0V31.0364C3.87835 30.9782 7.67468 29.911 11.0153 27.9398C14.3558 25.9686 17.1255 23.1615 19.0515 19.7947Z" fill="#FF8A0A"/>
<path d="M23.7536 31.4959C24.2229 31.5011 24.6828 31.6284 25.0879 31.8653C25.4931 32.1023 25.8295 32.4406 26.0642 32.8471L34.0766 46.7236L44.1293 40.9136C42.3855 36.9655 39.5319 33.6093 35.9157 31.2533C32.2994 28.8973 28.0764 27.6429 23.7604 27.6429C19.4444 27.6429 15.2214 28.8973 11.6051 31.2533C7.98889 33.6093 5.13529 36.9655 3.39148 40.9136L13.5118 46.6966L21.5242 32.82C21.7491 32.425 22.0729 32.0951 22.4637 31.863C22.8546 31.6308 23.2991 31.5043 23.7536 31.4959Z" fill="#FF8A0A"/>
<path d="M28.4692 19.7947C30.4083 23.1378 33.1822 25.9201 36.5194 27.8694C39.8566 29.8186 43.6427 30.868 47.5072 30.9148V19.1731H34.1171C33.6562 19.1594 33.2065 19.028 32.8107 18.7914C32.4149 18.5547 32.0863 18.2208 31.8561 17.8213C31.6258 17.4218 31.5017 16.97 31.4954 16.5089C31.4891 16.0478 31.6009 15.5928 31.8201 15.1872L37.2248 5.72897L27.2261 0C25.8927 3.17185 25.3111 6.60914 25.5268 10.0431C25.7424 13.477 26.7495 16.8146 28.4692 19.7947Z" fill="#FF8A0A"/>
</svg>
