<svg width="129" height="28" viewBox="0 0 129 28" fill="none" xmlns="http://www.w3.org/2000/svg">
<path d="M10.1608 11.0572C11.072 9.4653 11.6045 7.68501 11.717 5.85426C11.8294 4.0235 11.5189 2.19143 10.8094 0.5L5.47675 3.58428L8.35925 8.62865C8.48575 8.84775 8.55235 9.09629 8.55235 9.34928C8.55235 9.60227 8.48575 9.85081 8.35925 10.0699C8.23474 10.2856 8.05643 10.4654 7.84173 10.5917C7.62703 10.718 7.38325 10.7865 7.13419 10.7905H0V17.0528C2.06845 17.0217 4.09316 16.4525 5.87481 15.4012C7.65645 14.3499 9.13359 12.8528 10.1608 11.0572Z" fill="#FF8A0A"/>
<path d="M12.6684 17.2978C12.9187 17.3005 13.164 17.3684 13.38 17.4948C13.5961 17.6212 13.7755 17.8016 13.9007 18.0184L18.174 25.4192L23.5354 22.3205C22.6054 20.2149 21.0835 18.4249 19.1548 17.1684C17.2262 15.9118 14.9739 15.2429 12.672 15.2429C10.3701 15.2429 8.11787 15.9118 6.18921 17.1684C4.26055 18.4249 2.73863 20.2149 1.80859 22.3205L7.20608 25.4048L11.4794 18.004C11.5993 17.7933 11.772 17.6174 11.9805 17.4936C12.1889 17.3697 12.426 17.3023 12.6684 17.2978Z" fill="#FF8A0A"/>
<path d="M15.1835 11.0572C16.2177 12.8401 17.6971 14.3241 19.4769 15.3637C21.2568 16.4033 23.276 16.9629 25.3371 16.9879V10.7257H18.1957C17.9499 10.7184 17.71 10.6483 17.499 10.5221C17.2879 10.3959 17.1126 10.2178 16.9898 10.0047C16.8671 9.7916 16.8008 9.55065 16.7975 9.30475C16.7941 9.05885 16.8537 8.81618 16.9706 8.59983L19.8532 3.55545L14.5205 0.5C13.8094 2.19165 13.4992 4.02487 13.6142 5.85631C13.7292 7.68775 14.2663 9.46777 15.1835 11.0572Z" fill="#FF8A0A"/>
<path d="M39.7859 22.1581C38.4972 22.1581 37.3064 21.9297 36.2135 21.4729C35.1369 20.9999 34.1908 20.3474 33.3751 19.5155C32.5758 18.6672 31.956 17.6722 31.5155 16.5303C31.0751 15.3721 30.8549 14.1161 30.8549 12.7621C30.8549 11.3919 31.0751 10.1358 31.5155 8.99398C31.956 7.85211 32.5758 6.85706 33.3751 6.00881C34.1908 5.16057 35.1369 4.50808 36.2135 4.05133C37.3064 3.57827 38.4972 3.34174 39.7859 3.34174C41.042 3.34174 42.1675 3.56196 43.1626 4.00239C44.1739 4.44283 45.0222 5.01376 45.7073 5.71519C46.4087 6.41662 46.9063 7.16699 47.1999 7.9663L44.9977 8.96951C44.5736 7.95814 43.9129 7.14252 43.0158 6.52265C42.1186 5.88647 41.042 5.56838 39.7859 5.56838C38.5135 5.56838 37.3798 5.87016 36.3848 6.47372C35.406 7.07727 34.6394 7.91736 34.0847 8.99398C33.5301 10.0706 33.2528 11.3266 33.2528 12.7621C33.2528 14.1813 33.5301 15.4292 34.0847 16.5058C34.6394 17.5824 35.406 18.4225 36.3848 19.0261C37.3798 19.6296 38.5135 19.9314 39.7859 19.9314C41.042 19.9314 42.1186 19.6215 43.0158 19.0016C43.9129 18.3654 44.5736 17.5417 44.9977 16.5303L47.1999 17.5335C46.9063 18.3328 46.4087 19.0832 45.7073 19.7846C45.0222 20.486 44.1739 21.057 43.1626 21.4974C42.1675 21.9378 41.042 22.1581 39.7859 22.1581ZM55.2997 22.1581C54.0274 22.1581 52.8774 21.8644 51.8497 21.2772C50.822 20.6736 50.0064 19.8499 49.4028 18.8059C48.7993 17.7619 48.4975 16.5792 48.4975 15.2579C48.4975 13.9366 48.7911 12.7621 49.3784 11.7345C49.9819 10.6905 50.7975 9.87485 51.8252 9.2876C52.8529 8.68404 54.0111 8.38226 55.2997 8.38226C56.5721 8.38226 57.7221 8.68404 58.7498 9.2876C59.7775 9.87485 60.585 10.6905 61.1722 11.7345C61.7758 12.7621 62.0775 13.9366 62.0775 15.2579C62.0775 16.5955 61.7676 17.7863 61.1477 18.8303C60.5442 19.8743 59.7286 20.69 58.7009 21.2772C57.6732 21.8644 56.5395 22.1581 55.2997 22.1581ZM55.2997 19.9559C56.1154 19.9559 56.8494 19.752 57.5019 19.3442C58.1707 18.9364 58.6927 18.3817 59.0679 17.6803C59.4594 16.9626 59.6551 16.1551 59.6551 15.2579C59.6551 14.3607 59.4594 13.5614 59.0679 12.86C58.6927 12.1586 58.1707 11.604 57.5019 11.1961C56.8494 10.7883 56.1154 10.5844 55.2997 10.5844C54.4678 10.5844 53.7174 10.7883 53.0486 11.1961C52.3961 11.604 51.8741 12.1586 51.4826 12.86C51.0912 13.5614 50.8954 14.3607 50.8954 15.2579C50.8954 16.1551 51.0912 16.9626 51.4826 17.6803C51.8741 18.3817 52.3961 18.9364 53.0486 19.3442C53.7174 19.752 54.4678 19.9559 55.2997 19.9559ZM64.1279 21.8644V8.67589H66.3546V10.2908C66.7461 9.68725 67.2681 9.22235 67.9206 8.8961C68.573 8.55354 69.3071 8.38226 70.1227 8.38226C71.0688 8.38226 71.9089 8.60248 72.643 9.04291C73.3934 9.46704 73.9806 10.0543 74.4047 10.8047C74.8452 11.5387 75.0654 12.3788 75.0654 13.3249V21.8644H72.7653V14.059C72.7653 12.966 72.4717 12.1178 71.8845 11.5142C71.2972 10.8944 70.5387 10.5844 69.6089 10.5844C68.6791 10.5844 67.9124 10.8944 67.3088 11.5142C66.7053 12.1341 66.4035 12.9824 66.4035 14.059V21.8644H64.1279ZM82.1265 22.1581C80.8052 22.1581 79.6551 21.8318 78.6764 21.1793C77.6977 20.5268 77.0044 19.646 76.5966 18.5367L78.4072 17.6558C78.7824 18.4552 79.2963 19.0832 79.9488 19.5399C80.6013 19.9804 81.3272 20.2006 82.1265 20.2006C82.8442 20.2006 83.4396 20.0293 83.9127 19.6867C84.3857 19.3442 84.6223 18.8956 84.6223 18.341C84.6223 17.9495 84.5081 17.6395 84.2797 17.4112C84.0676 17.1665 83.8066 16.9789 83.4967 16.8484C83.2031 16.7016 82.9176 16.5955 82.6403 16.5303L80.6583 15.9675C79.4675 15.6413 78.5948 15.1601 78.0402 14.5239C77.5019 13.8714 77.2327 13.121 77.2327 12.2728C77.2327 11.4898 77.4285 10.8128 77.82 10.2419C78.2278 9.65463 78.7743 9.19788 79.4594 8.87164C80.1608 8.54539 80.9438 8.38226 81.8084 8.38226C82.9665 8.38226 84.0024 8.67589 84.9159 9.26313C85.8457 9.85038 86.5063 10.6742 86.8978 11.7345L85.0382 12.5909C84.7446 11.9057 84.296 11.3674 83.6924 10.9759C83.1052 10.5681 82.4527 10.3642 81.735 10.3642C81.0825 10.3642 80.5523 10.5273 80.1445 10.8536C79.753 11.1798 79.5573 11.604 79.5573 12.126C79.5573 12.5011 79.6551 12.8111 79.8509 13.0558C80.0466 13.2841 80.2832 13.4636 80.5605 13.5941C80.8378 13.7083 81.1069 13.8061 81.3679 13.8877L83.5212 14.5239C84.5815 14.8338 85.4134 15.315 86.017 15.9675C86.6205 16.62 86.9223 17.403 86.9223 18.3165C86.9223 19.0669 86.7184 19.7357 86.3106 20.3229C85.9028 20.8939 85.34 21.3424 84.6223 21.6687C83.9045 21.9949 83.0726 22.1581 82.1265 22.1581ZM93.6571 22.1581C92.6946 22.1581 91.8382 21.9378 91.0879 21.4974C90.3538 21.057 89.7747 20.4453 89.3506 19.6623C88.9265 18.863 88.7144 17.9495 88.7144 16.9218V8.67589H90.99V16.6771C90.99 17.6722 91.2836 18.4715 91.8709 19.075C92.4581 19.6623 93.2248 19.9559 94.1709 19.9559C95.1007 19.9559 95.8592 19.646 96.4465 19.0261C97.0501 18.4062 97.3518 17.558 97.3518 16.4814V8.67589H99.6519V21.8644H97.4252V20.2495C97.0337 20.8531 96.5117 21.3261 95.8592 21.6687C95.2068 21.9949 94.4727 22.1581 93.6571 22.1581ZM102.26 21.8644V3.34174H104.535V21.8644H102.26ZM112.507 22.0113C111.219 22.0113 110.224 21.6442 109.522 20.9102C108.837 20.1761 108.494 19.1403 108.494 17.8027V10.8536H106.096V8.67589H106.586C107.173 8.67589 107.638 8.50461 107.981 8.16205C108.323 7.80318 108.494 7.32196 108.494 6.7184V5.64178H110.77V8.67589H113.731V10.8536H110.77V17.7293C110.77 18.3981 110.933 18.9364 111.259 19.3442C111.602 19.7357 112.173 19.9314 112.972 19.9314C113.103 19.9314 113.249 19.9233 113.413 19.907C113.576 19.8906 113.731 19.8743 113.877 19.858V21.8889C113.665 21.9378 113.429 21.9705 113.168 21.9868C112.907 22.0031 112.687 22.0113 112.507 22.0113ZM116.642 27.2475C116.348 27.2475 116.055 27.2231 115.761 27.1741C115.468 27.1415 115.19 27.0681 114.929 26.9539V24.923C115.109 24.9556 115.329 24.9883 115.59 25.0209C115.867 25.0698 116.136 25.0943 116.397 25.0943C117.164 25.0943 117.743 24.923 118.135 24.5805C118.542 24.2379 118.926 23.6588 119.285 22.8432L119.676 21.8889L114.44 8.67589H116.911L120.924 18.9772L124.912 8.67589H127.433L121.487 23.4304C121.21 24.1319 120.851 24.768 120.41 25.339C119.986 25.9262 119.464 26.3911 118.844 26.7337C118.241 27.0762 117.507 27.2475 116.642 27.2475Z" fill="white"/>
</svg>
