<svg width="190" height="46" viewBox="0 0 190 46" fill="none" xmlns="http://www.w3.org/2000/svg">
<path d="M55.9085 31.8288H69.4294V27.7612H60.7141V12.4399H55.9085V31.8288Z" fill="#3C2B1F"/>
<path d="M77.4407 29.1173C75.513 29.1173 74.5085 27.436 74.5085 24.9141C74.5085 22.3922 75.513 20.6838 77.4407 20.6838C79.3684 20.6838 80.4001 22.3922 80.4001 24.9141C80.4001 27.436 79.3684 29.1173 77.4407 29.1173ZM77.4679 32.2629C81.9477 32.2629 84.8799 29.0902 84.8799 24.9141C84.8799 20.7381 81.9477 17.5653 77.4679 17.5653C73.0152 17.5653 70.0287 20.7381 70.0287 24.9141C70.0287 29.0902 73.0152 32.2629 77.4679 32.2629Z" fill="#3C2B1F"/>
<path d="M92.6339 36.6287C94.6973 36.6287 96.5164 36.1677 97.7382 35.083C98.8513 34.0797 99.5844 32.5611 99.5844 30.4731V17.9449H95.3489V19.4363H95.2946C94.4801 18.2703 93.2312 17.5381 91.385 17.5381C87.9368 17.5381 85.5476 20.4126 85.5476 24.4802C85.5476 28.7376 88.4527 31.0697 91.575 31.0697C93.2583 31.0697 94.3172 30.3917 95.1317 29.4698H95.2403V30.8527C95.2403 32.534 94.453 33.5102 92.5796 33.5102C91.1134 33.5102 90.3804 32.8865 90.136 32.1544H85.8463C86.2807 35.0559 88.8057 36.6287 92.6339 36.6287ZM92.6067 27.7885C90.9505 27.7885 89.8645 26.4326 89.8645 24.3446C89.8645 22.2294 90.9505 20.8736 92.6067 20.8736C94.453 20.8736 95.4304 22.4464 95.4304 24.3175C95.4304 26.2699 94.5344 27.7885 92.6067 27.7885Z" fill="#3C2B1F"/>
<path d="M108.292 29.1173C106.364 29.1173 105.36 27.436 105.36 24.9141C105.36 22.3922 106.364 20.6838 108.292 20.6838C110.22 20.6838 111.251 22.3922 111.251 24.9141C111.251 27.436 110.22 29.1173 108.292 29.1173ZM108.319 32.2629C112.799 32.2629 115.731 29.0902 115.731 24.9141C115.731 20.7381 112.799 17.5653 108.319 17.5653C103.866 17.5653 100.88 20.7381 100.88 24.9141C100.88 29.0902 103.866 32.2629 108.319 32.2629Z" fill="#3C2B1F"/>
<path d="M117.025 31.8288H121.45V17.9447H117.025V31.8288ZM117.025 16.0194H121.45V12.4399H117.025V16.0194Z" fill="#3C2B1F"/>
<path d="M123.371 36.4118H127.796V30.3917H127.85C128.719 31.5578 129.995 32.2628 131.787 32.2628C135.425 32.2628 137.842 29.3884 137.842 24.8869C137.842 20.7109 135.588 17.5381 131.896 17.5381C129.995 17.5381 128.638 18.3788 127.687 19.6262H127.606V17.9449H123.371V36.4118ZM130.647 28.8461C128.746 28.8461 127.66 27.3004 127.66 25.0496C127.66 22.7989 128.638 21.0905 130.565 21.0905C132.466 21.0905 133.362 22.6633 133.362 25.0496C133.362 27.4088 132.33 28.8461 130.647 28.8461Z" fill="#3C2B1F"/>
<path d="M145.046 32.2628C148.685 32.2628 151.372 30.69 151.372 27.6529C151.372 24.1005 148.494 23.4768 146.051 23.0701C144.286 22.7447 142.711 22.6091 142.711 21.6328C142.711 20.7651 143.553 20.3583 144.639 20.3583C145.861 20.3583 146.703 20.738 146.865 21.9854H150.938C150.721 19.2465 148.603 17.5381 144.666 17.5381C141.381 17.5381 138.666 19.0567 138.666 21.9854C138.666 25.2395 141.245 25.8903 143.662 26.297C145.508 26.6224 147.191 26.758 147.191 28.0054C147.191 28.9003 146.35 29.3884 145.019 29.3884C143.553 29.3884 142.63 28.7105 142.467 27.3275H138.286C138.422 30.3917 140.974 32.2628 145.046 32.2628Z" fill="#3C2B1F"/>
<path d="M157.384 32.2356C159.311 32.2356 160.533 31.4764 161.538 30.1205H161.619V31.8289H165.854V17.9448H161.429V25.7004C161.429 27.3545 160.506 28.4935 158.985 28.4935C157.574 28.4935 156.895 27.6528 156.895 26.1342V17.9448H152.496V27.0562C152.496 30.1476 154.18 32.2356 157.384 32.2356Z" fill="#3C2B1F"/>
<path d="M167.78 31.829H172.206V24.0463C172.206 22.3921 173.02 21.2261 174.405 21.2261C175.735 21.2261 176.36 22.0938 176.36 23.5853V31.829H180.785V24.0463C180.785 22.3921 181.573 21.2261 182.984 21.2261C184.315 21.2261 184.939 22.0938 184.939 23.5853V31.829H189.365V22.7989C189.365 19.6804 187.79 17.5381 184.641 17.5381C182.849 17.5381 181.355 18.2974 180.269 19.9787H180.215C179.509 18.4872 178.125 17.5381 176.305 17.5381C174.296 17.5381 172.966 18.4872 172.097 19.9245H172.016V17.9449H167.78V31.829Z" fill="#3C2B1F"/>
<path d="M28.9077 1.34963L24.4584 0.158882L20.7089 14.1351L17.3238 1.51728L12.8744 2.70802L16.5318 16.3407L7.42212 7.24213L4.16499 10.4953L14.1572 20.4754L1.7135 17.1451L0.521301 21.589L14.1176 25.2277C13.9619 24.5571 13.8796 23.8584 13.8796 23.1404C13.8796 18.0586 18.0042 13.9391 23.0922 13.9391C28.1801 13.9391 32.3047 18.0586 32.3047 23.1404C32.3047 23.8537 32.2234 24.5482 32.0697 25.2148L44.4262 28.5216L45.6183 24.0778L31.968 20.4246L44.4125 17.0942L43.2202 12.6503L29.5705 16.3033L38.6801 7.20477L35.423 3.95161L25.5694 13.7932L28.9077 1.34963Z" fill="#F97316"/>
<path d="M32.0577 25.2666C31.6762 26.8774 30.8709 28.3245 29.7658 29.4838L38.7176 38.4248L41.9747 35.1716L32.0577 25.2666Z" fill="#F97316"/>
<path d="M29.6753 29.5772C28.5569 30.7181 27.1437 31.5695 25.5587 32.0082L28.8161 44.15L33.2654 42.9592L29.6753 29.5772Z" fill="#F97316"/>
<path d="M25.3928 32.0526C24.6575 32.2414 23.8867 32.3417 23.0925 32.3417C22.2415 32.3417 21.4175 32.2265 20.6353 32.0108L17.3749 44.1637L21.8242 45.3543L25.3928 32.0526Z" fill="#F97316"/>
<path d="M20.4771 31.966C18.9164 31.5055 17.5282 30.6432 16.4327 29.4991L7.45895 38.4619L10.7161 41.7151L20.4771 31.966Z" fill="#F97316"/>
<path d="M16.3589 29.4198C15.2821 28.2685 14.4978 26.8408 14.1245 25.2548L1.72766 28.5725L2.91985 33.0164L16.3589 29.4198Z" fill="#F97316"/>
</svg>
