<svg width="201" height="48" viewBox="0 0 201 48" fill="none" xmlns="http://www.w3.org/2000/svg">
<path d="M60.7879 34.4471H74.9849V30.1709H65.8338V14.0639H60.7879V34.4471Z" fill="#E3E3E3"/>
<path d="M83.3974 31.5962C81.3734 31.5962 80.3186 29.8287 80.3186 27.1775C80.3186 24.5262 81.3734 22.7302 83.3974 22.7302C85.4215 22.7302 86.5048 24.5262 86.5048 27.1775C86.5048 29.8287 85.4215 31.5962 83.3974 31.5962ZM83.426 34.9031C88.1298 34.9031 91.2086 31.5677 91.2086 27.1775C91.2086 22.7872 88.1298 19.4518 83.426 19.4518C78.7507 19.4518 75.6148 22.7872 75.6148 27.1775C75.6148 31.5677 78.7507 34.9031 83.426 34.9031Z" fill="#E3E3E3"/>
<path d="M99.35 39.4928C101.517 39.4928 103.427 39.0082 104.71 37.8679C105.878 36.8131 106.648 35.2167 106.648 33.0215V19.8509H102.201V21.4188H102.144C101.289 20.193 99.9772 19.4232 98.0387 19.4232C94.4182 19.4232 91.9095 22.4451 91.9095 26.7213C91.9095 31.197 94.9598 33.6487 98.2382 33.6487C100.006 33.6487 101.118 32.936 101.973 31.9667H102.087V33.4207C102.087 35.1881 101.26 36.2144 99.293 36.2144C97.7536 36.2144 96.9839 35.5588 96.7273 34.789H92.223C92.6792 37.8394 95.3304 39.4928 99.35 39.4928ZM99.3215 30.1993C97.5825 30.1993 96.4422 28.7739 96.4422 26.5787C96.4422 24.3551 97.5825 22.9297 99.3215 22.9297C101.26 22.9297 102.286 24.5832 102.286 26.5502C102.286 28.6028 101.346 30.1993 99.3215 30.1993Z" fill="#E3E3E3"/>
<path d="M115.791 31.5962C113.767 31.5962 112.713 29.8287 112.713 27.1775C112.713 24.5262 113.767 22.7302 115.791 22.7302C117.815 22.7302 118.898 24.5262 118.898 27.1775C118.898 29.8287 117.815 31.5962 115.791 31.5962ZM115.82 34.9031C120.523 34.9031 123.602 31.5677 123.602 27.1775C123.602 22.7872 120.523 19.4518 115.82 19.4518C111.145 19.4518 108.009 22.7872 108.009 27.1775C108.009 31.5677 111.145 34.9031 115.82 34.9031Z" fill="#E3E3E3"/>
<path d="M124.961 34.4471H129.607V19.851H124.961V34.4471ZM124.961 17.827H129.607V14.0639H124.961V17.827Z" fill="#E3E3E3"/>
<path d="M131.623 39.2648H136.27V32.936H136.327C137.239 34.1619 138.579 34.9031 140.461 34.9031C144.281 34.9031 146.818 31.8812 146.818 27.1489C146.818 22.7587 144.452 19.4232 140.575 19.4232C138.579 19.4232 137.154 20.307 136.156 21.6184H136.07V19.8509H131.623V39.2648ZM139.263 31.3111C137.268 31.3111 136.127 29.6861 136.127 27.32C136.127 24.9538 137.154 23.1578 139.178 23.1578C141.173 23.1578 142.114 24.8113 142.114 27.32C142.114 29.8001 141.031 31.3111 139.263 31.3111Z" fill="#E3E3E3"/>
<path d="M154.382 34.9031C158.203 34.9031 161.025 33.2496 161.025 30.0567C161.025 26.3222 158.003 25.6665 155.437 25.2389C153.584 24.8968 151.931 24.7542 151.931 23.7279C151.931 22.8157 152.814 22.3881 153.955 22.3881C155.238 22.3881 156.121 22.7872 156.292 24.0986H160.569C160.341 21.2193 158.117 19.4232 153.983 19.4232C150.534 19.4232 147.683 21.0197 147.683 24.0986C147.683 27.5195 150.391 28.2037 152.929 28.6313C154.867 28.9734 156.635 29.116 156.635 30.4273C156.635 31.3681 155.751 31.8812 154.354 31.8812C152.814 31.8812 151.845 31.1685 151.674 29.7146H147.284C147.426 32.936 150.106 34.9031 154.382 34.9031Z" fill="#E3E3E3"/>
<path d="M167.337 34.8747C169.362 34.8747 170.644 34.0764 171.699 32.6511H171.785V34.4471H176.232V19.851H171.585V28.0043C171.585 29.7432 170.616 30.9406 169.019 30.9406C167.537 30.9406 166.824 30.0568 166.824 28.4604V19.851H162.206V29.4297C162.206 32.6796 163.974 34.8747 167.337 34.8747Z" fill="#E3E3E3"/>
<path d="M178.254 34.4469H182.901V26.2652C182.901 24.5262 183.756 23.3003 185.21 23.3003C186.607 23.3003 187.262 24.2126 187.262 25.7805V34.4469H191.909V26.2652C191.909 24.5262 192.736 23.3003 194.218 23.3003C195.615 23.3003 196.271 24.2126 196.271 25.7805V34.4469H200.918V24.9538C200.918 21.6754 199.264 19.4232 195.957 19.4232C194.076 19.4232 192.508 20.2215 191.367 21.989H191.31C190.569 20.421 189.115 19.4232 187.205 19.4232C185.096 19.4232 183.699 20.421 182.787 21.9319H182.701V19.8509H178.254V34.4469Z" fill="#E3E3E3"/>
<path fill-rule="evenodd" clip-rule="evenodd" d="M23.7566 47.5132C36.8771 47.5132 47.5132 36.877 47.5132 23.7566C47.5132 10.6362 36.8771 0 23.7566 0C10.6362 0 0 10.6362 0 23.7566C0 36.877 10.6362 47.5132 23.7566 47.5132ZM27.4234 18.355C29.4484 16.3299 29.4484 13.0466 27.4234 11.0215C25.3983 8.99637 22.115 8.99637 20.0899 11.0215C18.0648 13.0466 18.0648 16.3299 20.0899 18.355L23.7566 22.0217L27.4234 18.355ZM29.1582 27.4234C31.1834 29.4485 34.4667 29.4485 36.4918 27.4234C38.5168 25.3983 38.5168 22.115 36.4918 20.0899C34.4667 18.0648 31.1834 18.0648 29.1582 20.0899L25.4915 23.7567L29.1582 27.4234ZM27.4234 36.4918C29.4484 34.4667 29.4484 31.1834 27.4234 29.1582L23.7566 25.4915L20.0899 29.1582C18.0648 31.1834 18.0648 34.4667 20.0899 36.4918C22.115 38.5169 25.3983 38.5169 27.4234 36.4918ZM11.0214 27.4234C8.99638 25.3983 8.99638 22.115 11.0214 20.0899C13.0466 18.0648 16.3299 18.0648 18.355 20.0899L22.0218 23.7567L18.355 27.4234C16.3299 29.4485 13.0466 29.4485 11.0214 27.4234Z" fill="#E3E3E3"/>
</svg>
