<svg width="189" height="46" viewBox="0 0 189 46" fill="none" xmlns="http://www.w3.org/2000/svg">
<path d="M55.3872 32.1823H68.9081V28.1147H60.1928V12.7934H55.3872V32.1823Z" fill="#E3E3E3"/>
<path d="M76.9194 29.4708C74.9917 29.4708 73.9872 27.7896 73.9872 25.2676C73.9872 22.7457 74.9917 21.0373 76.9194 21.0373C78.8471 21.0373 79.8788 22.7457 79.8788 25.2676C79.8788 27.7896 78.8471 29.4708 76.9194 29.4708ZM76.9466 32.6164C81.4264 32.6164 84.3586 29.4437 84.3586 25.2676C84.3586 21.0916 81.4264 17.9189 76.9466 17.9189C72.4939 17.9189 69.5074 21.0916 69.5074 25.2676C69.5074 29.4437 72.4939 32.6164 76.9466 32.6164Z" fill="#E3E3E3"/>
<path d="M92.1126 36.9822C94.176 36.9822 95.9951 36.5212 97.2169 35.4365C98.33 34.4332 99.0631 32.9146 99.0631 30.8266V18.2984H94.8276V19.7898H94.7733C93.9588 18.6238 92.7099 17.8916 90.8637 17.8916C87.4156 17.8916 85.0263 20.7661 85.0263 24.8337C85.0263 29.0911 87.9314 31.4232 91.0537 31.4232C92.737 31.4232 93.7959 30.7452 94.6104 29.8233H94.719V31.2062C94.719 32.8875 93.9317 33.8637 92.0583 33.8637C90.5922 33.8637 89.8591 33.24 89.6147 32.5079H85.325C85.7594 35.4094 88.2844 36.9822 92.1126 36.9822ZM92.0854 28.142C90.4293 28.142 89.3432 26.7861 89.3432 24.6981C89.3432 22.5829 90.4293 21.2271 92.0854 21.2271C93.9317 21.2271 94.9091 22.7999 94.9091 24.671C94.9091 26.6234 94.0131 28.142 92.0854 28.142Z" fill="#E3E3E3"/>
<path d="M107.771 29.4708C105.843 29.4708 104.838 27.7896 104.838 25.2676C104.838 22.7457 105.843 21.0373 107.771 21.0373C109.698 21.0373 110.73 22.7457 110.73 25.2676C110.73 27.7896 109.698 29.4708 107.771 29.4708ZM107.798 32.6164C112.278 32.6164 115.209 29.4437 115.209 25.2676C115.209 21.0916 112.278 17.9189 107.798 17.9189C103.345 17.9189 100.359 21.0916 100.359 25.2676C100.359 29.4437 103.345 32.6164 107.798 32.6164Z" fill="#E3E3E3"/>
<path d="M116.504 32.1823H120.929V18.2982H116.504V32.1823ZM116.504 16.3729H120.929V12.7934H116.504V16.3729Z" fill="#E3E3E3"/>
<path d="M122.849 36.7653H127.275V30.7452H127.329C128.198 31.9113 129.474 32.6163 131.266 32.6163C134.904 32.6163 137.32 29.7419 137.32 25.2404C137.32 21.0644 135.067 17.8916 131.374 17.8916C129.474 17.8916 128.116 18.7323 127.166 19.9797H127.085V18.2984H122.849V36.7653ZM130.126 29.1996C128.225 29.1996 127.139 27.6539 127.139 25.4031C127.139 23.1524 128.116 21.444 130.044 21.444C131.945 21.444 132.841 23.0168 132.841 25.4031C132.841 27.7623 131.809 29.1996 130.126 29.1996Z" fill="#E3E3E3"/>
<path d="M144.525 32.6163C148.163 32.6163 150.851 31.0435 150.851 28.0064C150.851 24.454 147.973 23.8303 145.53 23.4236C143.765 23.0982 142.19 22.9626 142.19 21.9863C142.19 21.1186 143.032 20.7118 144.118 20.7118C145.34 20.7118 146.181 21.0915 146.344 22.3389H150.417C150.199 19.6 148.082 17.8916 144.145 17.8916C140.86 17.8916 138.145 19.4102 138.145 22.3389C138.145 25.593 140.724 26.2438 143.14 26.6505C144.987 26.9759 146.67 27.1115 146.67 28.3589C146.67 29.2538 145.828 29.7419 144.498 29.7419C143.032 29.7419 142.109 29.064 141.946 27.681H137.765C137.9 30.7452 140.452 32.6163 144.525 32.6163Z" fill="#E3E3E3"/>
<path d="M156.862 32.5891C158.79 32.5891 160.012 31.8299 161.016 30.474H161.098V32.1824H165.333V18.2983H160.908V26.0539C160.908 27.708 159.985 28.8469 158.464 28.8469C157.052 28.8469 156.374 28.0063 156.374 26.4877V18.2983H151.975V27.4097C151.975 30.5011 153.658 32.5891 156.862 32.5891Z" fill="#E3E3E3"/>
<path d="M167.259 32.1825H171.684V24.3998C171.684 22.7456 172.499 21.5796 173.884 21.5796C175.214 21.5796 175.838 22.4473 175.838 23.9388V32.1825H180.264V24.3998C180.264 22.7456 181.051 21.5796 182.463 21.5796C183.794 21.5796 184.418 22.4473 184.418 23.9388V32.1825H188.843V23.1524C188.843 20.0339 187.269 17.8916 184.119 17.8916C182.327 17.8916 180.834 18.6509 179.748 20.3322H179.694C178.988 18.8407 177.603 17.8916 175.784 17.8916C173.775 17.8916 172.445 18.8407 171.576 20.278H171.494V18.2984H167.259V32.1825Z" fill="#E3E3E3"/>
<path d="M28.3864 1.70313L23.9371 0.51239L20.1876 14.4886L16.8025 1.87079L12.3531 3.06153L16.0105 16.6942L6.90082 7.59564L3.64369 10.8488L13.6359 20.8289L1.19219 17.4986L0 21.9425L13.5963 25.5812C13.4406 24.9106 13.3583 24.2119 13.3583 23.4939C13.3583 18.4122 17.4829 14.2926 22.5709 14.2926C27.6588 14.2926 31.7834 18.4122 31.7834 23.4939C31.7834 24.2072 31.7021 24.9017 31.5484 25.5683L43.9049 28.8751L45.097 24.4313L31.4467 20.7781L43.8912 17.4477L42.6989 13.0038L29.0492 16.6568L38.1588 7.55828L34.9017 4.30512L25.0481 14.1467L28.3864 1.70313Z" fill="#E3E3E3"/>
<path d="M31.5364 25.6201C31.1549 27.2309 30.3496 28.678 29.2445 29.8373L38.1963 38.7783L41.4534 35.5251L31.5364 25.6201Z" fill="#E3E3E3"/>
<path d="M29.154 29.9308C28.0356 31.0716 26.6224 31.923 25.0374 32.3617L28.2948 44.5035L32.7441 43.3127L29.154 29.9308Z" fill="#E3E3E3"/>
<path d="M24.8715 32.4061C24.1362 32.5949 23.3655 32.6953 22.5712 32.6953C21.7203 32.6953 20.8962 32.58 20.114 32.3643L16.8537 44.5172L21.3029 45.7079L24.8715 32.4061Z" fill="#E3E3E3"/>
<path d="M19.9558 32.3195C18.3951 31.859 17.0069 30.9968 15.9114 29.8526L6.93764 38.8155L10.1948 42.0686L19.9558 32.3195Z" fill="#E3E3E3"/>
<path d="M15.8376 29.7733C14.7608 28.622 13.9765 27.1942 13.6032 25.6083L1.20637 28.926L2.39855 33.3699L15.8376 29.7733Z" fill="#E3E3E3"/>
</svg>
