<svg width="200" height="39" viewBox="0 0 200 39" fill="none" xmlns="http://www.w3.org/2000/svg">
<path d="M59.8374 30.0196V9.8465H63.6604V26.5614H72.9285V30.0196H59.8374Z" fill="#3A5088"/>
<path d="M81.1827 30.4231C79.7539 30.4231 78.4698 30.1349 77.3306 29.5585C76.1913 28.9822 75.2935 28.1464 74.637 27.0513C73.9806 25.9562 73.6523 24.6401 73.6523 23.1031V22.642C73.6523 21.105 73.9806 19.7889 74.637 18.6938C75.2935 17.5987 76.1913 16.7629 77.3306 16.1865C78.4698 15.6102 79.7539 15.322 81.1827 15.322C82.6115 15.322 83.8956 15.6102 85.0347 16.1865C86.1739 16.7629 87.0717 17.5987 87.7283 18.6938C88.3848 19.7889 88.713 21.105 88.713 22.642V23.1031C88.713 24.6401 88.3848 25.9562 87.7283 27.0513C87.0717 28.1464 86.1739 28.9822 85.0347 29.5585C83.8956 30.1349 82.6115 30.4231 81.1827 30.4231ZM81.1827 27.1953C82.3026 27.1953 83.2294 26.8399 83.9631 26.1291C84.6968 25.399 85.0637 24.3615 85.0637 23.0167V22.7284C85.0637 21.3835 84.6968 20.3557 83.9631 19.6447C83.2487 18.9148 82.3218 18.5496 81.1827 18.5496C80.0628 18.5496 79.136 18.9148 78.4022 19.6447C77.6685 20.3557 77.3016 21.3835 77.3016 22.7284V23.0167C77.3016 24.3615 77.6685 25.399 78.4022 26.1291C79.136 26.8399 80.0628 27.1953 81.1827 27.1953Z" fill="#3A5088"/>
<path d="M90.0831 22.9302V22.4691C90.0831 20.9705 90.3823 19.6928 90.9809 18.6361C91.5795 17.5603 92.3711 16.7437 93.3558 16.1865C94.3599 15.6102 95.4508 15.322 96.6287 15.322C97.9416 15.322 98.936 15.5525 99.6118 16.0136C100.288 16.4747 100.78 16.955 101.089 17.4545H101.61V15.7254H105.202V32.5556C105.202 33.5355 104.912 34.3136 104.333 34.89C103.754 35.4856 102.981 35.7833 102.016 35.7833H92.4001V32.6133H100.741C101.282 32.6133 101.552 32.3251 101.552 31.7487V28.0311H101.031C100.838 28.3385 100.568 28.6554 100.22 28.9822C99.8726 29.2894 99.4092 29.5489 98.8299 29.7602C98.2506 29.9715 97.5169 30.0773 96.6287 30.0773C95.4508 30.0773 94.3599 29.7986 93.3558 29.2415C92.3711 28.6651 91.5795 27.8485 90.9809 26.7918C90.3823 25.716 90.0831 24.4287 90.0831 22.9302ZM97.6714 26.9071C98.7913 26.9071 99.7277 26.5517 100.481 25.8409C101.234 25.13 101.61 24.131 101.61 22.8438V22.5555C101.61 21.249 101.234 20.25 100.481 19.5583C99.747 18.8475 98.8106 18.492 97.6714 18.492C96.5514 18.492 95.615 18.8475 94.8619 19.5583C94.1089 20.25 93.7324 21.249 93.7324 22.5555V22.8438C93.7324 24.131 94.1089 25.13 94.8619 25.8409C95.615 26.5517 96.5514 26.9071 97.6714 26.9071Z" fill="#3A5088"/>
<path d="M114.78 30.4231C113.351 30.4231 112.067 30.1349 110.928 29.5585C109.789 28.9822 108.891 28.1464 108.235 27.0513C107.578 25.9562 107.25 24.6401 107.25 23.1031V22.642C107.25 21.105 107.578 19.7889 108.235 18.6938C108.891 17.5987 109.789 16.7629 110.928 16.1865C112.067 15.6102 113.351 15.322 114.78 15.322C116.209 15.322 117.493 15.6102 118.632 16.1865C119.771 16.7629 120.669 17.5987 121.326 18.6938C121.982 19.7889 122.31 21.105 122.31 22.642V23.1031C122.31 24.6401 121.982 25.9562 121.326 27.0513C120.669 28.1464 119.771 28.9822 118.632 29.5585C117.493 30.1349 116.209 30.4231 114.78 30.4231ZM114.78 27.1953C115.9 27.1953 116.827 26.8399 117.56 26.1291C118.294 25.399 118.661 24.3615 118.661 23.0167V22.7284C118.661 21.3835 118.294 20.3557 117.56 19.6447C116.846 18.9148 115.919 18.5496 114.78 18.5496C113.66 18.5496 112.733 18.9148 112 19.6447C111.266 20.3557 110.899 21.3835 110.899 22.7284V23.0167C110.899 24.3615 111.266 25.399 112 26.1291C112.733 26.8399 113.66 27.1953 114.78 27.1953Z" fill="#3A5088"/>
<path d="M124.376 30.0196V15.7255H128.025V30.0196H124.376ZM126.201 14.0541C125.543 14.0541 124.985 13.8426 124.52 13.4199C124.077 12.9973 123.854 12.4401 123.854 11.7485C123.854 11.0569 124.077 10.4997 124.52 10.077C124.985 9.65434 125.543 9.44299 126.201 9.44299C126.877 9.44299 127.437 9.65434 127.88 10.077C128.324 10.4997 128.547 11.0569 128.547 11.7485C128.547 12.4401 128.324 12.9973 127.88 13.4199C127.437 13.8426 126.877 14.0541 126.201 14.0541Z" fill="#3A5088"/>
<path d="M130.766 35.7833V15.7254H134.357V17.4545H134.878C135.206 16.8974 135.717 16.4075 136.413 15.9848C137.108 15.543 138.102 15.322 139.397 15.322C140.554 15.322 141.626 15.6102 142.611 16.1865C143.596 16.7437 144.388 17.5698 144.986 18.6649C145.584 19.7601 145.884 21.0858 145.884 22.642V23.1031C145.884 24.6593 145.584 25.9849 144.986 27.08C144.388 28.1751 143.596 29.0109 142.611 29.5873C141.626 30.1444 140.554 30.4231 139.397 30.4231C138.528 30.4231 137.794 30.3174 137.195 30.106C136.616 29.9139 136.143 29.6641 135.776 29.3567C135.429 29.0301 135.149 28.7035 134.936 28.3769H134.414V35.7833H130.766ZM138.295 27.2529C139.435 27.2529 140.371 26.8976 141.105 26.1867C141.858 25.4566 142.235 24.4 142.235 23.0167V22.7284C142.235 21.3451 141.858 20.2981 141.105 19.5872C140.351 18.857 139.415 18.492 138.295 18.492C137.176 18.492 136.239 18.857 135.486 19.5872C134.733 20.2981 134.357 21.3451 134.357 22.7284V23.0167C134.357 24.4 134.733 25.4566 135.486 26.1867C136.239 26.8976 137.176 27.2529 138.295 27.2529Z" fill="#3A5088"/>
<path d="M153.898 30.4231C152.025 30.4231 150.49 30.0196 149.293 29.2127C148.097 28.4058 147.372 27.2529 147.121 25.7544L150.48 24.8898C150.616 25.5623 150.838 26.0906 151.148 26.4749C151.475 26.8591 151.871 27.1377 152.335 27.3106C152.817 27.4643 153.338 27.5411 153.898 27.5411C154.749 27.5411 155.376 27.3971 155.78 27.1089C156.186 26.8015 156.389 26.4268 156.389 25.9849C156.389 25.543 156.196 25.2069 155.81 24.9763C155.423 24.7266 154.806 24.5248 153.957 24.3711L153.145 24.2269C152.141 24.0348 151.225 23.7755 150.394 23.4489C149.563 23.1031 148.897 22.6323 148.395 22.0367C147.894 21.4412 147.642 20.6727 147.642 19.7313C147.642 18.3095 148.164 17.224 149.207 16.4747C150.249 15.7062 151.621 15.322 153.32 15.322C154.922 15.322 156.255 15.6774 157.316 16.3883C158.378 17.0992 159.073 18.0309 159.401 19.1838L156.013 20.2212C155.859 19.4912 155.54 18.9723 155.057 18.6649C154.593 18.3575 154.014 18.2038 153.32 18.2038C152.624 18.2038 152.094 18.3288 151.726 18.5785C151.359 18.8091 151.176 19.1357 151.176 19.5583C151.176 20.0194 151.369 20.3653 151.755 20.5958C152.141 20.8071 152.662 20.9705 153.32 21.0858L154.13 21.2298C155.212 21.4219 156.186 21.6814 157.055 22.008C157.944 22.3154 158.638 22.7668 159.141 23.3624C159.661 23.9389 159.923 24.7266 159.923 25.7256C159.923 27.2242 159.373 28.3866 158.272 29.2127C157.191 30.0196 155.733 30.4231 153.898 30.4231Z" fill="#3A5088"/>
<path d="M167.292 30.2502C166.171 30.2502 165.187 30.0004 164.337 29.5009C163.507 28.9822 162.86 28.2712 162.396 27.3682C161.933 26.4652 161.702 25.4278 161.702 24.2558V15.7254H165.351V23.9676C165.351 25.0435 165.611 25.8504 166.133 26.3884C166.673 26.9263 167.436 27.1953 168.421 27.1953C169.541 27.1953 170.41 26.8303 171.027 26.1002C171.646 25.3509 171.954 24.3134 171.954 22.9878V15.7254H175.604V30.0195H172.012V28.1464H171.491C171.26 28.6267 170.824 29.0973 170.188 29.5584C169.551 30.0195 168.585 30.2502 167.292 30.2502Z" fill="#3A5088"/>
<path d="M178.361 30.0197V15.7255H181.952V17.2818H182.474C182.725 16.8015 183.141 16.3884 183.72 16.0426C184.298 15.6775 185.061 15.4951 186.007 15.4951C187.03 15.4951 187.852 15.6968 188.469 16.1002C189.087 16.4845 189.56 16.9936 189.888 17.6277H190.41C190.739 17.0129 191.202 16.5037 191.8 16.1002C192.399 15.6968 193.248 15.4951 194.348 15.4951C195.237 15.4951 196.039 15.6872 196.753 16.0715C197.486 16.4365 198.066 17.0032 198.491 17.7717C198.935 18.521 199.157 19.472 199.157 20.6248V30.0197H195.507V20.8842C195.507 20.0964 195.304 19.5105 194.9 19.1262C194.494 18.7228 193.924 18.521 193.191 18.521C192.36 18.521 191.713 18.7899 191.25 19.3279C190.806 19.8466 190.584 20.596 190.584 21.5758V30.0197H186.935V20.8842C186.935 20.0964 186.732 19.5105 186.326 19.1262C185.92 18.7228 185.351 18.521 184.617 18.521C183.787 18.521 183.139 18.7899 182.676 19.3279C182.232 19.8466 182.011 20.596 182.011 21.5758V30.0197H178.361Z" fill="#3A5088"/>
<path d="M48.2717 19.213C48.2717 14.1174 46.2374 9.23047 42.6162 5.62734C38.9951 2.02422 34.0837 6.68207e-07 28.9627 0C23.8417 -6.68205e-07 18.9303 2.02422 15.3092 5.62734C11.688 9.23047 9.65369 14.1174 9.65369 19.213H15.6878C17.6874 19.213 19.2468 17.5457 19.9792 15.6943C20.46 14.4788 21.1896 13.3618 22.1359 12.4201C23.9465 10.6186 26.4022 9.60648 28.9627 9.60648C31.5232 9.60648 33.9789 10.6186 35.7895 12.4201C37.6001 14.2217 38.6172 16.6652 38.6172 19.213H48.2717Z" fill="url(#paint0_linear_815_28352)"/>
<path d="M37.1485 26.5654C38.1189 24.2343 38.6184 21.736 38.6184 19.213H48.2719C48.2719 29.824 39.6269 38.4258 28.9628 38.4258C27.2928 38.4258 25.6722 38.2149 24.1267 37.8183C25.0011 37.5941 25.8606 37.3086 26.6986 36.9633C29.0413 35.9978 31.1699 34.5826 32.9629 32.7985C34.7559 31.0144 36.1783 28.8964 37.1485 26.5654Z" fill="#FBCF8E"/>
<path d="M0.00012207 19.2128C0.000121708 21.736 0.499564 24.2343 1.46993 26.5654C2.44031 28.8964 3.86259 31.0144 5.6556 32.7985C7.4486 34.5825 9.57722 35.9978 11.9199 36.9633C14.2626 37.9289 16.7734 38.4258 19.3092 38.4258C21.8448 38.4258 24.3557 37.9289 26.6983 36.9633C29.041 35.9978 31.1696 34.5825 32.9627 32.7985C34.7557 31.0144 36.1779 28.8964 37.1483 26.5654C38.1187 24.2343 38.6182 21.736 38.6182 19.2128H32.584C30.5845 19.2128 29.0251 20.8801 28.2927 22.7314C28.2719 22.7841 28.2505 22.8367 28.2287 22.8892C27.7435 24.0546 27.0324 25.1137 26.1359 26.0057C25.2394 26.8977 24.175 27.6054 23.0038 28.0882C21.8325 28.5709 20.577 28.8194 19.3092 28.8194C18.0413 28.8194 16.7859 28.5709 15.6146 28.0882C14.4432 27.6054 13.3789 26.8977 12.4823 26.0057C11.5859 25.1137 10.8747 24.0546 10.3895 22.8892C9.90435 21.7236 9.65463 20.4744 9.65463 19.2128H0.00012207Z" fill="url(#paint1_linear_815_28352)"/>
<path d="M0.0020752 19.213C0.0020752 8.6019 8.64699 0 19.311 0C20.9807 0 22.6008 0.210855 24.1461 0.607281C20.8303 1.45722 17.7715 3.17727 15.3091 5.62736C11.688 9.23044 9.65365 14.1174 9.65365 19.213H0.0020752Z" fill="#73E5E2"/>
<defs>
<linearGradient id="paint0_linear_815_28352" x1="48.2717" y1="9.60648" x2="9.65369" y2="9.60648" gradientUnits="userSpaceOnUse">
<stop stop-color="#73E5E2"/>
<stop offset="1" stop-color="#394F87"/>
</linearGradient>
<linearGradient id="paint1_linear_815_28352" x1="0.000123336" y1="28.8194" x2="38.6182" y2="28.8194" gradientUnits="userSpaceOnUse">
<stop stop-color="#FBDC8E"/>
<stop offset="1" stop-color="#FB958E"/>
</linearGradient>
</defs>
</svg>
