<svg width="211" height="68" viewBox="0 0 211 68" fill="none" xmlns="http://www.w3.org/2000/svg">
<path d="M70.6281 44.8006H84.825V40.5244H75.674V24.4174H70.6281V44.8006Z" fill="#E3E3E3"/>
<path d="M93.2376 41.9497C91.2136 41.9497 90.1588 40.1822 90.1588 37.531C90.1588 34.8797 91.2136 33.0837 93.2376 33.0837C95.2617 33.0837 96.345 34.8797 96.345 37.531C96.345 40.1822 95.2617 41.9497 93.2376 41.9497ZM93.2661 45.2566C97.97 45.2566 101.049 41.9212 101.049 37.531C101.049 33.1408 97.97 29.8053 93.2661 29.8053C88.5908 29.8053 85.455 33.1408 85.455 37.531C85.455 41.9212 88.5908 45.2566 93.2661 45.2566Z" fill="#E3E3E3"/>
<path d="M109.19 49.8464C111.357 49.8464 113.267 49.3618 114.55 48.2214C115.719 47.1666 116.488 45.5702 116.488 43.3751V30.2044H112.041V31.7724H111.984C111.129 30.5465 109.817 29.7768 107.879 29.7768C104.258 29.7768 101.75 32.7986 101.75 37.0748C101.75 41.5506 104.8 44.0023 108.078 44.0023C109.846 44.0023 110.958 43.2896 111.813 42.3203H111.927V43.7742C111.927 45.5417 111.1 46.568 109.133 46.568C107.594 46.568 106.824 45.9123 106.567 45.1426H102.063C102.519 48.1929 105.171 49.8464 109.19 49.8464ZM109.162 40.5528C107.423 40.5528 106.282 39.1274 106.282 36.9323C106.282 34.7087 107.423 33.2833 109.162 33.2833C111.1 33.2833 112.127 34.9367 112.127 36.9038C112.127 38.9564 111.186 40.5528 109.162 40.5528Z" fill="#E3E3E3"/>
<path d="M125.632 41.9497C123.607 41.9497 122.553 40.1822 122.553 37.531C122.553 34.8797 123.607 33.0837 125.632 33.0837C127.656 33.0837 128.738 34.8797 128.738 37.531C128.738 40.1822 127.656 41.9497 125.632 41.9497ZM125.66 45.2566C130.363 45.2566 133.442 41.9212 133.442 37.531C133.442 33.1408 130.363 29.8053 125.66 29.8053C120.985 29.8053 117.849 33.1408 117.849 37.531C117.849 41.9212 120.985 45.2566 125.66 45.2566Z" fill="#E3E3E3"/>
<path d="M134.801 44.8006H139.447V30.2045H134.801V44.8006ZM134.801 28.1805H139.447V24.4174H134.801V28.1805Z" fill="#E3E3E3"/>
<path d="M141.463 49.6183H146.11V43.2896H146.167C147.079 44.5154 148.419 45.2566 150.301 45.2566C154.121 45.2566 156.658 42.2348 156.658 37.5024C156.658 33.1122 154.292 29.7768 150.415 29.7768C148.419 29.7768 146.994 30.6605 145.996 31.9719H145.91V30.2044H141.463V49.6183ZM149.103 41.6646C147.108 41.6646 145.967 40.0397 145.967 37.6735C145.967 35.3073 146.994 33.5113 149.018 33.5113C151.013 33.5113 151.954 35.1648 151.954 37.6735C151.954 40.1537 150.871 41.6646 149.103 41.6646Z" fill="#E3E3E3"/>
<path d="M164.223 45.2566C168.043 45.2566 170.865 43.6032 170.865 40.4103C170.865 36.6757 167.843 36.02 165.277 35.5924C163.424 35.2503 161.771 35.1078 161.771 34.0815C161.771 33.1692 162.655 32.7416 163.795 32.7416C165.078 32.7416 165.962 33.1407 166.133 34.4521H170.409C170.181 31.5728 167.957 29.7768 163.823 29.7768C160.374 29.7768 157.523 31.3732 157.523 34.4521C157.523 37.8731 160.231 38.5572 162.769 38.9849C164.707 39.327 166.475 39.4695 166.475 40.7809C166.475 41.7216 165.591 42.2348 164.194 42.2348C162.655 42.2348 161.685 41.5221 161.514 40.0682H157.124C157.267 43.2896 159.946 45.2566 164.223 45.2566Z" fill="#E3E3E3"/>
<path d="M177.178 45.2282C179.202 45.2282 180.485 44.43 181.539 43.0046H181.625V44.8006H186.072V30.2045H181.425V38.3578C181.425 40.0968 180.456 41.2941 178.86 41.2941C177.377 41.2941 176.664 40.4103 176.664 38.8139V30.2045H172.046V39.7832C172.046 43.0331 173.814 45.2282 177.178 45.2282Z" fill="#E3E3E3"/>
<path d="M188.094 44.8005H192.741V36.6187C192.741 34.8797 193.596 33.6539 195.05 33.6539C196.447 33.6539 197.103 34.5661 197.103 36.1341V44.8005H201.749V36.6187C201.749 34.8797 202.576 33.6539 204.058 33.6539C205.455 33.6539 206.111 34.5661 206.111 36.1341V44.8005H210.758V35.3073C210.758 32.0289 209.104 29.7768 205.797 29.7768C203.916 29.7768 202.348 30.575 201.208 32.3425H201.151C200.409 30.7746 198.956 29.7768 197.045 29.7768C194.936 29.7768 193.539 30.7746 192.627 32.2855H192.541V30.2044H188.094V44.8005Z" fill="#E3E3E3"/>
<path fill-rule="evenodd" clip-rule="evenodd" d="M50.3952 50.9086C59.6729 41.631 59.6728 26.5892 50.3952 17.3116C41.1177 8.03412 26.0759 8.03404 16.7983 17.3117C7.5208 26.5892 7.5208 41.631 16.7983 50.9085C26.0759 60.1861 41.1177 60.1861 50.3952 50.9086ZM32.3701 27.6978C32.37 24.8339 30.0484 22.5123 27.1845 22.5122C24.3206 22.5122 21.9989 24.8338 21.9989 27.6978C21.999 30.5617 24.3206 32.8833 27.1845 32.8834L32.37 32.8834L32.3701 27.6978ZM40.0091 32.8834C42.8731 32.8834 45.1948 30.5618 45.1948 27.6978C45.1947 24.8339 42.873 22.5123 40.0091 22.5122C37.1453 22.5123 34.8236 24.8339 34.8235 27.6978L34.8236 32.8834L40.0091 32.8834ZM45.1948 40.5224C45.1947 37.6585 42.873 35.3369 40.0092 35.3368L34.8235 35.3369V40.5224C34.8236 43.3863 37.1453 45.7079 40.0092 45.708C42.8731 45.708 45.1948 43.3864 45.1948 40.5224ZM27.1845 45.708C24.3206 45.708 21.9989 43.3864 21.9989 40.5224C21.999 37.6585 24.3206 35.3369 27.1845 35.3368L32.3701 35.3369L32.3701 40.5224C32.3701 43.3864 30.0485 45.708 27.1845 45.708Z" fill="#E3E3E3"/>
</svg>
