<svg width="211" height="68" viewBox="0 0 211 68" fill="none" xmlns="http://www.w3.org/2000/svg">
<path d="M70.7879 44.447H84.9849V40.1708H75.8338V24.0638H70.7879V44.447Z" fill="#222923"/>
<path d="M93.3974 41.5962C91.3734 41.5962 90.3186 39.8287 90.3186 37.1774C90.3186 34.5262 91.3734 32.7302 93.3974 32.7302C95.4215 32.7302 96.5048 34.5262 96.5048 37.1774C96.5048 39.8287 95.4215 41.5962 93.3974 41.5962ZM93.4259 44.9031C98.1297 44.9031 101.209 41.5677 101.209 37.1774C101.209 32.7872 98.1297 29.4518 93.4259 29.4518C88.7506 29.4518 85.6147 32.7872 85.6147 37.1774C85.6147 41.5677 88.7506 44.9031 93.4259 44.9031Z" fill="#222923"/>
<path d="M109.35 49.4928C111.517 49.4928 113.427 49.0082 114.709 47.8679C115.878 46.8131 116.648 45.2166 116.648 43.0215V29.8508H112.201V31.4188H112.144C111.289 30.1929 109.977 29.4232 108.039 29.4232C104.418 29.4232 101.909 32.4451 101.909 36.7213C101.909 41.197 104.96 43.6487 108.238 43.6487C110.006 43.6487 111.117 42.936 111.973 41.9667H112.087V43.4206C112.087 45.1881 111.26 46.2144 109.293 46.2144C107.754 46.2144 106.984 45.5587 106.727 44.789H102.223C102.679 47.8394 105.33 49.4928 109.35 49.4928ZM109.321 40.1992C107.583 40.1992 106.442 38.7738 106.442 36.5787C106.442 34.3551 107.583 32.9297 109.321 32.9297C111.26 32.9297 112.286 34.5832 112.286 36.5502C112.286 38.6028 111.346 40.1992 109.321 40.1992Z" fill="#222923"/>
<path d="M125.791 41.5962C123.767 41.5962 122.713 39.8287 122.713 37.1774C122.713 34.5262 123.767 32.7302 125.791 32.7302C127.816 32.7302 128.898 34.5262 128.898 37.1774C128.898 39.8287 127.816 41.5962 125.791 41.5962ZM125.82 44.9031C130.523 44.9031 133.602 41.5677 133.602 37.1774C133.602 32.7872 130.523 29.4518 125.82 29.4518C121.145 29.4518 118.009 32.7872 118.009 37.1774C118.009 41.5677 121.145 44.9031 125.82 44.9031Z" fill="#222923"/>
<path d="M134.961 44.447H139.607V29.851H134.961V44.447ZM134.961 27.8269H139.607V24.0638H134.961V27.8269Z" fill="#222923"/>
<path d="M141.623 49.2648H146.27V42.936H146.327C147.239 44.1618 148.579 44.903 150.461 44.903C154.281 44.903 156.818 41.8812 156.818 37.1489C156.818 32.7586 154.452 29.4232 150.575 29.4232C148.579 29.4232 147.154 30.307 146.156 31.6183H146.07V29.8508H141.623V49.2648ZM149.263 41.311C147.268 41.311 146.127 39.6861 146.127 37.3199C146.127 34.9538 147.154 33.1578 149.178 33.1578C151.173 33.1578 152.114 34.8112 152.114 37.3199C152.114 39.8001 151.031 41.311 149.263 41.311Z" fill="#222923"/>
<path d="M164.382 44.903C168.202 44.903 171.025 43.2496 171.025 40.0567C171.025 36.3221 168.003 35.6665 165.437 35.2388C163.584 34.8967 161.931 34.7542 161.931 33.7279C161.931 32.8157 162.814 32.388 163.955 32.388C165.238 32.388 166.121 32.7872 166.292 34.0985H170.569C170.341 31.2192 168.117 29.4232 163.983 29.4232C160.534 29.4232 157.683 31.0197 157.683 34.0985C157.683 37.5195 160.391 38.2037 162.929 38.6313C164.867 38.9734 166.635 39.1159 166.635 40.4273C166.635 41.368 165.751 41.8812 164.354 41.8812C162.814 41.8812 161.845 41.1685 161.674 39.7146H157.284C157.426 42.936 160.106 44.903 164.382 44.903Z" fill="#222923"/>
<path d="M177.337 44.8746C179.362 44.8746 180.644 44.0764 181.699 42.651H181.785V44.447H186.232V29.851H181.585V38.0042C181.585 39.7432 180.616 40.9405 179.019 40.9405C177.537 40.9405 176.824 40.0568 176.824 38.4604V29.851H172.206V39.4296C172.206 42.6795 173.974 44.8746 177.337 44.8746Z" fill="#222923"/>
<path d="M188.254 44.4469H192.901V36.2651C192.901 34.5261 193.756 33.3003 195.21 33.3003C196.607 33.3003 197.262 34.2126 197.262 35.7805V44.4469H201.909V36.2651C201.909 34.5261 202.736 33.3003 204.218 33.3003C205.615 33.3003 206.271 34.2126 206.271 35.7805V44.4469H210.918V34.9538C210.918 31.6753 209.264 29.4232 205.957 29.4232C204.076 29.4232 202.508 30.2214 201.367 31.9889H201.31C200.569 30.421 199.115 29.4232 197.205 29.4232C195.096 29.4232 193.699 30.421 192.787 31.9319H192.701V29.8508H188.254V44.4469Z" fill="#222923"/>
<path fill-rule="evenodd" clip-rule="evenodd" d="M50.555 50.5551C59.8327 41.2774 59.8326 26.2357 50.555 16.9581C41.2775 7.68061 26.2358 7.68052 16.9581 16.9582C7.68062 26.2357 7.68062 41.2775 16.9581 50.555C26.2357 59.8326 41.2775 59.8326 50.555 50.5551ZM32.53 27.3443C32.5299 24.4804 30.2082 22.1588 27.3443 22.1587C24.4804 22.1587 22.1588 24.4803 22.1587 27.3443C22.1588 30.2082 24.4805 32.5298 27.3443 32.5299L32.5299 32.5299L32.53 27.3443ZM40.169 32.5299C43.0329 32.5299 45.3546 30.2083 45.3546 27.3443C45.3545 24.4804 43.0329 22.1588 40.169 22.1587C37.3051 22.1588 34.9834 24.4804 34.9834 27.3443L34.9835 32.5299L40.169 32.5299ZM45.3546 40.1689C45.3545 37.305 43.0329 34.9834 40.169 34.9833L34.9834 34.9834V40.1689C34.9835 43.0328 37.3051 45.3544 40.169 45.3545C43.0329 45.3545 45.3546 43.0329 45.3546 40.1689ZM27.3443 45.3545C24.4804 45.3545 22.1588 43.0328 22.1587 40.1689C22.1588 37.305 24.4805 34.9834 27.3443 34.9833L32.5299 34.9834L32.53 40.1689C32.5299 43.0329 30.2083 45.3545 27.3443 45.3545Z" fill="#84BD8D"/>
</svg>
