<svg width="114" height="33" viewBox="0 0 114 33" fill="none" xmlns="http://www.w3.org/2000/svg">
<path d="M32.0975 16.0397C32.1042 19.4613 31.01 22.7945 28.9764 25.5467H16.0446C17.3164 25.5861 18.5831 25.3697 19.7697 24.9104C20.9562 24.451 22.0383 23.7581 22.9519 22.8726C23.8654 21.9872 24.5918 20.9273 25.0878 19.7559C25.5838 18.5845 25.8394 17.3254 25.8394 16.0533C25.8394 14.7813 25.5838 13.5222 25.0878 12.3508C24.5918 11.1794 23.8654 10.1195 22.9519 9.23405C22.0383 8.34862 20.9562 7.65567 19.7697 7.19633C18.5831 6.73698 17.3164 6.5206 16.0446 6.56002V0C20.3005 -6.87574e-07 24.3823 1.6896 27.3925 4.69735C30.4028 7.70511 32.0951 11.7848 32.0975 16.0397ZM6.54429 16.0397C6.54671 13.5222 7.5487 11.1088 9.3301 9.32954C11.1115 7.55031 13.5266 6.5509 16.0446 6.5509H3.12198C1.36324 8.94012 0.301712 11.7701 0.0553859 14.7264C-0.19094 17.6826 0.387592 20.6492 1.72667 23.2964C3.06575 25.9436 5.11291 28.1677 7.64057 29.7215C10.1682 31.2752 13.0774 32.0977 16.0446 32.0976V25.5467C13.5273 25.5394 11.1156 24.5346 9.33811 22.7525C7.56066 20.9704 6.56253 18.5563 6.56254 16.0397H6.54429Z" fill="#FF8957"/>
<path d="M107.159 12.5073C108.148 12.5073 109.056 12.6781 109.883 13.0197C110.71 13.3612 111.42 13.8466 112.013 14.4758C112.625 15.0871 113.101 15.8151 113.443 16.6601C113.784 17.505 113.955 18.4398 113.955 19.4645C113.955 20.5432 113.775 21.5409 113.416 22.4578C113.074 23.3566 112.598 24.1476 111.986 24.8308C111.375 25.4959 110.647 26.0173 109.802 26.3948C108.975 26.7723 108.076 26.9611 107.106 26.9611C106.135 26.9611 105.236 26.7813 104.409 26.4218C103.582 26.0622 102.872 25.5588 102.279 24.9117C101.685 24.2645 101.218 23.5004 100.876 22.6196C100.535 21.7387 100.364 20.7769 100.364 19.7342C100.364 18.6735 100.526 17.7028 100.849 16.8219C101.191 15.923 101.658 15.159 102.252 14.5298C102.845 13.8826 103.555 13.3882 104.382 13.0466C105.227 12.6871 106.153 12.5073 107.159 12.5073ZM106.701 13.3702C105.622 13.3702 104.759 13.8107 104.112 14.6916C103.465 15.5725 103.142 16.741 103.142 18.1971C103.142 19.2938 103.258 20.3634 103.492 21.4061C103.726 22.4308 104.058 23.3476 104.49 24.1566C104.813 24.7858 105.245 25.2712 105.784 25.6128C106.323 25.9543 106.908 26.1251 107.537 26.1251C108.67 26.1251 109.55 25.6308 110.18 24.642C110.827 23.6353 111.15 22.26 111.15 20.5162C111.15 19.2039 110.962 17.9814 110.584 16.8488C110.207 15.7163 109.694 14.8624 109.047 14.2871C108.705 13.9635 108.346 13.7298 107.968 13.586C107.591 13.4421 107.168 13.3702 106.701 13.3702Z" fill="#4F4F4F"/>
<path d="M97.2284 12.5886V23.5367C97.2284 24.094 97.2464 24.5435 97.2824 24.885C97.3363 25.2086 97.4442 25.4693 97.606 25.6671C97.7678 25.8468 97.9925 25.9727 98.2801 26.0446C98.5857 26.1165 98.9992 26.1794 99.5205 26.2333V26.6648H92.2128V26.2333C92.7521 26.1974 93.1746 26.1435 93.4802 26.0715C93.8038 25.9817 94.0465 25.8468 94.2082 25.6671C94.388 25.4693 94.5049 25.2086 94.5588 24.885C94.6127 24.5435 94.6397 24.094 94.6397 23.5367V16.3908C94.6397 15.7076 94.5588 15.2312 94.397 14.9616C94.2532 14.6739 94.0015 14.5301 93.642 14.5301C93.4981 14.5301 93.3274 14.5391 93.1296 14.5571C92.9498 14.5751 92.7611 14.602 92.5633 14.638L92.3476 14.6649V14.2065L97.0936 12.5077L97.2284 12.5886ZM95.6914 5.63135C96.1228 5.63135 96.4914 5.79314 96.797 6.11673C97.1026 6.42235 97.2554 6.79088 97.2554 7.22234C97.2554 7.67177 97.1026 8.0493 96.797 8.35491C96.5093 8.64255 96.1318 8.78637 95.6644 8.78637C95.215 8.78637 94.8464 8.64255 94.5588 8.35491C94.2712 8.0493 94.1274 7.67177 94.1274 7.22234C94.1274 6.79088 94.2802 6.42235 94.5858 6.11673C94.8914 5.79314 95.2599 5.63135 95.6914 5.63135Z" fill="#4F4F4F"/>
<path d="M85.7335 26.2328C86.2368 26.1968 86.5604 26.1339 86.7043 26.044C86.866 25.9361 86.9469 25.7474 86.9469 25.4777C86.9469 25.3699 86.929 25.271 86.893 25.1811C86.8571 25.0912 86.8031 24.9923 86.7312 24.8845L83.9537 20.6238L81.5538 24.3991C81.32 24.7406 81.1493 25.0103 81.0414 25.2081C80.9515 25.4058 80.9066 25.5496 80.9066 25.6395C80.9066 25.8373 80.9965 25.9901 81.1762 26.0979C81.356 26.1878 81.6796 26.2328 82.147 26.2328V26.6642H77.6707V26.2328C77.9223 26.2148 78.1381 26.1788 78.3178 26.1249C78.4976 26.071 78.6684 25.9901 78.8302 25.8822C78.992 25.7743 79.1538 25.6305 79.3156 25.4507C79.4954 25.253 79.6931 24.9923 79.9088 24.6687L83.4414 19.5722L80.529 15.1228C80.2774 14.7632 80.0526 14.4666 79.8549 14.2329C79.6751 13.9992 79.4954 13.8104 79.3156 13.6666C79.1538 13.5228 78.983 13.4239 78.8032 13.37C78.6235 13.3161 78.4167 13.2891 78.183 13.2891H77.8594V12.8037H84.2503V13.2891C83.7829 13.3071 83.4414 13.361 83.2256 13.4509C83.0279 13.5408 82.929 13.7116 82.929 13.9632C82.929 14.161 83.0549 14.5026 83.3065 14.988C83.5582 15.4733 83.9088 16.0396 84.3582 16.6868C84.4301 16.7947 84.502 16.9025 84.5739 17.0104C84.6459 17.1003 84.7178 17.2082 84.7897 17.334C84.9335 17.1183 85.0773 16.9025 85.2211 16.6868C85.3829 16.4531 85.5537 16.2104 85.7335 15.9587C86.093 15.4554 86.3627 15.0509 86.5425 14.7453C86.7402 14.4217 86.8391 14.161 86.8391 13.9632C86.8391 13.7655 86.7492 13.6127 86.5694 13.5048C86.4076 13.397 86.093 13.3251 85.6256 13.2891V12.8037H90.4795V13.2891C89.9761 13.3071 89.5087 13.4329 89.0773 13.6666C88.6458 13.8823 88.2863 14.2059 87.9986 14.6374L85.4369 18.3317L89.3469 24.3451C89.8143 25.0642 90.2368 25.5586 90.6143 25.8283C91.0098 26.0979 91.4413 26.2328 91.9087 26.2328V26.6642H85.7335V26.2328Z" fill="#4F4F4F"/>
<path d="M70.2743 12.5073C71.2631 12.5073 72.1709 12.6781 72.9979 13.0197C73.8248 13.3612 74.5349 13.8466 75.1282 14.4758C75.7394 15.0871 76.2158 15.8151 76.5574 16.6601C76.8989 17.505 77.0697 18.4398 77.0697 19.4645C77.0697 20.5432 76.89 21.5409 76.5304 22.4578C76.1888 23.3566 75.7124 24.1476 75.1012 24.8308C74.49 25.4959 73.7619 26.0173 72.917 26.3948C72.09 26.7723 71.1911 26.9611 70.2204 26.9611C69.2496 26.9611 68.3507 26.7813 67.5238 26.4218C66.6968 26.0622 65.9867 25.5588 65.3935 24.9117C64.8002 24.2645 64.3328 23.5004 63.9912 22.6196C63.6497 21.7387 63.4789 20.7769 63.4789 19.7342C63.4789 18.6735 63.6407 17.7028 63.9643 16.8219C64.3058 15.923 64.7732 15.159 65.3665 14.5298C65.9598 13.8826 66.6699 13.3882 67.4968 13.0466C68.3417 12.6871 69.2676 12.5073 70.2743 12.5073ZM69.8159 13.3702C68.7372 13.3702 67.8743 13.8107 67.2272 14.6916C66.58 15.5725 66.2564 16.741 66.2564 18.1971C66.2564 19.2938 66.3732 20.3634 66.6069 21.4061C66.8406 22.4308 67.1732 23.3476 67.6047 24.1566C67.9283 24.7858 68.3597 25.2712 68.899 25.6128C69.4384 25.9543 70.0226 26.1251 70.6518 26.1251C71.7844 26.1251 72.6653 25.6308 73.2945 24.642C73.9417 23.6353 74.2653 22.26 74.2653 20.5162C74.2653 19.2039 74.0765 17.9814 73.699 16.8488C73.3215 15.7163 72.8091 14.8624 72.1619 14.2871C71.8204 13.9635 71.4608 13.7298 71.0833 13.586C70.7058 13.4421 70.2833 13.3702 69.8159 13.3702Z" fill="#4F4F4F"/>
<path d="M55.4086 6.97965C55.9479 6.8538 56.4243 6.74594 56.8378 6.65605C57.2692 6.54819 57.6737 6.44033 58.0512 6.33246C58.4467 6.2246 58.8243 6.11673 59.1838 6.00887C59.5433 5.90101 59.9209 5.77517 60.3164 5.63135L60.4512 5.71225V24.0761C60.4512 24.5075 60.4782 24.8581 60.5321 25.1277C60.586 25.3794 60.6939 25.5862 60.8557 25.748C61.0175 25.8918 61.2422 25.9996 61.5298 26.0715C61.8355 26.1435 62.231 26.1974 62.7163 26.2333V26.6648H55.4895V26.2333C55.9749 26.1794 56.3704 26.1165 56.676 26.0446C56.9816 25.9547 57.2243 25.8289 57.4041 25.6671C57.5838 25.4873 57.7007 25.2626 57.7546 24.9929C57.8265 24.7232 57.8625 24.3817 57.8625 23.9682V9.29872C57.8625 8.57963 57.7636 8.09424 57.5658 7.84256C57.3861 7.5729 57.0535 7.43807 56.5681 7.43807C56.4243 7.43807 56.2625 7.44706 56.0827 7.46503C55.9209 7.46503 55.7591 7.47402 55.5973 7.492H55.4086V6.97965Z" fill="#4F4F4F"/>
<path d="M44.7763 23.3473C44.7763 23.9046 44.8123 24.363 44.8842 24.7225C44.9561 25.0641 45.0909 25.3338 45.2887 25.5315C45.5044 25.7293 45.801 25.8731 46.1786 25.963C46.5561 26.0349 47.0505 26.0798 47.6617 26.0978V26.6641H39.0326V26.0978C39.6258 26.0439 40.0843 25.972 40.4079 25.8821C40.7494 25.7922 41.0101 25.6394 41.1899 25.4237C41.3696 25.2079 41.4775 24.9113 41.5135 24.5338C41.5674 24.1383 41.5944 23.6169 41.5944 22.9698V9.64858C41.5944 9.09128 41.5674 8.65084 41.5135 8.32724C41.4595 7.98568 41.3427 7.72501 41.1629 7.54523C40.9831 7.34748 40.7225 7.20366 40.3809 7.11378C40.0393 7.02389 39.5899 6.95198 39.0326 6.89805V6.27783H47.1493C48.6774 6.27783 50.0527 6.49356 51.2751 6.92502C52.5156 7.35647 53.4504 7.92276 54.0796 8.62387C54.8526 9.54071 55.2391 10.6194 55.2391 11.8598C55.2391 12.8845 54.9695 13.8373 54.4302 14.7182C53.9088 15.5811 53.1897 16.2642 52.2729 16.7676C51.6077 17.1271 50.8437 17.3878 49.9808 17.5496C49.1358 17.7114 48.1021 17.7923 46.8797 17.7923C46.4842 17.7923 46.1336 17.7923 45.828 17.7923C45.5404 17.7743 45.1898 17.7563 44.7763 17.7384V23.3473ZM44.7763 16.471C45.1359 16.5069 45.4325 16.5339 45.6662 16.5519C45.9179 16.5698 46.1965 16.5788 46.5022 16.5788C50.0796 16.5788 51.8684 15.0687 51.8684 12.0485C51.8684 10.4486 51.374 9.28004 50.3853 8.54297C49.4145 7.8059 47.8774 7.43737 45.7741 7.43737C45.3606 7.43737 45.0909 7.50928 44.9651 7.6531C44.8393 7.77894 44.7763 8.05759 44.7763 8.48904V16.471Z" fill="#4F4F4F"/>
</svg>
