<svg width="113" height="32" viewBox="0 0 113 32" fill="none" xmlns="http://www.w3.org/2000/svg">
<path d="M31.5105 16.1102C31.517 19.4702 30.4428 22.7432 28.4464 25.4458H15.7512C16.9997 25.4845 18.2433 25.272 19.4081 24.8209C20.5729 24.3699 21.6353 23.6894 22.5321 22.82C23.4289 21.9505 24.142 20.9097 24.6289 19.7595C25.1159 18.6092 25.3668 17.3728 25.3668 16.1237C25.3668 14.8745 25.1159 13.6382 24.6289 12.4879C24.142 11.3376 23.4289 10.2968 22.5321 9.42737C21.6353 8.55791 20.5729 7.87745 19.4081 7.42639C18.2433 6.97533 16.9997 6.76285 15.7512 6.80156V0.359863C19.9293 0.359863 23.9363 2.01898 26.8915 4.97249C29.8467 7.926 31.5081 11.9321 31.5105 16.1102ZM6.4246 16.1102C6.42697 13.6382 7.41064 11.2683 9.15946 9.52113C10.9083 7.77399 13.2792 6.7926 15.7512 6.7926H3.06488C1.33831 9.13873 0.296194 11.9177 0.0543729 14.8206C-0.187448 17.7235 0.380503 20.6366 1.69509 23.2361C3.00968 25.8356 5.01939 28.0195 7.50083 29.5453C9.98227 31.071 12.8382 31.8787 15.7512 31.8785V25.4458C13.2799 25.4386 10.9123 24.4519 9.16732 22.702C7.42238 20.952 6.44251 18.5815 6.44252 16.1102H6.4246Z" fill="#9393FF"/>
<path d="M110.423 18.3125C110.423 17.6171 110.31 16.9625 110.085 16.3489C109.86 15.7148 109.533 15.2546 109.104 14.9682C107.692 15.3569 106.475 16.4512 105.453 18.2511C104.45 20.0307 103.949 21.7079 103.949 23.2829C103.949 24.8578 104.338 25.8396 105.115 26.2283C106.588 25.9419 107.835 24.9397 108.858 23.2215C109.901 21.4829 110.423 19.8466 110.423 18.3125ZM102.354 18.5886C103.07 16.9932 104 15.6841 105.146 14.6614C106.312 13.6183 107.498 13.0967 108.705 13.0967C109.932 13.0967 110.955 13.6183 111.773 14.6614C112.591 15.6841 113 16.9421 113 18.4352C113 19.9079 112.642 21.4215 111.926 22.9761C111.21 24.5101 110.218 25.7885 108.95 26.8112C107.702 27.8135 106.373 28.3146 104.962 28.3146C103.918 28.3146 103.049 27.8339 102.354 26.8726C101.658 25.9112 101.311 24.6942 101.311 23.2215C101.311 21.7284 101.658 20.1841 102.354 18.5886Z" fill="white"/>
<path d="M98.6941 8.74013C98.6941 8.33104 98.8577 7.94241 99.185 7.57424C99.5122 7.20606 99.8395 7.02197 100.167 7.02197C100.514 7.02197 100.924 7.44128 101.394 8.27991C101.864 9.09807 102.1 9.78329 102.1 10.3356C102.1 10.5401 102.008 10.7242 101.824 10.8878C101.639 11.0514 101.445 11.1333 101.241 11.1333C100.75 11.1333 100.197 10.8367 99.5838 10.2435C98.9906 9.65034 98.6941 9.14921 98.6941 8.74013ZM98.5406 13.0969C98.9293 13.0969 99.2975 13.3321 99.6452 13.8025C99.9929 14.273 100.167 14.7332 100.167 15.1832C100.167 15.6332 99.8702 16.9832 99.277 19.2331C98.6838 21.4626 97.9372 23.9683 97.0373 26.75C96.6895 27.7728 96.2498 28.2841 95.718 28.2841C95.4316 28.2841 95.1862 28.1716 94.9816 27.9466C94.7771 27.7012 94.6748 27.4353 94.6748 27.1489C94.6748 26.8421 94.7464 26.3716 94.8896 25.7376C95.0532 25.083 95.2782 24.224 95.5646 23.1603C95.8714 22.0763 96.1066 21.1967 96.2702 20.5217C96.4543 19.8468 96.6384 19.09 96.8225 18.2513C97.0066 17.3923 97.1498 16.707 97.252 16.1957C97.3748 15.6639 97.5077 15.1321 97.6509 14.6003C97.9372 13.598 98.2338 13.0969 98.5406 13.0969Z" fill="white"/>
<path d="M94.2108 7.08309C94.2108 10.9285 93.4131 15.9193 91.8177 22.0556C90.7949 26.2282 90.0791 28.3145 89.67 28.3145C89.3836 28.3145 89.0461 28.0896 88.6575 27.6396C88.2893 27.1896 88.1052 26.8418 88.1052 26.5964C88.1052 26.3509 88.4018 25.0828 88.995 22.7919C89.5882 20.501 90.1813 17.6886 90.7745 14.3546C91.3677 11.0001 91.6643 7.98307 91.6643 5.30357C91.6643 5.01721 91.7052 4.81267 91.787 4.68995C91.8688 4.56722 92.0427 4.50586 92.3086 4.50586C92.5745 4.50586 92.9529 4.80244 93.4438 5.39562C93.9551 5.96833 94.2108 6.53082 94.2108 7.08309Z" fill="white"/>
<path d="M80.7707 16.8398L80.6787 14.5387C80.6787 13.5774 80.9037 13.0967 81.3537 13.0967C81.7423 13.0967 82.1105 13.3524 82.4582 13.8637C82.8264 14.3546 83.0105 14.9478 83.0105 15.6432C83.0105 16.3182 82.99 16.8296 82.9491 17.1773C84.7286 14.4773 86.4161 13.1274 88.0115 13.1274C89.0138 13.1274 89.5149 13.3728 89.5149 13.8637C89.5149 14.1092 89.4024 14.3342 89.1774 14.5387C88.9524 14.7432 88.5945 14.9785 88.1036 15.2444C87.0195 15.7148 86.099 16.4409 85.3422 17.4227C84.6059 18.3841 84.0025 19.4784 83.532 20.7056C83.0616 21.9329 82.6832 22.9658 82.3968 23.8045C82.1309 24.6431 81.9264 25.2976 81.7832 25.7681C81.64 26.2385 81.4764 26.6987 81.2923 27.1487C80.965 27.9669 80.5866 28.376 80.1571 28.376C79.8094 28.376 79.523 28.1817 79.298 27.793C79.0935 27.3839 78.9912 26.9953 78.9912 26.6271C78.9912 26.2385 79.1651 25.4817 79.5128 24.3567C80.3514 21.7795 80.7707 19.2738 80.7707 16.8398Z" fill="white"/>
<path d="M76.4668 8.74013C76.4668 8.33104 76.6304 7.94241 76.9577 7.57424C77.2849 7.20606 77.6122 7.02197 77.9395 7.02197C78.2872 7.02197 78.6963 7.44128 79.1667 8.27991C79.6372 9.09807 79.8724 9.78329 79.8724 10.3356C79.8724 10.5401 79.7803 10.7242 79.5963 10.8878C79.4122 11.0514 79.2179 11.1333 79.0133 11.1333C78.5224 11.1333 77.9701 10.8367 77.3565 10.2435C76.7633 9.65034 76.4668 9.14921 76.4668 8.74013ZM76.3134 13.0969C76.702 13.0969 77.0702 13.3321 77.4179 13.8025C77.7656 14.273 77.9395 14.7332 77.9395 15.1832C77.9395 15.6332 77.6429 16.9832 77.0497 19.2331C76.4565 21.4626 75.71 23.9683 74.81 26.75C74.4622 27.7728 74.0225 28.2841 73.4907 28.2841C73.2043 28.2841 72.9589 28.1716 72.7543 27.9466C72.5498 27.7012 72.4475 27.4353 72.4475 27.1489C72.4475 26.8421 72.5191 26.3716 72.6623 25.7376C72.8259 25.083 73.0509 24.224 73.3373 23.1603C73.6441 22.0763 73.8793 21.1967 74.0429 20.5217C74.227 19.8468 74.4111 19.09 74.5952 18.2513C74.7793 17.3923 74.9225 16.707 75.0247 16.1957C75.1475 15.6639 75.2804 15.1321 75.4236 14.6003C75.71 13.598 76.0065 13.0969 76.3134 13.0969Z" fill="white"/>
<path d="M65.1501 16.3487L64.9353 22.1168C64.9353 23.7123 65.0069 24.8679 65.1501 25.5838C66.0296 24.6634 66.7864 23.5895 67.4205 22.3623C68.0751 21.1146 68.5557 19.9589 68.8625 18.8953C69.1898 17.8317 69.4659 16.8396 69.6909 15.9192C69.9364 14.9783 70.1614 14.2317 70.3659 13.6795C70.5705 13.1272 70.8057 12.8511 71.0716 12.8511C71.4602 12.8511 71.808 13.0147 72.1148 13.342C72.4216 13.6488 72.575 14.0067 72.575 14.4158C72.575 15.459 72.1045 17.1771 71.1636 19.5703C70.3659 21.7793 69.3228 23.8043 68.0342 25.6452C66.7455 27.4656 65.7433 28.3758 65.0274 28.3758C64.3115 28.3758 63.7695 27.977 63.4013 27.1792C63.0536 26.3815 62.8592 24.8577 62.8183 22.6077C62.7774 20.3373 62.8081 18.3737 62.9104 16.7169C61.499 20.5623 60.2513 23.4668 59.1673 25.4304C58.0832 27.394 57.2241 28.3758 56.59 28.3758C56.3037 28.3758 55.9969 28.2429 55.6696 27.977C55.3628 27.7111 55.1173 27.3633 54.9332 26.9338C54.4832 25.8497 54.0946 23.7838 53.7673 20.7362C53.4605 17.668 53.3071 15.4794 53.3071 14.1704C53.3071 13.3318 53.5628 12.9124 54.0742 12.9124C54.5242 12.9124 54.9332 13.1681 55.3014 13.6795C55.69 14.1908 55.915 14.7022 55.9764 15.2135C56.0378 15.7044 56.0889 17.0953 56.1298 19.3862C56.1912 21.6566 56.3855 23.6816 56.7128 25.4611C57.5514 24.0088 58.39 22.1884 59.2286 19.9998C60.0877 17.8112 60.7831 16.0931 61.3149 14.8454C61.8672 13.5977 62.3683 12.9738 62.8183 12.9738C63.4933 12.9738 64.0456 13.2908 64.4751 13.9249C64.9251 14.5385 65.1501 15.3465 65.1501 16.3487Z" fill="white"/>
<path d="M50.8448 22.2094C50.8448 23.8866 50.088 25.298 48.5744 26.4434C47.0608 27.5684 45.3222 28.1309 43.3586 28.1309C41.4155 28.1309 39.8098 27.6298 38.5416 26.6275C37.2735 25.6048 36.6394 24.6434 36.6394 23.7435C36.6394 23.1298 36.8235 22.823 37.1917 22.823C37.5189 22.823 38.1632 23.3139 39.1246 24.2957C39.4928 24.6434 39.9837 24.9707 40.5973 25.2775C41.2314 25.5843 41.8961 25.7377 42.5916 25.7377C44.0234 25.7377 45.2915 25.3696 46.3961 24.6332C47.521 23.8969 48.0835 23.0991 48.0835 22.2401C48.0835 21.6878 47.7154 20.9821 46.979 20.1231C46.2427 19.264 45.4245 18.456 44.5245 17.6992C43.645 16.922 42.837 16.0936 42.1007 15.2141C41.3643 14.3345 40.9961 13.6391 40.9961 13.1277C40.9961 12.6164 41.0984 12.0743 41.303 11.5016C41.5075 10.9289 41.7325 10.5096 41.978 10.2437C42.7757 9.36415 44.0131 8.55621 45.6904 7.81986C47.3881 7.08351 48.8097 6.71533 49.9551 6.71533C50.5483 6.71533 51.0494 6.90965 51.4585 7.29828C51.8676 7.68691 52.0721 8.09599 52.0721 8.52553C52.0721 8.73007 51.8573 8.8937 51.4278 9.01643C50.9983 9.13916 50.3437 9.30279 49.4642 9.50733C48.6051 9.69142 47.8381 9.91641 47.1631 10.1823C44.8109 11.0823 43.6347 11.9516 43.6347 12.7902C43.6347 13.2402 44.8313 14.4982 47.2245 16.564C48.1449 17.3617 48.9733 18.2924 49.7096 19.356C50.4664 20.3992 50.8448 21.3503 50.8448 22.2094Z" fill="white"/>
</svg>
