<svg width="201" height="202" viewBox="0 0 201 202" fill="none" xmlns="http://www.w3.org/2000/svg">
<path d="M181.805 105.967L193.127 107.371L192.537 112.127C192.412 113.14 192.044 113.908 191.434 114.429C190.823 114.96 190.067 115.17 189.165 115.058C188.192 114.937 187.485 114.459 187.044 113.622C186.673 114.121 186.234 114.473 185.725 114.678C185.215 114.892 184.676 114.964 184.109 114.894C183.065 114.765 182.286 114.329 181.771 113.586C181.256 112.843 181.07 111.894 181.213 110.739L181.805 105.967ZM188.292 108.283L187.891 111.52C187.823 112.068 187.925 112.528 188.198 112.901C188.481 113.276 188.87 113.494 189.367 113.555C189.873 113.618 190.284 113.499 190.599 113.199C190.924 112.899 191.121 112.476 191.188 111.929L191.59 108.692L188.292 108.283ZM182.988 107.626L182.574 110.969C182.492 111.628 182.604 112.177 182.91 112.616C183.215 113.055 183.672 113.312 184.28 113.388C184.878 113.462 185.383 113.324 185.797 112.974C186.211 112.624 186.458 112.12 186.54 111.461L186.954 108.118L182.988 107.626Z" fill="white"/>
<path d="M180.268 116.987L191.323 119.803L189.49 127.001L188.154 126.66L189.617 120.917L186.115 120.025L184.728 125.471L183.392 125.131L184.78 119.685L181.233 118.781L179.77 124.524L178.434 124.184L180.268 116.987Z" fill="white"/>
<path d="M176.191 129.863C176.455 129.188 176.826 128.62 177.303 128.16C177.779 127.7 178.308 127.36 178.888 127.138C179.478 126.92 180.078 126.831 180.687 126.873L180.71 128.28C179.929 128.259 179.252 128.432 178.68 128.8C178.118 129.171 177.702 129.699 177.434 130.383C177.188 131.011 177.133 131.57 177.268 132.062C177.41 132.568 177.728 132.917 178.222 133.111C178.669 133.286 179.071 133.296 179.428 133.14C179.785 132.984 180.129 132.697 180.458 132.277L181.823 130.559C182.362 129.883 182.969 129.441 183.643 129.234C184.316 129.026 184.986 129.053 185.651 129.314C186.23 129.542 186.685 129.879 187.014 130.326C187.349 130.787 187.543 131.313 187.596 131.904C187.655 132.508 187.559 133.129 187.309 133.765C187.059 134.402 186.72 134.932 186.29 135.356C185.857 135.789 185.375 136.11 184.843 136.318C184.308 136.536 183.767 136.63 183.219 136.602L183.19 135.208C183.865 135.221 184.45 135.056 184.947 134.714C185.439 134.38 185.807 133.905 186.049 133.287C186.273 132.717 186.307 132.198 186.15 131.731C186.003 131.268 185.682 130.939 185.188 130.745C184.808 130.596 184.413 130.583 184.002 130.707C183.601 130.835 183.221 131.119 182.862 131.559L181.635 133.134C180.448 134.621 179.161 135.092 177.774 134.547C177.194 134.32 176.741 133.966 176.413 133.487C176.082 133.017 175.893 132.466 175.845 131.833C175.803 131.213 175.918 130.556 176.191 129.863Z" fill="white"/>
<path d="M172.875 137.699L181.711 142.446L183.175 139.722L184.389 140.374L180.765 147.119L179.551 146.466L180.993 143.782L172.157 139.035L172.875 137.699Z" fill="white"/>
<path d="M163.704 151.418C164.211 150.79 164.791 150.301 165.443 149.949C166.097 149.611 166.787 149.407 167.513 149.338C168.24 149.282 168.968 149.372 169.697 149.607C170.434 149.849 171.132 150.236 171.791 150.769C172.458 151.308 172.982 151.909 173.365 152.573C173.747 153.237 173.988 153.93 174.086 154.653C174.178 155.383 174.123 156.1 173.922 156.804C173.722 157.522 173.368 158.195 172.861 158.822C172.367 159.433 171.817 159.894 171.211 160.205C170.599 160.524 169.987 160.712 169.376 160.77C168.759 160.835 168.198 160.782 167.693 160.61L168.072 159.144C168.731 159.335 169.388 159.335 170.042 159.142C170.705 158.956 171.283 158.557 171.778 157.946C172.278 157.326 172.578 156.656 172.675 155.934C172.767 155.22 172.66 154.517 172.354 153.823C172.048 153.13 171.546 152.5 170.847 151.936C170.157 151.377 169.44 151.021 168.698 150.867C167.956 150.714 167.245 150.756 166.567 150.995C165.881 151.242 165.288 151.675 164.788 152.294C164.293 152.905 164.021 153.551 163.969 154.232C163.926 154.918 164.067 155.564 164.392 156.169L163.037 156.845C162.764 156.388 162.594 155.851 162.529 155.233C162.457 154.624 162.513 153.986 162.697 153.321C162.874 152.663 163.21 152.029 163.704 151.418Z" fill="white"/>
<path d="M154.858 160.769C155.459 160.23 156.117 159.832 156.832 159.575C157.546 159.332 158.278 159.231 159.028 159.272C159.778 159.313 160.501 159.5 161.199 159.835C161.896 160.169 162.531 160.656 163.104 161.294C163.676 161.933 164.091 162.617 164.347 163.347C164.604 164.077 164.712 164.809 164.672 165.544C164.631 166.294 164.444 167.01 164.11 167.693C163.783 168.384 163.32 168.998 162.719 169.537C162.111 170.082 161.45 170.476 160.735 170.719C160.02 170.976 159.287 171.085 158.538 171.044C157.795 171.011 157.071 170.823 156.367 170.481C155.669 170.146 155.038 169.664 154.472 169.033C153.9 168.394 153.485 167.71 153.229 166.98C152.972 166.251 152.864 165.511 152.905 164.761C152.946 164.012 153.13 163.291 153.457 162.601C153.783 161.925 154.25 161.314 154.858 160.769ZM155.788 161.806C155.165 162.365 154.747 163.007 154.534 163.733C154.327 164.467 154.312 165.207 154.488 165.954C154.671 166.708 155.042 167.397 155.601 168.021C156.16 168.644 156.801 169.084 157.524 169.34C158.248 169.597 158.982 169.658 159.727 169.525C160.478 169.4 161.165 169.058 161.789 168.499C162.412 167.94 162.827 167.294 163.033 166.561C163.246 165.835 163.265 165.099 163.089 164.352C162.913 163.605 162.545 162.92 161.986 162.296C161.427 161.673 160.783 161.229 160.053 160.965C159.329 160.709 158.592 160.643 157.84 160.769C157.088 160.908 156.404 161.254 155.788 161.806Z" fill="white"/>
<path d="M148.755 166.179L154.95 175.76L153.895 176.442L144.294 172.62L148.867 179.693L147.594 180.516L141.399 170.936L142.454 170.254L152.135 174.17L147.495 166.994L148.755 166.179Z" fill="white"/>
<path d="M134.956 174.01C135.612 173.703 136.272 173.547 136.934 173.541C137.596 173.536 138.214 173.652 138.788 173.891C139.366 174.139 139.862 174.488 140.275 174.937L139.323 175.974C138.771 175.421 138.161 175.08 137.493 174.953C136.829 174.835 136.164 174.932 135.499 175.244C134.888 175.529 134.463 175.897 134.223 176.347C133.978 176.811 133.968 177.284 134.192 177.765C134.396 178.199 134.681 178.483 135.047 178.616C135.413 178.749 135.86 178.777 136.388 178.699L138.56 178.393C139.418 178.274 140.162 178.371 140.793 178.685C141.424 178.998 141.891 179.478 142.194 180.126C142.458 180.69 142.555 181.247 142.486 181.798C142.411 182.362 142.19 182.877 141.822 183.343C141.448 183.822 140.952 184.206 140.332 184.496C139.713 184.785 139.101 184.936 138.498 184.948C137.886 184.963 137.315 184.864 136.786 184.649C136.248 184.439 135.791 184.134 135.413 183.736L136.351 182.706C136.832 183.18 137.37 183.463 137.966 183.557C138.553 183.654 139.146 183.562 139.748 183.281C140.302 183.022 140.684 182.669 140.892 182.222C141.104 181.785 141.098 181.326 140.873 180.845C140.7 180.475 140.422 180.193 140.039 180.001C139.66 179.817 139.189 179.761 138.625 179.833L136.651 180.131C134.767 180.392 133.51 179.848 132.878 178.497C132.615 177.933 132.529 177.365 132.622 176.792C132.705 176.223 132.947 175.693 133.349 175.201C133.745 174.722 134.28 174.326 134.956 174.01Z" fill="white"/>
<path d="M125.205 177.842C125.994 177.596 126.742 177.544 127.45 177.687C128.158 177.829 128.772 178.135 129.292 178.604C129.816 179.082 130.193 179.691 130.424 180.432L132.678 187.653L131.231 188.105L128.986 180.913C128.831 180.416 128.586 180.006 128.249 179.683C127.907 179.373 127.512 179.17 127.065 179.074C126.608 178.981 126.126 179.014 125.62 179.172C125.113 179.33 124.703 179.576 124.39 179.909C124.067 180.245 123.858 180.637 123.762 181.084C123.659 181.543 123.686 182.022 123.841 182.519L126.085 189.711L124.638 190.163L122.384 182.941C122.153 182.2 122.117 181.485 122.276 180.793C122.437 180.112 122.768 179.511 123.269 178.991C123.76 178.475 124.405 178.091 125.205 177.842Z" fill="white"/>
<path d="M118.454 179.935L120.506 191.157L119.03 191.427L117.226 181.56L112.3 182.461L112.052 181.105L118.454 179.935Z" fill="white"/>
<path d="M107.854 181.54L108.588 191.543L111.673 191.317L111.774 192.691L104.138 193.252L104.037 191.877L107.076 191.654L106.342 181.651L107.854 181.54Z" fill="white"/>
<path d="M101.966 182.039L97.3105 193.228L95.5364 193.139L92.0249 181.54L93.6308 181.62L94.4294 184.344L99.2929 184.588L100.36 181.958L101.966 182.039ZM98.7497 185.941L94.8344 185.744L96.5087 191.486L98.7497 185.941Z" fill="white"/>
<path d="M87.7323 180.882L86.004 190.763L89.051 191.296L88.8135 192.653L81.2713 191.334L81.5088 189.976L84.5106 190.501L86.2389 180.621L87.7323 180.882Z" fill="white"/>
<path d="M80.9768 179.519L78.1184 190.563L76.6655 190.187L79.5239 179.143L80.9768 179.519Z" fill="white"/>
<path d="M71.6094 176.4C72.3624 176.689 73.0165 177.094 73.5717 177.613C74.1137 178.138 74.5374 178.744 74.8428 179.429C75.1482 180.115 75.3111 180.845 75.3314 181.618C75.3518 182.391 75.2083 183.178 74.901 183.979C74.5937 184.779 74.1739 185.46 73.6414 186.021C73.1089 186.582 72.5064 187.013 71.8337 187.312C71.1479 187.618 70.4249 187.778 69.6649 187.792C68.9011 187.816 68.1428 187.684 67.3898 187.395C66.6273 187.102 65.9751 186.693 65.433 186.168C64.8778 185.649 64.4475 185.046 64.1421 184.36C63.8331 183.684 63.6702 182.954 63.6535 182.172C63.6332 181.398 63.7748 180.616 64.0785 179.825C64.3857 179.024 64.8056 178.344 65.3381 177.782C65.8705 177.221 66.4797 176.788 67.1655 176.483C67.8514 176.177 68.5762 176.013 69.3399 175.989C70.0904 175.971 70.8469 176.108 71.6094 176.4ZM71.1101 177.701C70.3285 177.401 69.5662 177.322 68.8231 177.463C68.0763 177.614 67.4106 177.938 66.8261 178.436C66.2379 178.942 65.7938 179.587 65.4938 180.368C65.1939 181.15 65.0947 181.921 65.1964 182.682C65.2981 183.442 65.5778 184.124 66.0356 184.726C66.4898 185.338 67.1076 185.794 67.8891 186.094C68.6707 186.394 69.4349 186.468 70.1816 186.317C70.9248 186.176 71.5886 185.857 72.1732 185.359C72.7577 184.862 73.2 184.223 73.4999 183.441C73.7999 182.66 73.9009 181.884 73.8028 181.113C73.7012 180.353 73.4232 179.666 72.9691 179.055C72.5018 178.449 71.8821 177.998 71.1101 177.701Z" fill="white"/>
<path d="M64.0534 173.459L58.3233 183.325L57.2374 182.694L56.2902 172.403L52.0599 179.686L50.749 178.925L56.4791 169.06L57.565 169.691L58.4639 180.095L62.7557 172.706L64.0534 173.459Z" fill="white"/>
<path d="M43.6608 158.501C44.177 159.01 44.5529 159.574 44.7884 160.193C45.0239 160.812 45.1295 161.432 45.1051 162.053C45.0736 162.681 44.919 163.267 44.6414 163.811L43.3381 163.279C43.6651 162.569 43.7719 161.879 43.6588 161.208C43.5385 160.545 43.2165 159.955 42.693 159.439C42.2131 158.966 41.7203 158.695 41.2144 158.627C40.6942 158.559 40.2477 158.713 39.8751 159.092C39.5383 159.433 39.3713 159.799 39.3741 160.189C39.3769 160.579 39.5064 161.007 39.7624 161.475L40.8052 163.405C41.215 164.168 41.3827 164.899 41.3084 165.6C41.2341 166.301 40.9461 166.906 40.4445 167.415C40.0074 167.858 39.5185 168.143 38.978 168.27C38.4231 168.397 37.8634 168.368 37.299 168.185C36.7201 168.001 36.1871 167.669 35.6999 167.189C35.2128 166.709 34.8589 166.188 34.6382 165.627C34.4103 165.058 34.3051 164.489 34.3226 163.918C34.3329 163.34 34.4589 162.805 34.7008 162.313L35.9932 162.834C35.7161 163.45 35.6375 164.053 35.7573 164.644C35.8698 165.228 36.1624 165.753 36.635 166.219C37.0712 166.649 37.535 166.883 38.0262 166.923C38.5102 166.97 38.9385 166.805 39.3111 166.427C39.5978 166.136 39.7648 165.777 39.8123 165.351C39.8525 164.932 39.7409 164.471 39.4774 163.967L38.5117 162.22C37.6116 160.545 37.6847 159.176 38.731 158.114C39.1681 157.671 39.6714 157.393 40.2409 157.28C40.8031 157.161 41.3846 157.204 41.9852 157.409C42.5715 157.614 43.13 157.978 43.6608 158.501Z" fill="white"/>
<path d="M39.0785 154.039L30.1551 161.147L25.5275 155.338L26.6055 154.48L30.298 159.115L33.1248 156.863L29.6231 152.467L30.7011 151.609L34.2028 156.004L37.0654 153.724L33.3729 149.089L34.4509 148.23L39.0785 154.039Z" fill="white"/>
<path d="M33.2653 146.583L23.551 152.565L21.4391 149.136C21.043 148.492 20.8167 147.852 20.7604 147.216C20.704 146.579 20.8188 145.987 21.1049 145.439C21.3769 144.888 21.8215 144.422 22.4387 144.042C23.1255 143.619 23.8193 143.432 24.5202 143.479C25.2125 143.533 25.8406 143.793 26.4045 144.261L28.9532 139.581L29.8686 141.067L27.4452 145.455L28.7621 147.593L32.4784 145.305L33.2653 146.583ZM27.5886 148.316L26.2396 146.125C25.8863 145.552 25.4374 145.193 24.8929 145.048C24.3431 144.895 23.79 144.99 23.2337 145.333C22.6687 145.681 22.3351 146.132 22.2329 146.687C22.1167 147.238 22.2353 147.8 22.5886 148.374L23.9376 150.564L27.5886 148.316Z" fill="white"/>
<path d="M26.7183 134.986L17.9709 143.388L17.317 141.919L24.7032 134.977L14.6081 135.834L13.9542 134.365L26.0458 133.475L26.7183 134.986Z" fill="white"/>
<path d="M23.6044 127.335L12.7799 130.939L12.3059 129.515L23.1304 125.911L23.6044 127.335Z" fill="white"/>
<path d="M21.1244 117.852C21.2936 118.641 21.3102 119.399 21.1742 120.128C21.0261 120.849 20.7511 121.514 20.3491 122.122C19.935 122.722 19.4075 123.232 18.7666 123.652C18.1158 124.073 17.3761 124.373 16.5476 124.551C15.7091 124.731 14.9116 124.761 14.1551 124.641C13.3985 124.522 12.7082 124.273 12.0842 123.895C11.4581 123.508 10.9346 123.014 10.5137 122.416C10.0807 121.809 9.77964 121.111 9.61042 120.323C9.44549 119.554 9.43245 118.837 9.57129 118.17C9.708 117.493 9.94598 116.899 10.2852 116.388C10.6223 115.866 11.0162 115.463 11.4667 115.179L12.3698 116.395C11.8066 116.787 11.3942 117.298 11.1328 117.929C10.8613 118.561 10.808 119.262 10.9729 120.03C11.14 120.809 11.4735 121.463 11.9735 121.993C12.4714 122.512 13.0861 122.871 13.8177 123.069C14.5493 123.267 15.3543 123.272 16.2327 123.084C17.1012 122.897 17.8283 122.564 18.4143 122.083C19.0003 121.602 19.4137 121.023 19.6545 120.344C19.8931 119.656 19.9289 118.923 19.7619 118.144C19.5969 117.376 19.2659 116.758 18.7688 116.29C18.2617 115.825 17.6709 115.529 16.9963 115.402L17.321 113.923C17.8487 113.997 18.3732 114.203 18.8945 114.54C19.4137 114.867 19.8744 115.312 20.2767 115.873C20.6769 116.424 20.9594 117.083 21.1244 117.852Z" fill="white"/>
<path d="M19.616 110.636L8.24143 111.515L7.66903 104.11L9.04314 104.004L9.49988 109.913L13.1031 109.634L12.67 104.031L14.0441 103.925L14.4772 109.528L18.1263 109.246L17.6695 103.337L19.0436 103.231L19.616 110.636Z" fill="white"/>
<path d="M19.5247 91.0527L8.26492 89.2162L9.42849 82.0825L10.7887 82.3044L9.86675 87.9569L13.5092 88.551L14.3449 83.4274L15.7051 83.6493L14.8694 88.7729L19.7663 89.5716L19.5247 91.0527Z" fill="white"/>
<path d="M22.7661 76.7847C22.5259 77.5546 22.1644 78.2332 21.6816 78.8205C21.1922 79.395 20.6151 79.8566 19.9501 80.2052C19.2852 80.5538 18.5676 80.763 17.7972 80.8327C17.0268 80.9024 16.2323 80.8096 15.4137 80.5541C14.5951 80.2986 13.8888 79.9232 13.2948 79.4276C12.7008 78.9321 12.2329 78.3583 11.891 77.7062C11.5423 77.0413 11.3365 76.33 11.2735 75.5724C11.2007 74.8118 11.2845 74.0466 11.5247 73.2767C11.768 72.497 12.1344 71.82 12.6238 71.2455C13.1065 70.6582 13.6803 70.1902 14.3452 69.8416C15.0004 69.4899 15.7181 69.2808 16.4982 69.2141C17.2686 69.1444 18.0582 69.2357 18.8671 69.4881C19.6857 69.7436 20.392 70.1191 20.986 70.6146C21.58 71.1101 22.0513 71.6903 22.3999 72.3552C22.7485 73.0201 22.9592 73.7329 23.032 74.4935C23.098 75.2414 23.0094 76.0051 22.7661 76.7847ZM21.4359 76.3696C21.6852 75.5705 21.7157 74.8046 21.5272 74.0721C21.329 73.3364 20.963 72.6929 20.4293 72.1413C19.8859 71.5867 19.2146 71.1847 18.4154 70.9353C17.6163 70.6859 16.8404 70.6363 16.0877 70.7864C15.335 70.9365 14.6728 71.2593 14.1012 71.7546C13.5198 72.2469 13.1044 72.8927 12.855 73.6918C12.6056 74.4909 12.58 75.2583 12.7782 75.9939C12.9667 76.7265 13.3278 77.3685 13.8615 77.9201C14.3952 78.4717 15.0616 78.8721 15.8608 79.1215C16.6599 79.3709 17.4407 79.4221 18.2031 79.275C18.9558 79.1249 19.6229 78.8037 20.2043 78.3113C20.779 77.8062 21.1895 77.159 21.4359 76.3696Z" fill="white"/>
<path d="M25.1828 69.1725L14.9029 64.225L16.6495 60.596C16.9771 59.9152 17.3936 59.3793 17.8991 58.9881C18.4046 58.5969 18.9652 58.3739 19.5808 58.3189C20.1916 58.2503 20.8236 58.3732 21.4767 58.6875C22.2034 59.0373 22.7358 59.5201 23.0739 60.136C23.4027 60.7475 23.5224 61.4169 23.433 62.1443L28.749 61.7627L27.9919 63.3357L22.9902 63.6646L21.901 65.9276L25.8336 67.8202L25.1828 69.1725ZM20.6592 65.3299L21.7749 63.0117C22.0671 62.4046 22.1269 61.8329 21.9544 61.2967C21.7864 60.7513 21.408 60.337 20.8193 60.0536C20.2213 59.7658 19.6614 59.7286 19.1395 59.942C18.6129 60.1417 18.2035 60.5451 17.9113 61.1523L16.7956 63.4704L20.6592 65.3299Z" fill="white"/>
<path d="M34.9966 51.8729L26.2573 44.5395L29.3383 40.8678C29.9946 40.0858 30.7202 39.6418 31.5153 39.5361C32.317 39.4225 33.0658 39.6577 33.7619 40.2417C34.5126 40.8717 34.8459 41.6578 34.7616 42.6C35.344 42.3824 35.9043 42.3261 36.4425 42.4312C36.9873 42.5285 37.4786 42.7609 37.9165 43.1284C38.722 43.8043 39.1389 44.5939 39.1672 45.4972C39.1955 46.4006 38.8356 47.298 38.0875 48.1895L34.9966 51.8729ZM30.8115 46.402L32.9082 43.9034C33.2626 43.4811 33.4268 43.0392 33.401 42.5777C33.3673 42.1096 33.1588 41.7148 32.7756 41.3932C32.3846 41.0651 31.9752 40.9415 31.5475 41.0224C31.112 41.0967 30.717 41.345 30.3627 41.7673L28.266 44.266L30.8115 46.402ZM34.9055 49.8374L37.0711 47.2567C37.4977 46.7483 37.702 46.2268 37.6843 45.6922C37.6665 45.1575 37.423 44.6933 36.9538 44.2995C36.4924 43.9124 35.9929 43.7531 35.4554 43.8219C34.918 43.8906 34.436 44.1792 34.0094 44.6875L31.8438 47.2682L34.9055 49.8374Z" fill="white"/>
<path d="M45.2634 40.9087C44.6517 41.4652 43.9949 41.828 43.2932 41.9972C42.5914 42.1664 41.9057 42.1484 41.236 41.9433C40.5595 41.7307 39.9602 41.3374 39.4381 40.7634L34.3475 35.1676L35.4689 34.1475L40.5389 39.7206C40.8893 40.1057 41.2849 40.3738 41.7259 40.5247C42.1675 40.6612 42.6111 40.6786 43.0568 40.5768C43.51 40.4681 43.9329 40.2352 44.3256 39.8779C44.7183 39.5207 44.9863 39.1251 45.1297 38.691C45.2806 38.2501 45.3052 37.8068 45.2034 37.3611C45.1023 36.901 44.8766 36.4784 44.5262 36.0933L39.4562 30.5202L40.5776 29.5L45.6682 35.0958C46.1904 35.6697 46.5254 36.3034 46.6732 36.997C46.8143 37.683 46.7675 38.3673 46.5328 39.05C46.3057 39.7258 45.8826 40.3454 45.2634 40.9087Z" fill="white"/>
<path d="M53.726 34.0546C53.1306 34.468 52.5069 34.7333 51.855 34.8504C51.203 34.9676 50.5741 34.9569 49.9683 34.8183C49.3566 34.6713 48.8094 34.4112 48.3265 34.038L49.09 32.8554C49.7272 33.3077 50.3858 33.5402 51.0657 33.5528C51.7398 33.557 52.3787 33.3495 52.9825 32.9302C53.5359 32.5459 53.893 32.1115 54.0538 31.627C54.2171 31.1283 54.1473 30.661 53.8445 30.2249C53.5708 29.8308 53.2422 29.5992 52.8586 29.53C52.4749 29.4608 52.0298 29.5089 51.5232 29.6742L49.4331 30.3426C48.6083 30.6046 47.8584 30.6344 47.1834 30.4319C46.5084 30.2295 45.9671 29.8348 45.5595 29.2478C45.2043 28.7363 45.0143 28.2032 44.9897 27.6486C44.9675 27.0798 45.0988 26.535 45.3835 26.0142C45.6707 25.4792 46.0952 25.0166 46.657 24.6265C47.2188 24.2363 47.796 23.9847 48.3886 23.8715C48.9896 23.7525 49.5687 23.7542 50.1261 23.8768C50.6919 23.9935 51.1946 24.2162 51.6341 24.5448L50.8832 25.7188C50.3293 25.3328 49.7509 25.1441 49.1478 25.1527C48.5531 25.1555 47.9833 25.3461 47.4382 25.7246C46.9351 26.074 46.6187 26.4864 46.4889 26.9618C46.3533 27.4288 46.4369 27.8803 46.7397 28.3164C46.9726 28.6518 47.2942 28.8822 47.7044 29.0075C48.1087 29.1244 48.5826 29.0999 49.126 28.9338L51.0215 28.3074C52.8344 27.7321 54.1659 28.0566 55.016 29.2809C55.3712 29.7924 55.5515 30.3384 55.5569 30.9189C55.5706 31.4935 55.4213 32.0571 55.1089 32.6095C54.7991 33.1478 54.3381 33.6295 53.726 34.0546Z" fill="white"/>
<path d="M59.5332 30.0957L53.9491 20.1472L55.2578 19.4127L60.8418 29.3612L59.5332 30.0957Z" fill="white"/>
<path d="M63.0305 27.9816L58.4689 17.5247L59.6199 17.0226L68.4756 22.3484L65.108 14.6286L66.4976 14.0224L71.0592 24.4793L69.9082 24.9814L60.9894 19.5494L64.406 27.3816L63.0305 27.9816Z" fill="white"/>
<path d="M74.494 23.2138L71.385 12.237L78.5309 10.213L78.9065 11.5391L73.2045 13.1541L74.1894 16.6313L79.5967 15.0997L79.9723 16.4258L74.565 17.9574L75.5624 21.4788L81.2644 19.8637L81.64 21.1898L74.494 23.2138Z" fill="white"/>
<path d="M87.4527 20.3009C86.7365 20.4121 86.0596 20.3777 85.4221 20.1977C84.7846 20.0178 84.2238 19.7329 83.7397 19.3431C83.2541 18.9433 82.8758 18.47 82.605 17.9231L83.809 17.1938C84.184 17.8794 84.6745 18.3767 85.2803 18.6855C85.8846 18.9843 86.5499 19.0773 87.2762 18.9646C87.9421 18.8612 88.4532 18.6269 88.8098 18.2616C89.1748 17.8846 89.3167 17.4339 89.2352 16.9093C89.1616 16.4351 88.9675 16.083 88.6528 15.8529C88.3381 15.6228 87.9169 15.4713 87.389 15.3983L85.2172 15.0846C84.3609 14.9592 83.6735 14.6578 83.1552 14.1804C82.6368 13.703 82.3228 13.1112 82.2132 12.4051C82.1177 11.7897 82.1801 11.2273 82.4007 10.7178C82.6297 10.1967 82.9861 9.76422 83.47 9.42049C83.9624 9.0651 84.5465 8.83494 85.2224 8.73001C85.8983 8.62507 86.5275 8.65137 87.1098 8.80892C87.7022 8.96489 88.2222 9.21993 88.6698 9.57403C89.1275 9.92656 89.482 10.3468 89.7333 10.8346L88.5445 11.5616C88.2153 10.9722 87.7778 10.5494 87.2318 10.2932C86.6958 10.0355 86.1 9.95749 85.4443 10.0593C84.839 10.1533 84.374 10.3856 84.0493 10.7563C83.723 11.1169 83.6006 11.5594 83.682 12.084C83.7447 12.4876 83.933 12.8354 84.247 13.1276C84.5594 13.4097 84.9962 13.595 85.5575 13.6835L87.536 13.9497C89.4178 14.2258 90.4731 15.1003 90.7017 16.5731C90.7973 17.1885 90.7204 17.7583 90.4712 18.2826C90.2321 18.8053 89.8512 19.2467 89.3286 19.6067C88.8144 19.9552 88.1892 20.1866 87.4527 20.3009Z" fill="white"/>
<path d="M97.8531 19.3065C97.1286 19.3261 96.4615 19.2063 95.8519 18.947C95.2424 18.6877 94.7222 18.3341 94.2914 17.8862C93.8603 17.4281 93.545 16.9106 93.3456 16.3339L94.6323 15.763C94.9175 16.4906 95.341 17.0459 95.9028 17.429C96.4644 17.8019 97.1126 17.9785 97.8473 17.9586C98.5209 17.9404 99.0576 17.7727 99.4576 17.4555C99.8674 17.1279 100.065 16.6987 100.051 16.168C100.038 15.6884 99.8899 15.3145 99.6069 15.0464C99.3239 14.7783 98.9252 14.5746 98.4108 14.4353L96.2963 13.8491C95.4628 13.6163 94.8191 13.2303 94.3654 12.691C93.9117 12.1518 93.6752 11.525 93.6559 10.8106C93.6391 10.1881 93.7723 9.63815 94.0556 9.16071C94.3488 8.67279 94.7571 8.28899 95.2806 8.00931C95.814 7.71915 96.4226 7.56483 97.1064 7.54635C97.7901 7.52787 98.4109 7.63365 98.9686 7.86369C99.5365 8.09344 100.02 8.41229 100.419 8.82023C100.828 9.22788 101.127 9.6896 101.314 10.2054L100.043 10.7759C99.7912 10.1495 99.4107 9.67471 98.9015 9.35145C98.4026 9.02791 97.8214 8.87511 97.1581 8.89303C96.5458 8.90958 96.0551 9.08114 95.6861 9.40771C95.3167 9.72407 95.1392 10.1476 95.1536 10.6783C95.1646 11.0865 95.3073 11.4554 95.5818 11.785C95.8559 12.1044 96.2658 12.3435 96.8114 12.5024L98.7402 13.0171C100.572 13.5293 101.508 14.5303 101.548 16.0203C101.565 16.6428 101.417 17.1983 101.103 17.6868C100.8 18.175 100.366 18.5646 99.8018 18.8556C99.2477 19.1361 98.5981 19.2864 97.8531 19.3065Z" fill="white"/>
<path d="M117.798 21.1176C117.09 20.9601 116.472 20.6814 115.944 20.2814C115.416 19.8815 114.998 19.4119 114.689 18.8725C114.383 18.3232 114.203 17.7445 114.15 17.1366L115.537 16.8962C115.636 17.6714 115.912 18.3132 116.363 18.8216C116.817 19.32 117.403 19.6491 118.12 19.8088C118.778 19.9552 119.34 19.9233 119.805 19.713C120.282 19.4951 120.578 19.127 120.694 18.6088C120.798 18.1404 120.746 17.7418 120.536 17.4128C120.327 17.0839 119.99 16.7892 119.525 16.5288L117.617 15.4452C116.865 15.0165 116.335 14.4853 116.026 13.8518C115.718 13.2183 115.641 12.5528 115.796 11.8552C115.931 11.2474 116.195 10.7464 116.586 10.3523C116.989 9.95051 117.478 9.67772 118.054 9.53396C118.642 9.38246 119.27 9.38101 119.938 9.52962C120.605 9.67823 121.182 9.932 121.667 10.2909C122.161 10.6521 122.553 11.0791 122.84 11.5719C123.138 12.067 123.315 12.5875 123.371 13.1335L121.999 13.3771C121.908 12.7083 121.654 12.1551 121.239 11.7176C120.834 11.2823 120.308 10.9925 119.66 10.8483C119.062 10.7153 118.544 10.7621 118.107 10.989C117.672 11.2059 117.396 11.5734 117.281 12.0916C117.192 12.4902 117.241 12.8828 117.427 13.2693C117.615 13.6458 117.954 13.9776 118.445 14.2646L120.19 15.2335C121.842 16.1764 122.506 17.3753 122.182 18.8302C122.047 19.4381 121.767 19.9407 121.344 20.3381C120.931 20.7377 120.416 21.0099 119.798 21.1548C119.192 21.2919 118.525 21.2795 117.798 21.1176Z" fill="white"/>
<path d="M123.86 22.4775L127.341 11.6129L128.77 12.0708L125.289 22.9354L123.86 22.4775Z" fill="white"/>
<path d="M128.485 23.8538L133.086 13.414L134.235 13.9204L136.318 24.0421L139.714 16.3349L141.101 16.9462L136.501 27.386L135.352 26.8797L133.304 16.6396L129.858 24.459L128.485 23.8538Z" fill="white"/>
<path d="M143.678 31.7039C142.998 31.2709 142.446 30.7503 142.022 30.1419C141.613 29.5304 141.332 28.868 141.181 28.1547C141.044 27.4383 141.051 26.7046 141.202 25.9537C141.359 25.1942 141.664 24.457 142.119 23.7421C142.58 23.0186 143.118 22.4293 143.734 21.9744C144.35 21.5194 145.012 21.2023 145.719 21.0229C146.435 20.849 147.153 20.8224 147.875 20.9429C148.611 21.0603 149.32 21.3355 150 21.7684C150.663 22.1904 151.184 22.6848 151.561 23.2517C151.947 23.824 152.203 24.4105 152.329 25.011C152.464 25.6171 152.475 26.1804 152.361 26.7011L150.861 26.491C150.977 25.8145 150.902 25.1618 150.637 24.5331C150.377 23.8958 149.915 23.3661 149.252 22.9441C148.58 22.5167 147.88 22.2951 147.152 22.2795C146.432 22.2694 145.745 22.4554 145.091 22.8375C144.436 23.2197 143.868 23.7897 143.385 24.5477C142.909 25.2971 142.636 26.0492 142.567 26.804C142.498 27.5588 142.621 28.2599 142.935 28.9074C143.257 29.5604 143.755 30.1007 144.426 30.5281C145.09 30.9501 145.762 31.1482 146.444 31.1223C147.132 31.0878 147.757 30.8748 148.321 30.4832L149.147 31.7528C148.723 32.0762 148.208 32.3053 147.602 32.44C147.005 32.5802 146.365 32.5967 145.683 32.4895C145.01 32.3877 144.342 32.1258 143.678 31.7039Z" fill="white"/>
<path d="M149.934 35.7139L157.3 27.0013L162.972 31.7961L162.082 32.8487L157.556 29.0227L155.223 31.7827L159.515 35.4109L158.625 36.4634L154.333 32.8352L151.97 35.6302L156.496 39.4562L155.606 40.5087L149.934 35.7139Z" fill="white"/>
<path d="M163.365 48.631L164.203 48.0124L168.824 48.5209C169.722 48.6193 170.455 48.6931 171.024 48.7421C171.594 48.7912 172.065 48.7855 172.439 48.7249C172.814 48.6643 173.153 48.5218 173.456 48.2974C173.957 47.9274 174.234 47.4945 174.287 46.9987C174.339 46.503 174.187 46.0128 173.829 45.5283C173.465 45.0356 173.012 44.723 172.47 44.5904C171.936 44.4517 171.362 44.5078 170.747 44.7585L170.221 43.453C170.792 43.1958 171.365 43.0775 171.938 43.098C172.512 43.1185 173.055 43.2695 173.568 43.5509C174.08 43.8324 174.524 44.2276 174.9 44.7368C175.313 45.2952 175.566 45.8698 175.66 46.4605C175.762 47.0453 175.708 47.5992 175.497 48.1224C175.287 48.6457 174.928 49.0953 174.419 49.4714C174.082 49.7201 173.702 49.8929 173.279 49.9898C172.861 50.095 172.369 50.1414 171.801 50.1291C171.242 50.1107 170.571 50.0609 169.787 49.9796L165.65 49.5329L168.861 53.881L167.814 54.6543L163.365 48.631Z" fill="white"/>
<path d="M171.188 60.5235C170.754 59.7369 170.587 58.9258 170.685 58.0902C170.793 57.2496 171.14 56.4519 171.726 55.6971C172.322 54.9373 173.133 54.2739 174.161 53.7069C175.189 53.1398 176.179 52.8096 177.13 52.7163C178.09 52.618 178.947 52.7455 179.702 53.0988C180.461 53.461 181.058 54.0355 181.492 54.8221C181.931 55.6177 182.099 56.4288 181.995 57.2555C181.896 58.0911 181.549 58.8888 180.954 59.6485C180.368 60.4034 179.561 61.0643 178.533 61.6314C177.505 62.1985 176.511 62.5311 175.55 62.6294C174.59 62.7276 173.733 62.6001 172.978 62.2468C172.224 61.8935 171.627 61.3191 171.188 60.5235ZM172.408 59.8504C172.704 60.3868 173.122 60.7629 173.66 60.9787C174.208 61.1895 174.836 61.2395 175.544 61.1286C176.258 61.0266 177.012 60.7562 177.808 60.3173C178.603 59.8785 179.23 59.387 179.688 58.843C180.159 58.303 180.445 57.7432 180.545 57.1634C180.659 56.5876 180.568 56.0315 180.272 55.4952C179.981 54.9678 179.559 54.5942 179.007 54.3744C178.468 54.1586 177.842 54.1017 177.128 54.2036C176.429 54.3096 175.682 54.582 174.886 55.0209C174.099 55.4548 173.466 55.9443 172.985 56.4892C172.519 57.0381 172.228 57.6005 172.114 58.1762C172.015 58.756 172.113 59.3141 172.408 59.8504Z" fill="white"/>
<path d="M175.396 68.6307L184.734 64.7632L183.908 62.7683L185.11 62.2702L186.517 65.6657L175.977 70.0313L175.396 68.6307Z" fill="white"/>
<path d="M178.08 76.4928C177.912 75.925 177.852 75.3625 177.9 74.8053C177.958 74.2452 178.12 73.7291 178.385 73.2569C178.66 72.7818 179.026 72.3809 179.483 72.0542L180.329 73.0815C179.851 73.4462 179.529 73.9035 179.361 74.4534C179.206 75.0101 179.21 75.5626 179.372 76.1109C179.505 76.5612 179.725 76.9274 180.032 77.2093C180.339 77.4912 180.698 77.6779 181.108 77.7696C181.521 77.871 181.948 77.8566 182.389 77.7264C182.849 77.5904 183.225 77.3675 183.516 77.0577C183.811 76.7578 184.005 76.4075 184.1 76.007C184.204 75.6036 184.191 75.1816 184.061 74.741C183.928 74.2906 183.704 73.9098 183.388 73.5986C183.073 73.2873 182.734 73.0947 182.371 73.0209L182.278 71.787L188.517 70.8532L190.192 76.5218L188.944 76.8907L187.573 72.2501L184.237 72.741C184.516 72.9671 184.748 73.2286 184.932 73.5257C185.115 73.8227 185.26 74.1523 185.368 74.5146C185.579 75.2293 185.602 75.9036 185.438 76.5376C185.284 77.1686 184.978 77.7169 184.519 78.1825C184.061 78.648 183.494 78.9806 182.818 79.1803C182.133 79.3828 181.467 79.3987 180.82 79.2278C180.177 79.0668 179.609 78.7501 179.118 78.2777C178.64 77.8123 178.294 77.2173 178.08 76.4928Z" fill="white"/>
<path d="M180.981 88.4307L182.803 88.1907L182.997 89.6634L181.175 89.9034L180.981 88.4307Z" fill="white"/>
<path d="M89.6062 86.2581L118.773 86.2581M118.773 86.2581L118.773 115.425M118.773 86.2581L81.2728 123.758" stroke="white" stroke-width="3" stroke-linecap="round" stroke-linejoin="round"/>
</svg>
