<svg width="232" height="232" viewBox="0 0 232 232" fill="none" xmlns="http://www.w3.org/2000/svg">
<circle cx="116" cy="116" r="116" fill="#FF8A0A"/>
<path d="M200.194 120.188L212.133 121.668L211.511 126.684C211.379 127.752 210.991 128.561 210.348 129.111C209.704 129.671 208.906 129.892 207.955 129.774C206.929 129.647 206.184 129.142 205.718 128.26C205.328 128.787 204.864 129.158 204.327 129.373C203.789 129.599 203.221 129.675 202.623 129.601C201.522 129.465 200.701 129.005 200.158 128.222C199.615 127.439 199.419 126.438 199.57 125.22L200.194 120.188ZM207.034 122.63L206.611 126.044C206.54 126.621 206.648 127.106 206.935 127.5C207.233 127.895 207.644 128.125 208.168 128.189C208.702 128.256 209.135 128.13 209.467 127.814C209.81 127.498 210.017 127.052 210.089 126.475L210.512 123.061L207.034 122.63ZM201.441 121.937L201.004 125.463C200.918 126.157 201.036 126.736 201.359 127.199C201.681 127.662 202.163 127.933 202.804 128.013C203.434 128.091 203.967 127.945 204.404 127.576C204.84 127.207 205.101 126.676 205.187 125.981L205.624 122.455L201.441 121.937Z" fill="white"/>
<path d="M198.572 131.812L210.231 134.783L208.297 142.372L206.889 142.013L208.432 135.957L204.739 135.016L203.275 140.76L201.867 140.401L203.33 134.658L199.59 133.705L198.047 139.761L196.639 139.402L198.572 131.812Z" fill="white"/>
<path d="M194.271 145.395C194.55 144.684 194.941 144.085 195.444 143.6C195.946 143.115 196.504 142.756 197.116 142.522C197.738 142.292 198.37 142.199 199.012 142.242L199.037 143.727C198.213 143.704 197.5 143.887 196.896 144.275C196.303 144.666 195.865 145.223 195.582 145.944C195.322 146.606 195.264 147.196 195.408 147.715C195.557 148.248 195.892 148.616 196.413 148.821C196.884 149.006 197.308 149.016 197.685 148.852C198.062 148.687 198.424 148.384 198.771 147.942L200.21 146.13C200.779 145.417 201.419 144.951 202.129 144.732C202.84 144.514 203.546 144.542 204.247 144.817C204.858 145.057 205.338 145.413 205.685 145.884C206.038 146.37 206.242 146.924 206.298 147.548C206.36 148.185 206.26 148.839 205.996 149.511C205.733 150.182 205.374 150.741 204.922 151.188C204.465 151.645 203.956 151.983 203.396 152.203C202.832 152.432 202.26 152.532 201.682 152.502L201.652 151.033C202.364 151.046 202.981 150.872 203.505 150.511C204.024 150.16 204.412 149.658 204.667 149.007C204.903 148.405 204.939 147.858 204.774 147.366C204.618 146.877 204.28 146.53 203.759 146.326C203.358 146.168 202.941 146.155 202.508 146.286C202.085 146.421 201.685 146.72 201.306 147.185L200.012 148.845C198.761 150.413 197.404 150.91 195.941 150.335C195.329 150.095 194.851 149.723 194.506 149.217C194.157 148.722 193.957 148.14 193.907 147.473C193.862 146.819 193.984 146.127 194.271 145.395Z" fill="white"/>
<path d="M190.772 153.663L200.09 158.67L201.634 155.796L202.914 156.484L199.092 163.597L197.812 162.909L199.333 160.078L190.015 155.072L190.772 153.663Z" fill="white"/>
<path d="M181.098 168.135C181.633 167.474 182.244 166.957 182.932 166.586C183.622 166.23 184.349 166.015 185.115 165.942C185.882 165.883 186.65 165.978 187.418 166.226C188.196 166.481 188.931 166.889 189.626 167.451C190.33 168.019 190.883 168.653 191.286 169.353C191.689 170.053 191.943 170.784 192.046 171.546C192.143 172.317 192.085 173.073 191.873 173.815C191.662 174.573 191.29 175.282 190.755 175.943C190.234 176.588 189.654 177.074 189.015 177.402C188.369 177.738 187.724 177.937 187.08 177.997C186.429 178.066 185.837 178.01 185.305 177.829L185.704 176.283C186.399 176.485 187.092 176.484 187.782 176.281C188.481 176.084 189.091 175.664 189.612 175.019C190.14 174.366 190.456 173.659 190.559 172.898C190.655 172.145 190.542 171.403 190.22 170.672C189.898 169.94 189.368 169.277 188.631 168.681C187.903 168.092 187.147 167.717 186.365 167.555C185.582 167.393 184.833 167.437 184.117 167.689C183.394 167.949 182.769 168.406 182.241 169.059C181.72 169.704 181.432 170.385 181.378 171.102C181.332 171.827 181.481 172.508 181.824 173.145L180.395 173.859C180.107 173.377 179.928 172.81 179.859 172.159C179.783 171.516 179.842 170.844 180.036 170.142C180.223 169.449 180.577 168.78 181.098 168.135Z" fill="white"/>
<path d="M171.765 178.002C172.398 177.434 173.092 177.014 173.846 176.743C174.6 176.487 175.372 176.38 176.162 176.423C176.953 176.466 177.716 176.664 178.451 177.017C179.187 177.37 179.857 177.883 180.46 178.556C181.064 179.229 181.501 179.951 181.772 180.72C182.042 181.49 182.156 182.262 182.114 183.038C182.071 183.828 181.873 184.584 181.522 185.304C181.177 186.032 180.688 186.68 180.055 187.248C179.413 187.823 178.716 188.239 177.962 188.495C177.208 188.766 176.436 188.88 175.645 188.837C174.862 188.802 174.099 188.604 173.356 188.243C172.62 187.891 171.954 187.382 171.358 186.716C170.754 186.043 170.317 185.322 170.047 184.552C169.776 183.783 169.662 183.003 169.705 182.212C169.749 181.421 169.942 180.662 170.287 179.934C170.631 179.221 171.124 178.577 171.765 178.002ZM172.746 179.096C172.089 179.685 171.648 180.362 171.423 181.128C171.205 181.901 171.189 182.682 171.375 183.47C171.568 184.265 171.959 184.992 172.548 185.649C173.138 186.307 173.814 186.77 174.577 187.041C175.34 187.311 176.114 187.376 176.899 187.236C177.691 187.104 178.416 186.743 179.074 186.154C179.731 185.565 180.168 184.883 180.386 184.11C180.611 183.344 180.63 182.568 180.444 181.78C180.259 180.992 179.871 180.27 179.282 179.613C178.693 178.955 178.013 178.487 177.243 178.209C176.48 177.939 175.702 177.87 174.91 178.002C174.116 178.149 173.395 178.514 172.746 179.096Z" fill="white"/>
<path d="M165.326 183.71L171.858 193.813L170.746 194.532L160.621 190.502L165.444 197.961L164.102 198.829L157.569 188.726L158.681 188.007L168.89 192.136L163.997 184.57L165.326 183.71Z" fill="white"/>
<path d="M150.769 191.97C151.461 191.646 152.157 191.482 152.855 191.476C153.554 191.47 154.205 191.593 154.81 191.845C155.42 192.107 155.943 192.474 156.378 192.948L155.374 194.042C154.792 193.458 154.149 193.099 153.445 192.965C152.745 192.841 152.044 192.943 151.341 193.271C150.698 193.572 150.249 193.96 149.996 194.435C149.738 194.924 149.727 195.423 149.964 195.93C150.178 196.388 150.479 196.687 150.865 196.828C151.252 196.968 151.723 196.997 152.279 196.915L154.57 196.592C155.474 196.467 156.259 196.569 156.925 196.9C157.59 197.23 158.083 197.737 158.402 198.42C158.68 199.015 158.783 199.602 158.71 200.183C158.631 200.778 158.398 201.321 158.009 201.812C157.616 202.317 157.092 202.722 156.439 203.028C155.785 203.333 155.141 203.492 154.504 203.505C153.859 203.521 153.257 203.416 152.699 203.19C152.132 202.968 151.649 202.647 151.251 202.227L152.24 201.141C152.747 201.64 153.315 201.939 153.943 202.038C154.562 202.141 155.188 202.044 155.822 201.747C156.407 201.474 156.81 201.101 157.029 200.63C157.253 200.169 157.246 199.685 157.009 199.178C156.827 198.788 156.534 198.491 156.13 198.288C155.73 198.094 155.233 198.035 154.639 198.111L152.557 198.425C150.57 198.701 149.244 198.126 148.578 196.703C148.3 196.108 148.21 195.508 148.308 194.904C148.396 194.304 148.651 193.745 149.074 193.226C149.492 192.722 150.057 192.303 150.769 191.97Z" fill="white"/>
<path d="M140.481 196.013C141.314 195.753 142.103 195.698 142.849 195.849C143.595 195.999 144.243 196.322 144.792 196.816C145.344 197.32 145.742 197.963 145.986 198.744L148.362 206.359L146.836 206.836L144.469 199.251C144.305 198.727 144.047 198.295 143.692 197.954C143.331 197.627 142.914 197.413 142.443 197.312C141.961 197.214 141.453 197.249 140.919 197.415C140.384 197.582 139.952 197.841 139.622 198.192C139.281 198.547 139.061 198.96 138.96 199.431C138.851 199.916 138.879 200.42 139.043 200.944L141.41 208.529L139.883 209.005L137.507 201.39C137.263 200.609 137.225 199.854 137.392 199.125C137.563 198.406 137.912 197.773 138.44 197.225C138.958 196.68 139.638 196.276 140.481 196.013Z" fill="white"/>
<path d="M133.358 198.221L135.521 210.056L133.964 210.34L132.062 199.935L126.868 200.885L126.606 199.455L133.358 198.221Z" fill="white"/>
<path d="M122.176 199.914L122.95 210.463L126.204 210.225L126.31 211.674L118.257 212.265L118.151 210.816L121.356 210.58L120.581 200.031L122.176 199.914Z" fill="white"/>
<path d="M115.962 200.441L111.053 212.24L109.182 212.146L105.479 199.914L107.172 199.999L108.014 202.871L113.143 203.129L114.269 200.356L115.962 200.441ZM112.57 204.555L108.441 204.348L110.207 210.403L112.57 204.555Z" fill="white"/>
<path d="M100.947 199.221L99.124 209.64L102.337 210.202L102.087 211.634L94.1332 210.242L94.3837 208.811L97.5492 209.364L99.3718 198.945L100.947 199.221Z" fill="white"/>
<path d="M93.8219 197.782L90.8075 209.429L89.2754 209.033L92.2898 197.386L93.8219 197.782Z" fill="white"/>
<path d="M83.9386 194.493C84.7326 194.797 85.4224 195.224 86.0079 195.771C86.5795 196.325 87.0263 196.964 87.3483 197.687C87.6704 198.41 87.8421 199.179 87.8636 199.995C87.885 200.81 87.7337 201.64 87.4097 202.484C87.0857 203.329 86.6429 204.047 86.0814 204.638C85.5199 205.23 84.8844 205.684 84.1751 206C83.4518 206.322 82.6895 206.49 81.8879 206.506C81.0825 206.531 80.2828 206.391 79.4888 206.087C78.6847 205.778 77.9969 205.347 77.4253 204.793C76.8398 204.245 76.386 203.61 76.064 202.887C75.738 202.173 75.5663 201.404 75.5487 200.579C75.5273 199.763 75.6766 198.938 75.9968 198.104C76.3209 197.26 76.7636 196.542 77.3251 195.95C77.8867 195.358 78.529 194.902 79.2523 194.58C79.9755 194.257 80.7398 194.084 81.5452 194.058C82.3367 194.039 83.1345 194.184 83.9386 194.493ZM83.412 195.865C82.5878 195.548 81.7839 195.465 81.0002 195.614C80.2127 195.773 79.5108 196.114 78.8943 196.639C78.274 197.173 77.8057 197.853 77.4894 198.677C77.1731 199.501 77.0685 200.314 77.1757 201.117C77.283 201.919 77.578 202.637 78.0607 203.272C78.5396 203.918 79.1912 204.398 80.0154 204.715C80.8395 205.031 81.6454 205.11 82.4329 204.951C83.2166 204.802 83.9166 204.465 84.5331 203.94C85.1495 203.416 85.6159 202.742 85.9322 201.917C86.2485 201.093 86.355 200.275 86.2516 199.463C86.1444 198.66 85.8513 197.937 85.3724 197.292C84.8796 196.653 84.2261 196.177 83.412 195.865Z" fill="white"/>
<path d="M75.9655 191.388L69.9227 201.791L68.7777 201.126L67.7788 190.275L63.3178 197.955L61.9353 197.152L67.978 186.749L69.1231 187.414L70.071 198.385L74.597 190.593L75.9655 191.388Z" fill="white"/>
<path d="M54.4542 175.608C54.9986 176.144 55.395 176.739 55.6434 177.392C55.8917 178.045 56.003 178.699 55.9774 179.354C55.9441 180.016 55.7811 180.634 55.4884 181.207L54.114 180.646C54.4587 179.898 54.5715 179.17 54.4521 178.463C54.3252 177.763 53.9858 177.142 53.4337 176.597C52.9276 176.099 52.4079 175.813 51.8744 175.741C51.3258 175.669 50.855 175.832 50.462 176.231C50.1068 176.591 49.9307 176.977 49.9337 177.388C49.9367 177.799 50.0732 178.251 50.3433 178.744L51.4429 180.78C51.875 181.584 52.0519 182.355 51.9736 183.094C51.8952 183.833 51.5915 184.471 51.0625 185.008C50.6015 185.475 50.086 185.776 49.516 185.91C48.9308 186.043 48.3406 186.013 47.7454 185.82C47.135 185.626 46.5729 185.276 46.0592 184.77C45.5454 184.264 45.1722 183.714 44.9395 183.122C44.6992 182.523 44.5882 181.922 44.6067 181.321C44.6175 180.711 44.7504 180.147 45.0055 179.628L46.3684 180.177C46.0762 180.826 45.9933 181.463 46.1196 182.086C46.2383 182.702 46.5468 183.255 47.0452 183.747C47.5053 184.2 47.9943 184.448 48.5123 184.49C49.0227 184.539 49.4744 184.365 49.8673 183.966C50.1696 183.659 50.3458 183.281 50.3958 182.832C50.4383 182.39 50.3205 181.903 50.0426 181.372L49.0243 179.53C48.0751 177.763 48.1522 176.32 49.2555 175.2C49.7165 174.733 50.2473 174.439 50.8478 174.321C51.4407 174.195 52.0539 174.24 52.6873 174.456C53.3055 174.672 53.8945 175.056 54.4542 175.608Z" fill="white"/>
<path d="M49.6182 170.9L40.2081 178.396L35.3281 172.27L36.4649 171.365L40.3589 176.253L43.3398 173.878L39.6471 169.243L40.7839 168.337L44.4766 172.973L47.4954 170.568L43.6014 165.68L44.7382 164.774L49.6182 170.9Z" fill="white"/>
<path d="M43.4842 163.033L33.2401 169.342L31.013 165.725C30.5953 165.047 30.3567 164.372 30.2972 163.701C30.2378 163.029 30.3589 162.405 30.6605 161.827C30.9474 161.246 31.4163 160.755 32.0671 160.354C32.7913 159.908 33.523 159.71 34.2622 159.761C34.9922 159.817 35.6545 160.092 36.2493 160.585L38.937 155.649L39.9023 157.217L37.3467 161.844L38.7355 164.099L42.6544 161.686L43.4842 163.033ZM37.4979 164.861L36.0753 162.551C35.7027 161.946 35.2294 161.567 34.6552 161.415C34.0754 161.254 33.4922 161.354 32.9055 161.715C32.3096 162.082 31.9578 162.558 31.8501 163.143C31.7276 163.724 31.8526 164.317 32.2252 164.922L33.6478 167.232L37.4979 164.861Z" fill="white"/>
<path d="M36.5783 150.8L27.3537 159.661L26.6642 158.112L34.4533 150.791L23.8075 151.694L23.118 150.145L35.8691 149.206L36.5783 150.8Z" fill="white"/>
<path d="M33.2945 142.729L21.8796 146.529L21.3797 145.027L32.7946 141.227L33.2945 142.729Z" fill="white"/>
<path d="M30.6769 132.724C30.8554 133.556 30.8729 134.356 30.7295 135.125C30.5733 135.885 30.2833 136.586 29.8594 137.227C29.4227 137.86 28.8664 138.398 28.1906 138.841C27.5042 139.285 26.7242 139.601 25.8505 139.789C24.9663 139.978 24.1253 140.01 23.3275 139.884C22.5296 139.758 21.8017 139.496 21.1437 139.097C20.4834 138.689 19.9313 138.168 19.4875 137.537C19.0309 136.897 18.7134 136.162 18.5349 135.33C18.361 134.519 18.3472 133.763 18.4937 133.06C18.6378 132.346 18.8888 131.72 19.2465 131.18C19.602 130.631 20.0173 130.206 20.4925 129.905L21.4448 131.188C20.8509 131.601 20.416 132.141 20.1403 132.805C19.854 133.472 19.7978 134.211 19.9717 135.022C20.1479 135.843 20.4997 136.533 21.0269 137.091C21.5519 137.639 22.2002 138.017 22.9717 138.226C23.7432 138.435 24.5922 138.44 25.5185 138.241C26.4342 138.045 27.2011 137.693 27.819 137.186C28.437 136.679 28.8729 136.068 29.1268 135.353C29.3785 134.627 29.4163 133.854 29.2401 133.033C29.0661 132.222 28.7171 131.57 28.1928 131.077C27.6581 130.587 27.035 130.274 26.3237 130.141L26.6661 128.581C27.2225 128.659 27.7756 128.877 28.3254 129.232C28.8729 129.577 29.3588 130.045 29.783 130.637C30.205 131.218 30.503 131.914 30.6769 132.724Z" fill="white"/>
<path d="M29.0857 125.11L17.0907 126.037L16.4871 118.229L17.9361 118.117L18.4178 124.347L22.2176 124.054L21.7608 118.145L23.2099 118.033L23.6666 123.942L27.5147 123.644L27.0331 117.413L28.4821 117.301L29.0857 125.11Z" fill="white"/>
<path d="M28.9906 104.45L17.1166 102.513L18.3437 94.9903L19.7781 95.2243L18.8058 101.185L22.6469 101.812L23.5282 96.4086L24.9627 96.6426L24.0814 102.046L29.2453 102.888L28.9906 104.45Z" fill="white"/>
<path d="M32.4089 89.3981C32.1555 90.21 31.7743 90.9256 31.2652 91.5449C30.7491 92.1507 30.1405 92.6374 29.4393 93.0051C28.7381 93.3727 27.9813 93.5933 27.1689 93.6668C26.3565 93.7404 25.5187 93.6424 24.6554 93.373C23.7921 93.1036 23.0473 92.7077 22.4209 92.1851C21.7945 91.6626 21.3011 91.0575 20.9405 90.3698C20.5729 89.6686 20.3558 88.9186 20.2893 88.1196C20.2126 87.3175 20.3009 86.5105 20.5543 85.6986C20.8109 84.8765 21.1972 84.1625 21.7133 83.5566C22.2224 82.9373 22.8275 82.4438 23.5287 82.0762C24.2196 81.7054 24.9763 81.4848 25.799 81.4145C26.6114 81.3409 27.4441 81.4373 28.2971 81.7034C29.1604 81.9728 29.9052 82.3688 30.5316 82.8913C31.158 83.4139 31.655 84.0257 32.0226 84.7269C32.3903 85.4281 32.6125 86.1797 32.6892 86.9819C32.7589 87.7705 32.6654 88.5759 32.4089 89.3981ZM31.006 88.9603C31.269 88.1176 31.3011 87.3099 31.1024 86.5374C30.8933 85.7617 30.5074 85.083 29.9446 84.5013C29.3715 83.9165 28.6636 83.4926 27.8209 83.2296C26.9781 82.9666 26.1599 82.9143 25.3662 83.0726C24.5724 83.2309 23.8741 83.5712 23.2713 84.0936C22.6581 84.6127 22.2201 85.2937 21.9571 86.1364C21.6941 86.9791 21.6671 87.7884 21.8762 88.5641C22.0749 89.3366 22.4557 90.0137 23.0185 90.5954C23.5814 91.177 24.2841 91.5993 25.1269 91.8623C25.9696 92.1253 26.7929 92.1792 27.597 92.0241C28.3907 91.8658 29.0941 91.5271 29.7073 91.0079C30.3133 90.4753 30.7463 89.7927 31.006 88.9603Z" fill="white"/>
<path d="M34.9592 81.3657L24.1185 76.1484L25.9604 72.3214C26.3058 71.6035 26.7451 71.0383 27.2782 70.6258C27.8113 70.2133 28.4024 69.9781 29.0516 69.9201C29.6957 69.8478 30.3622 69.9774 31.0509 70.3089C31.8173 70.6777 32.3787 71.1869 32.7352 71.8363C33.082 72.4812 33.2082 73.1871 33.1139 73.9541L38.7199 73.5517L37.9215 75.2106L32.6469 75.5574L31.4984 77.9438L35.6455 79.9397L34.9592 81.3657ZM30.1888 77.3135L31.3653 74.8689C31.6735 74.2287 31.7366 73.6258 31.5547 73.0604C31.3775 72.4852 30.9785 72.0482 30.3576 71.7494C29.7271 71.446 29.1366 71.4067 28.5863 71.6317C28.0309 71.8423 27.5991 72.2678 27.291 72.908L26.1144 75.3526L30.1888 77.3135Z" fill="white"/>
<path d="M45.314 63.1145L36.098 55.381L39.3471 51.5091C40.0392 50.6844 40.8044 50.2162 41.6429 50.1047C42.4883 49.9849 43.278 50.233 44.0119 50.8489C44.8037 51.5132 45.1551 52.3422 45.0662 53.3357C45.6804 53.1062 46.2713 53.0469 46.8388 53.1577C47.4133 53.2603 47.9314 53.5054 48.3932 53.8929C49.2427 54.6057 49.6823 55.4384 49.7121 56.391C49.742 57.3436 49.3624 58.29 48.5735 59.2302L45.314 63.1145ZM40.9007 57.3451L43.1117 54.7102C43.4854 54.2649 43.6586 53.7989 43.6314 53.3122C43.5958 52.8186 43.376 52.4023 42.9719 52.0632C42.5596 51.7171 42.1279 51.5868 41.6768 51.6721C41.2175 51.7505 40.801 52.0123 40.4273 52.4577L38.2163 55.0926L40.9007 57.3451ZM45.218 60.9679L47.5017 58.2464C47.9515 57.7104 48.167 57.1604 48.1483 56.5966C48.1295 56.0327 47.8728 55.5432 47.3779 55.128C46.8914 54.7197 46.3647 54.5518 45.7979 54.6243C45.2311 54.6968 44.7228 55.0011 44.273 55.5371L41.9893 58.2586L45.218 60.9679Z" fill="white"/>
<path d="M56.1445 51.5496C55.4995 52.1364 54.8069 52.519 54.0669 52.6974C53.3268 52.8758 52.6037 52.8569 51.8975 52.6406C51.1841 52.4164 50.5521 52.0016 50.0015 51.3964L44.6333 45.4954L45.8159 44.4195L51.1624 50.2967C51.5319 50.7028 51.9491 50.9855 52.4141 51.1446C52.8798 51.2886 53.3476 51.3069 53.8176 51.1995C54.2955 51.085 54.7415 50.8393 55.1556 50.4626C55.5697 50.0859 55.8524 49.6686 56.0036 49.2109C56.1628 48.7459 56.1887 48.2784 56.0813 47.8085C55.9747 47.3233 55.7367 46.8776 55.3672 46.4715L50.0206 40.5944L51.2032 39.5185L56.5715 45.4196C57.1221 46.0248 57.4754 46.6931 57.6313 47.4245C57.78 48.1479 57.7307 48.8696 57.4832 49.5895C57.2438 50.3022 56.7975 50.9556 56.1445 51.5496Z" fill="white"/>
<path d="M65.0718 44.3188C64.4439 44.7547 63.7862 45.0345 63.0987 45.158C62.4112 45.2816 61.748 45.2703 61.1091 45.1241C60.4641 44.9691 59.887 44.6948 59.3778 44.3013L60.1829 43.0541C60.8549 43.5312 61.5494 43.7763 62.2664 43.7896C62.9773 43.794 63.651 43.5752 64.2877 43.1331C64.8714 42.7278 65.2479 42.2697 65.4174 41.7588C65.5896 41.2329 65.5161 40.74 65.1968 40.2802C64.9082 39.8646 64.5616 39.6203 64.157 39.5473C63.7525 39.4744 63.2831 39.5251 62.7488 39.6995L60.5447 40.4043C59.675 40.6806 58.8841 40.712 58.1723 40.4985C57.4605 40.285 56.8896 39.8688 56.4598 39.2498C56.0852 38.7104 55.8849 38.1483 55.8589 37.5634C55.8356 36.9636 55.974 36.389 56.2742 35.8398C56.5771 35.2756 57.0247 34.7878 57.6172 34.3764C58.2097 33.965 58.8184 33.6996 59.4433 33.5802C60.077 33.4547 60.6878 33.4566 61.2756 33.5858C61.8722 33.7089 62.4023 33.9437 62.8658 34.2903L62.0739 35.5283C61.4898 35.1212 60.8798 34.9223 60.2439 34.9313C59.6168 34.9343 59.0158 35.1353 58.441 35.5344C57.9105 35.9029 57.5768 36.3377 57.4399 36.8391C57.297 37.3316 57.3851 37.8077 57.7044 38.2676C57.9501 38.6213 58.2892 38.8642 58.7217 38.9964C59.1481 39.1197 59.6479 39.0938 60.2209 38.9187L62.2198 38.2581C64.1315 37.6514 65.5357 37.9936 66.4322 39.2847C66.8068 39.8241 66.9969 40.3999 67.0025 41.012C67.017 41.618 66.8595 42.2123 66.5301 42.7949C66.2034 43.3625 65.7173 43.8705 65.0718 44.3188Z" fill="white"/>
<path d="M71.1988 40.1416L65.3102 29.6504L66.6902 28.8758L72.5789 39.367L71.1988 40.1416Z" fill="white"/>
<path d="M74.8899 37.9111L70.0795 26.8839L71.2932 26.3544L80.632 31.9707L77.0807 23.8297L78.5461 23.1905L83.3565 34.2178L82.1427 34.7473L72.7375 29.019L76.3404 37.2784L74.8899 37.9111Z" fill="white"/>
<path d="M86.9841 32.881L83.7055 21.3055L91.2412 19.1711L91.6373 20.5695L85.6243 22.2726L86.6629 25.9395L92.3651 24.3243L92.7612 25.7227L87.0589 27.3378L88.1107 31.0513L94.1238 29.3482L94.5199 30.7466L86.9841 32.881Z" fill="white"/>
<path d="M100.653 29.8083C99.8978 29.9255 99.184 29.8893 98.5117 29.6995C97.8395 29.5097 97.2481 29.2093 96.7376 28.7983C96.2254 28.3766 95.8266 27.8775 95.5409 27.3008L96.8106 26.5317C97.2061 27.2547 97.7233 27.7791 98.3622 28.1048C98.9994 28.4199 99.701 28.5179 100.467 28.399C101.169 28.29 101.708 28.0429 102.084 27.6577C102.469 27.2602 102.619 26.7848 102.533 26.2316C102.455 25.7316 102.25 25.3603 101.919 25.1177C101.587 24.875 101.143 24.7152 100.586 24.6382L98.2956 24.3074C97.3926 24.1752 96.6678 23.8574 96.1212 23.3539C95.5745 22.8505 95.2434 22.2264 95.1278 21.4817C95.027 20.8328 95.0929 20.2397 95.3255 19.7024C95.567 19.1529 95.9429 18.6969 96.4531 18.3344C96.9724 17.9596 97.5884 17.7169 98.3012 17.6062C99.0139 17.4956 99.6774 17.5233 100.291 17.6894C100.916 17.8539 101.465 18.1229 101.937 18.4963C102.419 18.868 102.793 19.3112 103.058 19.8256L101.804 20.5923C101.457 19.9707 100.996 19.5248 100.42 19.2547C99.8549 18.9829 99.2266 18.9007 98.5351 19.008C97.8968 19.1071 97.4065 19.3521 97.064 19.743C96.72 20.1233 96.5909 20.59 96.6768 21.1432C96.7428 21.5687 96.9414 21.9356 97.2725 22.2437C97.602 22.5412 98.0626 22.7366 98.6546 22.8299L100.741 23.1107C102.725 23.4018 103.838 24.3239 104.079 25.8772C104.18 26.5261 104.099 27.127 103.836 27.6798C103.584 28.2311 103.182 28.6965 102.631 29.0762C102.089 29.4437 101.43 29.6877 100.653 29.8083Z" fill="white"/>
<path d="M111.626 28.7597C110.862 28.7804 110.158 28.654 109.516 28.3806C108.873 28.1072 108.324 27.7343 107.87 27.2619C107.415 26.7788 107.083 26.2331 106.872 25.6249L108.229 25.0229C108.53 25.7901 108.977 26.3758 109.569 26.7798C110.161 27.1731 110.845 27.3592 111.62 27.3383C112.33 27.3191 112.896 27.1422 113.318 26.8077C113.75 26.4622 113.959 26.0096 113.943 25.45C113.93 24.9442 113.774 24.5499 113.475 24.2672C113.177 23.9845 112.756 23.7697 112.214 23.6228L109.984 23.0046C109.105 22.7591 108.426 22.352 107.948 21.7834C107.469 21.2147 107.22 20.5537 107.2 19.8004C107.182 19.1439 107.322 18.564 107.621 18.0605C107.93 17.5459 108.361 17.1412 108.913 16.8463C109.476 16.5403 110.117 16.3775 110.838 16.3581C111.559 16.3386 112.214 16.4501 112.802 16.6927C113.401 16.935 113.911 17.2712 114.332 17.7014C114.763 18.1313 115.078 18.6182 115.276 19.1621L113.935 19.7638C113.67 19.1032 113.268 18.6025 112.731 18.2616C112.205 17.9204 111.592 17.7593 110.893 17.7782C110.247 17.7957 109.73 17.9766 109.341 18.3209C108.951 18.6546 108.764 19.1012 108.779 19.6608C108.791 20.0913 108.941 20.4803 109.231 20.8279C109.52 21.1647 109.952 21.4169 110.527 21.5844L112.561 22.1272C114.493 22.6673 115.48 23.723 115.522 25.2942C115.54 25.9507 115.384 26.5365 115.053 27.0516C114.733 27.5665 114.276 27.9773 113.681 28.2842C113.096 28.58 112.411 28.7385 111.626 28.7597Z" fill="white"/>
<path d="M132.667 30.6693C131.921 30.5032 131.27 30.2093 130.713 29.7876C130.156 29.3659 129.715 28.8706 129.389 28.3018C129.066 27.7225 128.876 27.1123 128.82 26.4712L130.283 26.2177C130.388 27.0352 130.678 27.712 131.155 28.2481C131.633 28.7737 132.251 29.1208 133.008 29.2892C133.701 29.4435 134.293 29.4099 134.784 29.1882C135.287 28.9583 135.6 28.5702 135.721 28.0237C135.831 27.5298 135.776 27.1094 135.555 26.7625C135.335 26.4156 134.979 26.1049 134.489 25.8303L132.477 24.6876C131.684 24.2354 131.125 23.6753 130.799 23.0073C130.474 22.3392 130.393 21.6374 130.556 20.9018C130.699 20.2607 130.977 19.7325 131.389 19.3169C131.814 18.8931 132.33 18.6055 132.938 18.4539C133.558 18.2941 134.22 18.2926 134.924 18.4493C135.628 18.606 136.236 18.8736 136.747 19.2521C137.269 19.633 137.682 20.0833 137.985 20.603C138.299 21.1251 138.486 21.674 138.545 22.2497L137.098 22.5067C137.001 21.8014 136.734 21.218 136.296 20.7566C135.869 20.2975 135.314 19.992 134.631 19.84C134 19.6996 133.455 19.7491 132.993 19.9883C132.534 20.217 132.244 20.6046 132.122 21.151C132.029 21.5714 132.08 21.9854 132.276 22.393C132.474 22.79 132.832 23.1399 133.349 23.4425L135.19 24.4643C136.932 25.4586 137.632 26.7229 137.291 28.2572C137.148 28.8982 136.853 29.4283 136.407 29.8473C135.971 30.2687 135.428 30.5558 134.776 30.7086C134.137 30.8531 133.434 30.8401 132.667 30.6693Z" fill="white"/>
<path d="M139.063 32.1044L142.734 20.6472L144.241 21.13L140.57 32.5872L139.063 32.1044Z" fill="white"/>
<path d="M143.945 33.5571L148.797 22.5478L150.008 23.0818L152.205 33.7557L155.786 25.628L157.249 26.2727L152.398 37.282L151.186 36.748L149.027 25.9494L145.393 34.1953L143.945 33.5571Z" fill="white"/>
<path d="M159.971 41.8385C159.253 41.3819 158.671 40.8328 158.225 40.1913C157.793 39.5465 157.497 38.8479 157.338 38.0957C157.193 37.3402 157.2 36.5665 157.36 35.7747C157.525 34.9737 157.847 34.1963 158.327 33.4424C158.812 32.6794 159.38 32.0581 160.03 31.5783C160.68 31.0985 161.377 30.764 162.123 30.5749C162.878 30.3916 163.636 30.3634 164.397 30.4905C165.173 30.6143 165.92 30.9045 166.637 31.3611C167.337 31.8061 167.886 32.3275 168.284 32.9253C168.691 33.5288 168.961 34.1473 169.094 34.7806C169.236 35.4196 169.247 36.0137 169.127 36.5628L167.546 36.3412C167.668 35.6278 167.589 34.9396 167.309 34.2766C167.035 33.6045 166.548 33.0459 165.849 32.6009C165.14 32.1501 164.402 31.9165 163.634 31.9001C162.875 31.8894 162.151 32.0855 161.46 32.4885C160.77 32.8915 160.171 33.4927 159.662 34.292C159.159 35.0822 158.872 35.8753 158.799 36.6713C158.726 37.4673 158.856 38.2067 159.187 38.8895C159.527 39.5781 160.051 40.1478 160.76 40.5986C161.459 41.0436 162.169 41.2525 162.888 41.2252C163.613 41.1888 164.272 40.9642 164.867 40.5513L165.738 41.8901C165.291 42.2311 164.748 42.4727 164.109 42.6148C163.479 42.7626 162.805 42.78 162.085 42.6669C161.375 42.5596 160.67 42.2835 159.971 41.8385Z" fill="white"/>
<path d="M166.573 46.0707L174.34 36.8829L180.321 41.9392L179.383 43.0492L174.61 39.0145L172.15 41.925L176.676 45.7512L175.737 46.8611L171.211 43.035L168.72 45.9824L173.492 50.0171L172.554 51.127L166.573 46.0707Z" fill="white"/>
<path d="M180.74 59.6975L181.624 59.0451L186.497 59.5813C187.444 59.6851 188.217 59.7629 188.817 59.8146C189.418 59.8664 189.915 59.8603 190.31 59.7965C190.704 59.7326 191.062 59.5823 191.382 59.3457C191.91 58.9555 192.202 58.499 192.258 57.9762C192.313 57.4533 192.152 56.9365 191.775 56.4255C191.391 55.906 190.913 55.5763 190.342 55.4364C189.779 55.2902 189.173 55.3493 188.525 55.6137L187.97 54.237C188.573 53.9658 189.177 53.841 189.781 53.8626C190.386 53.8843 190.959 54.0435 191.499 54.3403C192.04 54.6371 192.508 55.0539 192.905 55.5908C193.34 56.1797 193.607 56.7856 193.706 57.4086C193.813 58.0252 193.756 58.6094 193.535 59.1612C193.313 59.7129 192.934 60.1871 192.397 60.5837C192.042 60.8459 191.641 61.0282 191.195 61.1304C190.755 61.2413 190.235 61.2903 189.637 61.2773C189.047 61.2579 188.339 61.2054 187.513 61.1197L183.149 60.6485L186.536 65.2338L185.432 66.0493L180.74 59.6975Z" fill="white"/>
<path d="M188.994 72.2428C188.536 71.4132 188.359 70.5578 188.463 69.6767C188.577 68.7903 188.943 67.9491 189.561 67.1531C190.189 66.3519 191.045 65.6523 192.129 65.0543C193.213 64.4563 194.257 64.108 195.26 64.0096C196.272 63.906 197.176 64.0405 197.972 64.413C198.773 64.795 199.402 65.4008 199.86 66.2303C200.322 67.0693 200.499 67.9247 200.39 68.7965C200.286 69.6777 199.92 70.5188 199.292 71.32C198.674 72.116 197.823 72.813 196.739 73.411C195.655 74.009 194.606 74.3599 193.594 74.4635C192.581 74.5671 191.677 74.4326 190.881 74.0601C190.086 73.6875 189.457 73.0817 188.994 72.2428ZM190.281 71.533C190.593 72.0986 191.033 72.4951 191.601 72.7227C192.178 72.9451 192.841 72.9978 193.588 72.8808C194.34 72.7733 195.135 72.4881 195.974 72.0253C196.813 71.5625 197.474 71.0443 197.957 70.4706C198.454 69.9012 198.756 69.3107 198.861 68.6993C198.981 68.0921 198.885 67.5058 198.573 66.9402C198.266 66.384 197.821 65.99 197.239 65.7582C196.67 65.5306 196.01 65.4706 195.258 65.5781C194.52 65.6899 193.732 65.9772 192.893 66.44C192.064 66.8976 191.396 67.4137 190.889 67.9884C190.397 68.5672 190.091 69.1603 189.971 69.7674C189.865 70.3788 189.968 70.9674 190.281 71.533Z" fill="white"/>
<path d="M193.433 80.7961L203.28 76.7176L202.409 74.6139L203.677 74.0887L205.16 77.6694L194.045 82.2731L193.433 80.7961Z" fill="white"/>
<path d="M196.265 89.0914C196.088 88.4926 196.025 87.8994 196.076 87.3118C196.137 86.7212 196.307 86.1769 196.587 85.679C196.876 85.178 197.262 84.7552 197.744 84.4107L198.637 85.494C198.133 85.8787 197.793 86.3609 197.616 86.9407C197.453 87.5278 197.457 88.1105 197.628 88.6886C197.768 89.1636 198 89.5497 198.324 89.8469C198.647 90.1442 199.025 90.3412 199.458 90.4378C199.894 90.5448 200.344 90.5296 200.809 90.3923C201.294 90.2489 201.69 90.0138 201.998 89.6872C202.308 89.3708 202.514 89.0015 202.613 88.5791C202.723 88.1537 202.71 87.7086 202.572 87.244C202.432 86.7691 202.195 86.3675 201.863 86.0393C201.53 85.711 201.172 85.508 200.79 85.4301L200.692 84.1289L207.271 83.1442L209.038 89.122L207.722 89.511L206.275 84.6173L202.757 85.135C203.052 85.3734 203.297 85.6492 203.49 85.9624C203.684 86.2757 203.837 86.6233 203.95 87.0053C204.173 87.759 204.198 88.4701 204.025 89.1386C203.862 89.8041 203.539 90.3823 203.056 90.8732C202.572 91.3642 201.974 91.7149 201.262 91.9254C200.539 92.139 199.837 92.1558 199.155 91.9756C198.476 91.8058 197.878 91.4718 197.36 90.9737C196.856 90.4828 196.491 89.8554 196.265 89.0914Z" fill="white"/>
<path d="M199.325 101.685L201.247 101.432L201.451 102.985L199.53 103.238L199.325 101.685Z" fill="white"/>
<path d="M100.261 93.6152L131.197 93.6152M131.197 93.6152L131.197 124.551M131.197 93.6152L91.4221 133.39" stroke="white" stroke-width="3.16364" stroke-linecap="round" stroke-linejoin="round"/>
</svg>
