<svg width="119" height="108" viewBox="0 0 119 108" fill="none" xmlns="http://www.w3.org/2000/svg">
<path d="M28.0541 80.2924C39.6929 91.9012 54.1394 100.287 69.9799 104.63C85.8203 108.973 102.512 109.123 118.421 105.066L105.489 56.8057L50.5449 71.528C48.6386 71.9783 46.6484 71.9326 44.7639 71.3952C42.8794 70.8577 41.1631 69.8464 39.7784 68.4575C38.3937 67.0685 37.3866 65.3481 36.853 63.46C36.3193 61.5718 36.2769 59.5787 36.7297 57.6704L48.4905 12.8528L1.15293 0.298955C-0.825139 14.8019 0.57392 29.5694 5.2407 43.4465C9.90747 57.3237 17.7155 69.9343 28.0541 80.2924Z" fill="#FF8A0A"/>
</svg>
