<svg width="465" height="233" viewBox="0 0 465 233" fill="none" xmlns="http://www.w3.org/2000/svg">
<path opacity="0.1" d="M310.332 42.7302C263.147 15.569 209.742 1.12429 155.344 0.810047C100.945 0.495803 47.4178 14.3228 0.00023784 40.9376L82.7393 184.246L245.894 90.0483C251.607 86.9734 258.013 85.4136 264.502 85.5176C270.992 85.6215 277.349 87.3857 282.97 90.6422C288.59 93.8987 293.287 98.5392 296.613 104.122C299.938 109.705 301.783 116.045 301.97 122.538L302.763 275.998L464.964 275.581C458.86 227.488 441.726 181.444 414.9 141.05C388.075 100.655 352.286 67.0049 310.332 42.7302Z" fill="white"/>
</svg>
