<svg width="338" height="254" viewBox="0 0 338 254" fill="none" xmlns="http://www.w3.org/2000/svg">
<g opacity="0.1">
<path d="M144.282 149.91C157.221 127.306 164.782 102.026 166.379 76.0298C167.976 50.0333 163.567 24.0181 153.492 0L77.7692 43.7963L118.7 115.426C120.497 118.537 121.442 122.066 121.442 125.659C121.442 129.251 120.497 132.78 118.7 135.891C116.932 138.955 114.4 141.508 111.352 143.301C108.303 145.095 104.841 146.067 101.305 146.124H0V235.047C29.3718 234.606 58.1224 226.524 83.4215 211.596C108.721 196.667 129.696 175.408 144.282 149.91Z" fill="white"/>
<path d="M179.892 238.527C183.446 238.566 186.928 239.53 189.997 241.325C193.065 243.119 195.613 245.681 197.39 248.76L258.07 353.85L334.202 309.849C320.996 279.95 299.385 254.532 271.998 236.689C244.611 218.847 212.629 209.347 179.943 209.347C147.256 209.347 115.274 218.847 87.8876 236.689C60.5009 254.532 38.8898 279.95 25.6835 309.849L102.327 353.646L163.008 248.555C164.711 245.563 167.163 243.065 170.123 241.307C173.083 239.549 176.449 238.591 179.892 238.527Z" fill="white"/>
<path d="M215.606 149.91C230.291 175.228 251.298 196.3 276.572 211.062C301.845 225.824 330.519 233.772 359.785 234.126V145.203H258.379C254.888 145.099 251.482 144.104 248.485 142.312C245.488 140.52 242.999 137.991 241.255 134.965C239.512 131.94 238.571 128.518 238.524 125.026C238.476 121.535 239.323 118.089 240.983 115.017L281.914 43.387L206.191 0C196.093 24.0212 191.689 50.0527 193.322 76.059C194.955 102.065 202.582 127.341 215.606 149.91Z" fill="white"/>
</g>
</svg>
