<svg width="235" height="238" viewBox="0 0 235 238" fill="none" xmlns="http://www.w3.org/2000/svg">
<path d="M129.13 55.1667C140.71 34.9363 147.477 12.3114 148.906 -10.9549C150.335 -34.2213 146.389 -57.5043 137.372 -79L69.6018 -39.8032L106.234 24.3038C107.842 27.0882 108.688 30.2467 108.688 33.4619C108.688 36.6771 107.842 39.8356 106.234 42.62C104.652 45.3618 102.386 47.6466 99.6574 49.2517C96.9288 50.8567 93.8308 51.7272 90.6655 51.7782H0V131.362C26.2871 130.968 52.0184 123.734 74.6605 110.374C97.3027 97.0133 116.075 77.9865 129.13 55.1667Z" fill="#FF8A0A"/>
<path d="M161 134.476C164.181 134.511 167.298 135.374 170.044 136.98C172.79 138.586 175.07 140.879 176.661 143.634L230.968 237.688L299.105 198.308C287.285 171.549 267.944 148.801 243.433 132.832C218.923 116.863 190.3 108.361 161.046 108.361C131.792 108.361 103.169 116.863 78.6586 132.832C54.148 148.801 34.8065 171.549 22.9871 198.308L91.5816 237.505L145.889 143.451C147.414 140.773 149.608 138.538 152.257 136.964C154.907 135.391 157.919 134.533 161 134.476Z" fill="#FF8A0A"/>
<path d="M192.962 55.1667C206.105 77.8259 224.907 96.6843 247.526 109.896C270.145 123.108 295.807 130.221 322 130.538V50.9539H231.243C228.119 50.861 225.071 49.9702 222.388 48.3663C219.706 46.7625 217.479 44.499 215.918 41.7911C214.358 39.0832 213.516 36.021 213.473 32.896C213.431 29.7709 214.188 26.6869 215.674 23.9374L252.307 -40.1695L184.537 -79C175.499 -57.5015 171.557 -34.2038 173.019 -10.9288C174.48 12.3462 181.306 34.9677 192.962 55.1667Z" fill="#FF8A0A"/>
</svg>
