<svg width="210" height="39" viewBox="0 0 210 39" fill="none" xmlns="http://www.w3.org/2000/svg">
<path d="M15.008 33.0672C10.9803 37.1036 4.15904 37.0875 2.25404 31.708C1.88107 30.6548 1.58286 29.5718 1.36353 28.4668C0.468017 23.955 0.927628 19.2784 2.68425 15.0284C4.44086 10.7785 7.41559 7.14594 11.2323 4.59023C15.049 2.03452 19.5362 0.67041 24.1264 0.67041C28.7167 0.67041 33.2039 2.03452 37.0205 4.59023C40.8372 7.14594 43.8119 10.7785 45.5685 15.0285C47.3251 19.2784 47.7847 23.955 46.8892 28.4668C46.6699 29.5718 46.3717 30.6548 45.9986 31.708C44.0936 37.0875 37.2724 37.1036 33.2447 33.0672L27.0275 26.8366C26.4335 26.2413 26.4948 25.2596 26.6587 24.434C26.7583 23.9321 26.7071 23.4119 26.5117 22.939C26.3163 22.4662 25.9854 22.0621 25.5608 21.7778C25.1362 21.4936 24.6371 21.3418 24.1264 21.3418C23.6158 21.3418 23.1166 21.4936 22.692 21.7778C22.2673 22.0621 21.9364 22.4662 21.741 22.939C21.5456 23.4119 21.4944 23.9321 21.5941 24.434C21.758 25.2596 21.8192 26.2413 21.2252 26.8366L15.008 33.0672Z" fill="#E3E3E3"/>
<path d="M66.2181 27.483H72.4566V31.1673H61.4557V11.574H66.2181V27.483Z" fill="#E3E3E3"/>
<path d="M80.9664 31.3906C79.4439 31.3906 78.0699 31.065 76.8444 30.4138C75.6377 29.7625 74.6814 28.8322 73.9759 27.6227C73.289 26.4132 72.9454 24.9991 72.9454 23.3802C72.9454 21.7801 73.2981 20.3752 74.0037 19.1657C74.7093 17.9377 75.6748 16.998 76.9001 16.3468C78.1256 15.6956 79.4996 15.3699 81.0221 15.3699C82.5446 15.3699 83.9186 15.6956 85.1439 16.3468C86.3694 16.998 87.3349 17.9377 88.0404 19.1657C88.7459 20.3752 89.0988 21.7801 89.0988 23.3802C89.0988 24.9804 88.7366 26.3946 88.0126 27.6227C87.3071 28.8322 86.3323 29.7625 85.0882 30.4138C83.8629 31.065 82.4889 31.3906 80.9664 31.3906ZM80.9664 27.2598C81.8761 27.2598 82.6467 26.925 83.278 26.2551C83.9279 25.5852 84.2528 24.627 84.2528 23.3802C84.2528 22.1336 83.937 21.1754 83.3058 20.5055C82.6931 19.8356 81.9318 19.5006 81.0221 19.5006C80.0937 19.5006 79.3232 19.8356 78.7105 20.5055C78.0977 21.1567 77.7914 22.1149 77.7914 23.3802C77.7914 24.627 78.0885 25.5852 78.6827 26.2551C79.2954 26.925 80.0567 27.2598 80.9664 27.2598Z" fill="#E3E3E3"/>
<path d="M96.693 15.3699C97.7885 15.3699 98.7447 15.5932 99.5617 16.0398C100.397 16.4863 101.038 17.0725 101.483 17.7981V15.5932H106.246V31.1393C106.246 32.5721 105.958 33.8654 105.382 35.0189C104.825 36.1912 103.962 37.1215 102.792 37.81C101.641 38.4985 100.202 38.8428 98.4755 38.8428C96.1732 38.8428 94.3072 38.2939 92.8775 37.196C91.4479 36.1167 90.6308 34.6468 90.4266 32.7861H95.1334C95.2819 33.3815 95.6348 33.8467 96.1918 34.1817C96.7487 34.5351 97.4358 34.7119 98.2527 34.7119C99.2368 34.7119 100.016 34.4235 100.592 33.8467C101.186 33.2885 101.483 32.3861 101.483 31.1393V28.9345C101.019 29.6601 100.379 30.2556 99.5617 30.7207C98.7447 31.1673 97.7885 31.3906 96.693 31.3906C95.4119 31.3906 94.2515 31.065 93.2117 30.4138C92.1719 29.7439 91.3457 28.8042 90.7331 27.5947C90.139 26.3667 89.8418 24.9526 89.8418 23.3524C89.8418 21.7521 90.139 20.3473 90.7331 19.1378C91.3457 17.9284 92.1719 16.998 93.2117 16.3468C94.2515 15.6956 95.4119 15.3699 96.693 15.3699ZM101.483 23.3802C101.483 22.1894 101.149 21.2497 100.481 20.5613C99.8309 19.8729 99.0324 19.5286 98.0856 19.5286C97.1386 19.5286 96.331 19.8729 95.6625 20.5613C95.0127 21.2312 94.6878 22.1615 94.6878 23.3524C94.6878 24.5432 95.0127 25.4922 95.6625 26.1992C96.331 26.8876 97.1386 27.2319 98.0856 27.2319C99.0324 27.2319 99.8309 26.8876 100.481 26.1992C101.149 25.5107 101.483 24.5712 101.483 23.3802Z" fill="#E3E3E3"/>
<path d="M115.931 31.3906C114.408 31.3906 113.034 31.065 111.809 30.4138C110.602 29.7625 109.646 28.8322 108.94 27.6227C108.253 26.4132 107.91 24.9991 107.91 23.3802C107.91 21.7801 108.262 20.3752 108.968 19.1657C109.673 17.9377 110.639 16.998 111.864 16.3468C113.09 15.6956 114.464 15.3699 115.986 15.3699C117.509 15.3699 118.883 15.6956 120.108 16.3468C121.334 16.998 122.299 17.9377 123.005 19.1657C123.71 20.3752 124.063 21.7801 124.063 23.3802C124.063 24.9804 123.701 26.3946 122.977 27.6227C122.271 28.8322 121.296 29.7625 120.052 30.4138C118.827 31.065 117.453 31.3906 115.931 31.3906ZM115.931 27.2598C116.84 27.2598 117.611 26.925 118.242 26.2551C118.892 25.5852 119.217 24.627 119.217 23.3802C119.217 22.1336 118.901 21.1754 118.27 20.5055C117.657 19.8356 116.896 19.5006 115.986 19.5006C115.058 19.5006 114.287 19.8356 113.675 20.5055C113.062 21.1567 112.756 22.1149 112.756 23.3802C112.756 24.627 113.053 25.5852 113.647 26.2551C114.26 26.925 115.021 27.2598 115.931 27.2598Z" fill="#E3E3E3"/>
<path d="M128.148 13.9744C127.313 13.9744 126.626 13.7325 126.087 13.2487C125.567 12.7463 125.307 12.1323 125.307 11.4066C125.307 10.6624 125.567 10.0483 126.087 9.56453C126.626 9.06214 127.313 8.81094 128.148 8.81094C128.965 8.81094 129.634 9.06214 130.153 9.56453C130.692 10.0483 130.961 10.6624 130.961 11.4066C130.961 12.1323 130.692 12.7463 130.153 13.2487C129.634 13.7325 128.965 13.9744 128.148 13.9744ZM130.515 15.5932V31.1673H125.753V15.5932H130.515Z" fill="#E3E3E3"/>
<path d="M137.894 17.7981C138.358 17.0725 138.998 16.4863 139.816 16.0398C140.633 15.5932 141.589 15.3699 142.685 15.3699C143.966 15.3699 145.126 15.6956 146.166 16.3468C147.206 16.998 148.023 17.9284 148.616 19.1378C149.229 20.3473 149.536 21.7521 149.536 23.3524C149.536 24.9526 149.229 26.3667 148.616 27.5947C148.023 28.8042 147.206 29.7439 146.166 30.4138C145.126 31.065 143.966 31.3906 142.685 31.3906C141.607 31.3906 140.652 31.1673 139.816 30.7207C138.998 30.2741 138.358 29.6974 137.894 28.9903V38.5915H133.132V15.5932H137.894V17.7981ZM144.69 23.3524C144.69 22.1615 144.356 21.2312 143.687 20.5613C143.037 19.8729 142.23 19.5286 141.264 19.5286C140.317 19.5286 139.51 19.8729 138.841 20.5613C138.192 21.2497 137.867 22.1894 137.867 23.3802C137.867 24.5712 138.192 25.5107 138.841 26.1992C139.51 26.8877 140.317 27.2319 141.264 27.2319C142.211 27.2319 143.019 26.8877 143.687 26.1992C144.356 25.4922 144.69 24.5432 144.69 23.3524Z" fill="#E3E3E3"/>
<path d="M157.521 31.3906C156.166 31.3906 154.959 31.158 153.9 30.6929C152.842 30.2276 152.006 29.595 151.394 28.7949C150.782 27.9762 150.438 27.0644 150.363 26.0596H155.071C155.126 26.5992 155.377 27.0365 155.822 27.3714C156.268 27.7064 156.816 27.8738 157.466 27.8738C158.059 27.8738 158.514 27.7622 158.83 27.5389C159.164 27.2971 159.331 26.99 159.331 26.6179C159.331 26.1713 159.099 25.8456 158.635 25.641C158.171 25.4177 157.419 25.1759 156.379 24.9153C155.265 24.6548 154.337 24.385 153.594 24.1059C152.852 23.8083 152.211 23.3524 151.673 22.7383C151.134 22.1057 150.865 21.259 150.865 20.1985C150.865 19.3053 151.107 18.4959 151.589 17.7702C152.09 17.026 152.814 16.4398 153.761 16.0118C154.727 15.5839 155.869 15.3699 157.187 15.3699C159.136 15.3699 160.668 15.8537 161.782 16.8212C162.915 17.7889 163.565 19.0727 163.732 20.6729H159.331C159.257 20.1334 159.016 19.7054 158.607 19.389C158.217 19.0727 157.698 18.9146 157.048 18.9146C156.491 18.9146 156.063 19.0262 155.767 19.2495C155.47 19.4541 155.321 19.7426 155.321 20.1147C155.321 20.5613 155.553 20.8962 156.017 21.1195C156.5 21.3428 157.242 21.5661 158.246 21.7893C159.396 22.0871 160.333 22.3848 161.058 22.6825C161.782 22.9616 162.413 23.4267 162.951 24.0781C163.508 24.7107 163.797 25.5665 163.816 26.6458C163.816 27.5575 163.556 28.3762 163.035 29.102C162.535 29.809 161.801 30.3673 160.835 30.7765C159.888 31.186 158.784 31.3906 157.521 31.3906Z" fill="#E3E3E3"/>
<path d="M181.239 15.5933V31.1673H176.477V29.0462C175.994 29.7346 175.334 30.2928 174.499 30.7207C173.682 31.1302 172.773 31.3348 171.77 31.3348C170.581 31.3348 169.532 31.0743 168.623 30.5533C167.712 30.0137 167.007 29.2415 166.507 28.2368C166.005 27.232 165.754 26.0505 165.754 24.692V15.5933H170.488V24.0501C170.488 25.0921 170.758 25.9015 171.296 26.4784C171.834 27.0552 172.559 27.3436 173.469 27.3436C174.397 27.3436 175.131 27.0552 175.669 26.4784C176.207 25.9015 176.477 25.0921 176.477 24.0501V15.5933H181.239Z" fill="#E3E3E3"/>
<path d="M203.654 15.4257C205.584 15.4257 207.117 16.0118 208.249 17.1841C209.4 18.3563 209.976 19.9844 209.976 22.0684V31.1673H205.242V22.7104C205.242 21.7056 204.972 20.9334 204.434 20.3938C203.913 19.8355 203.19 19.5564 202.261 19.5564C201.333 19.5564 200.599 19.8355 200.061 20.3938C199.542 20.9334 199.282 21.7056 199.282 22.7104V31.1673H194.546V22.7104C194.546 21.7056 194.278 20.9334 193.739 20.3938C193.219 19.8355 192.495 19.5564 191.567 19.5564C190.639 19.5564 189.905 19.8355 189.367 20.3938C188.846 20.9334 188.587 21.7056 188.587 22.7104V31.1673H183.825V15.5932H188.587V17.5469C189.07 16.8957 189.701 16.3839 190.481 16.0118C191.26 15.621 192.143 15.4257 193.126 15.4257C194.297 15.4257 195.336 15.6769 196.245 16.1793C197.173 16.6817 197.898 17.3981 198.418 18.3284C198.956 17.4724 199.69 16.7747 200.618 16.2351C201.546 15.6955 202.559 15.4257 203.654 15.4257Z" fill="#E3E3E3"/>
</svg>
