<svg width="104" height="128" viewBox="0 0 104 128" fill="none" xmlns="http://www.w3.org/2000/svg">
<path d="M59.5316 43.8537C64.8702 34.5271 67.9899 24.0965 68.6488 13.3702C69.3078 2.64396 67.4883 -8.09003 63.3314 -18L32.0879 0.0705719L48.9763 29.6252C49.7174 30.9089 50.1076 32.3651 50.1076 33.8473C50.1076 35.3296 49.7174 36.7858 48.9763 38.0694C48.2468 39.3335 47.2021 40.3868 45.9442 41.1268C44.6862 41.8667 43.258 42.268 41.7987 42.2915H0V78.9815C12.1189 78.7996 23.9816 75.4648 34.4201 69.3053C44.8586 63.1459 53.5131 54.3741 59.5316 43.8537Z" fill="#FF8A0A"/>
<path d="M74.2241 80.4173C75.6905 80.4335 77.1275 80.8314 78.3934 81.5717C79.6594 82.312 80.7107 83.3693 81.4439 84.6394L106.481 128L137.893 109.845C132.444 97.5085 123.527 87.0212 112.228 79.6592C100.928 72.2971 87.7318 68.3777 74.2452 68.3777C60.7586 68.3777 47.5627 72.2971 36.2628 79.6592C24.9629 87.0212 16.0461 97.5085 10.5971 109.845L42.2206 127.916L67.2576 84.5549C67.9603 83.3204 68.972 82.2898 70.1934 81.5644C71.4148 80.839 72.8038 80.4437 74.2241 80.4173Z" fill="#FF8A0A"/>
<path d="M88.9598 43.8537C95.0191 54.3001 103.687 62.9942 114.115 69.0852C124.543 75.1762 136.374 78.4553 148.449 78.6016V41.9115H106.608C105.168 41.8687 103.763 41.458 102.526 40.7186C101.289 39.9792 100.263 38.9357 99.5431 37.6873C98.8237 36.4389 98.4357 35.0272 98.416 33.5864C98.3963 32.1457 98.7456 30.7239 99.4306 29.4564L116.319 -0.0983143L85.0755 -18C80.909 -8.08872 79.0917 2.652 79.7655 13.3823C80.4394 24.1126 83.5862 34.5415 88.9598 43.8537Z" fill="#FF8A0A"/>
</svg>
