<svg width="255" height="202" viewBox="0 0 255 202" fill="none" xmlns="http://www.w3.org/2000/svg">
<path opacity="0.03" d="M116.27 171.206C147.14 188.981 181.664 199.367 217.167 201.561C252.67 203.755 288.199 197.698 321 183.858L261.188 79.8345L163.365 136.063C159.116 138.531 154.296 139.83 149.39 139.83C144.484 139.83 139.664 138.531 135.415 136.063C131.232 133.634 127.745 130.156 125.296 125.968C122.847 121.78 121.518 117.024 121.441 112.166L121.441 -27L0 -27C0.602051 13.3491 11.64 52.845 32.0273 87.5992C52.4146 122.354 81.4482 151.168 116.27 171.206Z" fill="black"/>
</svg>
