<svg width="237" height="227" viewBox="0 0 237 227" fill="none" xmlns="http://www.w3.org/2000/svg">
<g opacity="0.08">
<path d="M56.49 125.19C67.2953 106.313 73.6094 85.202 74.9431 63.4924C76.2768 41.7827 72.5942 20.0575 64.1808 0L0.944946 36.5743L35.1265 96.392C36.6265 98.9901 37.4162 101.937 37.4162 104.937C37.4162 107.937 36.6265 110.885 35.1265 113.483C33.65 116.041 31.5356 118.173 28.9895 119.671C26.4435 121.168 23.5528 121.981 20.5993 122.028H-64V196.288C-39.4717 195.919 -15.4621 189.17 5.66517 176.703C26.7924 164.237 44.3088 146.483 56.49 125.19Z" fill="white"/>
<path d="M86.227 199.193C89.195 199.226 92.1033 200.031 94.6656 201.53C97.2278 203.028 99.3557 205.168 100.84 207.739L151.514 295.5L215.091 258.755C204.063 233.786 186.015 212.56 163.145 197.659C140.274 182.758 113.566 174.826 86.2697 174.826C58.9733 174.826 32.2653 182.758 9.39462 197.659C-13.476 212.56 -31.5234 233.786 -42.552 258.755L21.453 295.329L72.1271 207.568C73.5494 205.069 75.597 202.983 78.069 201.515C80.541 200.047 83.3524 199.247 86.227 199.193Z" fill="white"/>
<path d="M116.052 125.19C128.316 146.333 145.859 163.93 166.965 176.258C188.071 188.586 212.016 195.222 236.456 195.518V121.259H151.772C148.857 121.172 146.012 120.341 143.51 118.845C141.007 117.348 138.928 115.236 137.472 112.709C136.016 110.183 135.231 107.325 135.191 104.409C135.151 101.493 135.858 98.6157 137.245 96.0502L171.426 36.2324L108.19 0C99.7574 20.0601 96.0791 41.799 97.4429 63.5167C98.8068 85.2345 105.176 106.342 116.052 125.19Z" fill="white"/>
</g>
</svg>
