<svg width="391" height="157" viewBox="0 0 391 157" fill="none" xmlns="http://www.w3.org/2000/svg">
<path d="M156.576 162.684C170.617 138.153 178.823 110.72 180.556 82.508C182.289 54.2964 177.503 26.0646 166.57 0L84.3956 47.528L128.814 125.261C130.764 128.637 131.79 132.467 131.79 136.366C131.79 140.264 130.764 144.094 128.814 147.47C126.896 150.795 124.148 153.565 120.839 155.511C117.531 157.458 113.774 158.513 109.936 158.575H0V255.075C31.8744 254.596 63.0748 245.825 90.5295 229.625C117.984 213.425 140.747 190.354 156.576 162.684Z" fill="white"/>
<path d="M233.976 162.684C249.913 190.159 272.71 213.026 300.137 229.046C327.564 245.066 358.68 253.69 390.441 254.075V157.575H280.393C276.605 157.463 272.909 156.383 269.657 154.438C266.404 152.493 263.703 149.748 261.811 146.465C259.919 143.182 258.899 139.469 258.847 135.679C258.795 131.89 259.714 128.151 261.515 124.817L305.934 47.0839L223.759 0C212.801 26.068 208.021 54.3176 209.793 82.5396C211.566 110.762 219.842 138.191 233.976 162.684Z" fill="white"/>
</svg>
