<svg width="201" height="202" viewBox="0 0 201 202" fill="none" xmlns="http://www.w3.org/2000/svg">
<path d="M181.805 105.967L193.127 107.371L192.537 112.127C192.412 113.14 192.044 113.908 191.434 114.429C190.823 114.96 190.067 115.17 189.165 115.058C188.193 114.937 187.486 114.459 187.044 113.622C186.673 114.121 186.234 114.473 185.725 114.678C185.215 114.892 184.676 114.964 184.109 114.894C183.065 114.765 182.286 114.329 181.771 113.586C181.256 112.843 181.07 111.894 181.214 110.739L181.805 105.967ZM188.292 108.283L187.891 111.52C187.823 112.068 187.925 112.528 188.198 112.901C188.481 113.276 188.87 113.494 189.367 113.555C189.873 113.618 190.284 113.499 190.599 113.199C190.924 112.899 191.121 112.476 191.189 111.929L191.59 108.692L188.292 108.283ZM182.988 107.626L182.574 110.969C182.492 111.628 182.604 112.177 182.91 112.616C183.215 113.055 183.672 113.312 184.28 113.388C184.878 113.462 185.384 113.324 185.797 112.974C186.211 112.624 186.459 112.12 186.54 111.461L186.955 108.118L182.988 107.626Z" fill="black"/>
<path d="M180.268 116.987L191.323 119.803L189.49 127.001L188.154 126.66L189.617 120.917L186.115 120.025L184.728 125.471L183.392 125.131L184.78 119.685L181.233 118.781L179.77 124.524L178.434 124.184L180.268 116.987Z" fill="black"/>
<path d="M176.19 129.863C176.455 129.188 176.826 128.62 177.303 128.16C177.779 127.7 178.308 127.36 178.888 127.138C179.478 126.92 180.078 126.831 180.687 126.873L180.71 128.28C179.929 128.259 179.252 128.432 178.68 128.8C178.118 129.171 177.702 129.699 177.434 130.383C177.188 131.011 177.132 131.57 177.268 132.062C177.41 132.568 177.728 132.917 178.222 133.111C178.669 133.286 179.071 133.296 179.428 133.14C179.785 132.984 180.128 132.697 180.458 132.277L181.823 130.559C182.362 129.883 182.969 129.441 183.642 129.234C184.316 129.026 184.985 129.053 185.651 129.314C186.23 129.542 186.685 129.879 187.014 130.326C187.348 130.787 187.542 131.313 187.596 131.904C187.655 132.508 187.559 133.129 187.309 133.765C187.059 134.402 186.72 134.932 186.29 135.356C185.857 135.789 185.375 136.11 184.843 136.318C184.308 136.536 183.767 136.63 183.219 136.602L183.19 135.208C183.865 135.221 184.45 135.056 184.947 134.714C185.439 134.38 185.807 133.905 186.049 133.287C186.273 132.717 186.306 132.198 186.15 131.731C186.003 131.268 185.682 130.939 185.188 130.745C184.808 130.596 184.412 130.583 184.002 130.707C183.601 130.835 183.221 131.119 182.861 131.559L181.635 133.134C180.448 134.621 179.161 135.092 177.774 134.547C177.194 134.32 176.74 133.966 176.413 133.487C176.082 133.017 175.893 132.466 175.845 131.833C175.803 131.213 175.918 130.556 176.19 129.863Z" fill="black"/>
<path d="M172.874 137.7L181.71 142.447L183.174 139.722L184.388 140.374L180.765 147.119L179.551 146.467L180.993 143.782L172.157 139.035L172.874 137.7Z" fill="black"/>
<path d="M163.704 151.417C164.211 150.79 164.791 150.301 165.443 149.948C166.097 149.611 166.787 149.407 167.513 149.337C168.24 149.282 168.968 149.372 169.698 149.607C170.434 149.848 171.132 150.236 171.791 150.768C172.458 151.308 172.983 151.909 173.365 152.573C173.748 153.236 173.988 153.929 174.086 154.652C174.178 155.383 174.123 156.1 173.922 156.804C173.722 157.522 173.369 158.194 172.861 158.822C172.367 159.433 171.817 159.894 171.211 160.205C170.599 160.524 169.987 160.712 169.376 160.769C168.759 160.835 168.198 160.782 167.693 160.61L168.072 159.143C168.731 159.335 169.388 159.334 170.042 159.142C170.705 158.955 171.284 158.557 171.778 157.945C172.278 157.326 172.578 156.656 172.676 155.934C172.767 155.22 172.66 154.516 172.354 153.823C172.048 153.129 171.546 152.5 170.848 151.935C170.157 151.377 169.441 151.021 168.698 150.867C167.956 150.713 167.246 150.756 166.567 150.995C165.882 151.241 165.289 151.674 164.788 152.294C164.294 152.905 164.021 153.551 163.969 154.231C163.926 154.918 164.067 155.564 164.392 156.168L163.037 156.845C162.764 156.388 162.595 155.85 162.529 155.233C162.458 154.624 162.513 153.986 162.697 153.321C162.874 152.663 163.21 152.029 163.704 151.417Z" fill="black"/>
<path d="M154.858 160.769C155.458 160.23 156.116 159.832 156.832 159.575C157.546 159.332 158.278 159.231 159.028 159.272C159.778 159.313 160.501 159.5 161.199 159.835C161.896 160.169 162.531 160.656 163.103 161.294C163.676 161.933 164.09 162.617 164.347 163.347C164.604 164.077 164.712 164.809 164.672 165.544C164.631 166.294 164.444 167.01 164.11 167.693C163.783 168.384 163.319 168.998 162.719 169.537C162.111 170.082 161.449 170.476 160.735 170.719C160.02 170.976 159.287 171.085 158.537 171.044C157.795 171.011 157.071 170.823 156.367 170.481C155.669 170.146 155.038 169.664 154.472 169.033C153.9 168.394 153.485 167.71 153.228 166.98C152.972 166.251 152.864 165.511 152.905 164.761C152.946 164.012 153.13 163.291 153.457 162.601C153.783 161.925 154.25 161.314 154.858 160.769ZM155.788 161.806C155.165 162.365 154.747 163.007 154.533 163.733C154.327 164.467 154.312 165.207 154.488 165.954C154.671 166.708 155.042 167.397 155.601 168.021C156.16 168.644 156.801 169.084 157.524 169.34C158.248 169.597 158.982 169.658 159.726 169.525C160.478 169.4 161.165 169.058 161.789 168.499C162.412 167.94 162.827 167.294 163.033 166.561C163.246 165.835 163.265 165.099 163.088 164.352C162.912 163.605 162.545 162.92 161.986 162.296C161.427 161.673 160.783 161.229 160.052 160.965C159.329 160.709 158.592 160.643 157.84 160.769C157.088 160.908 156.404 161.254 155.788 161.806Z" fill="black"/>
<path d="M148.755 166.179L154.95 175.76L153.895 176.442L144.294 172.62L148.867 179.693L147.594 180.516L141.399 170.936L142.454 170.254L152.135 174.17L147.495 166.994L148.755 166.179Z" fill="black"/>
<path d="M134.956 174.01C135.612 173.703 136.272 173.547 136.934 173.541C137.596 173.536 138.214 173.652 138.788 173.891C139.366 174.139 139.862 174.488 140.275 174.937L139.323 175.974C138.771 175.421 138.161 175.08 137.493 174.953C136.829 174.835 136.164 174.932 135.499 175.244C134.888 175.529 134.463 175.897 134.223 176.347C133.978 176.811 133.968 177.284 134.192 177.765C134.396 178.199 134.681 178.483 135.047 178.616C135.413 178.749 135.86 178.777 136.388 178.699L138.56 178.393C139.418 178.274 140.162 178.371 140.793 178.685C141.424 178.998 141.891 179.478 142.194 180.126C142.458 180.69 142.555 181.247 142.486 181.798C142.411 182.362 142.19 182.877 141.822 183.343C141.448 183.822 140.952 184.206 140.332 184.496C139.713 184.785 139.101 184.936 138.498 184.948C137.886 184.963 137.315 184.864 136.786 184.649C136.248 184.439 135.791 184.134 135.413 183.736L136.351 182.706C136.832 183.18 137.37 183.463 137.966 183.557C138.553 183.654 139.146 183.562 139.748 183.281C140.302 183.022 140.684 182.669 140.892 182.222C141.104 181.785 141.098 181.326 140.873 180.845C140.7 180.475 140.422 180.193 140.039 180.001C139.66 179.817 139.189 179.761 138.625 179.833L136.651 180.131C134.767 180.392 133.51 179.848 132.878 178.497C132.615 177.933 132.529 177.365 132.622 176.792C132.705 176.223 132.947 175.693 133.349 175.201C133.745 174.722 134.28 174.326 134.956 174.01Z" fill="black"/>
<path d="M125.205 177.842C125.994 177.596 126.742 177.544 127.45 177.687C128.158 177.829 128.772 178.135 129.292 178.604C129.816 179.082 130.193 179.691 130.424 180.432L132.678 187.653L131.231 188.105L128.986 180.913C128.831 180.416 128.586 180.006 128.249 179.683C127.907 179.373 127.512 179.17 127.065 179.074C126.608 178.981 126.126 179.014 125.62 179.172C125.113 179.33 124.703 179.576 124.39 179.909C124.067 180.245 123.858 180.637 123.762 181.084C123.659 181.543 123.686 182.022 123.841 182.519L126.085 189.711L124.638 190.163L122.384 182.941C122.153 182.2 122.117 181.485 122.276 180.793C122.437 180.112 122.768 179.511 123.269 178.991C123.76 178.475 124.405 178.091 125.205 177.842Z" fill="black"/>
<path d="M118.454 179.935L120.506 191.157L119.03 191.427L117.226 181.56L112.3 182.461L112.052 181.105L118.454 179.935Z" fill="black"/>
<path d="M107.853 181.54L108.588 191.543L111.673 191.317L111.774 192.691L104.138 193.252L104.037 191.877L107.076 191.654L106.341 181.651L107.853 181.54Z" fill="black"/>
<path d="M101.966 182.039L97.3106 193.228L95.5365 193.139L92.025 181.54L93.6309 181.62L94.4295 184.344L99.293 184.588L100.36 181.958L101.966 182.039ZM98.7498 185.941L94.8345 185.744L96.5088 191.486L98.7498 185.941Z" fill="black"/>
<path d="M87.7323 180.882L86.004 190.763L89.051 191.296L88.8135 192.653L81.2713 191.334L81.5088 189.976L84.5106 190.501L86.2389 180.621L87.7323 180.882Z" fill="black"/>
<path d="M80.9769 179.519L78.1185 190.563L76.6656 190.187L79.5241 179.143L80.9769 179.519Z" fill="black"/>
<path d="M71.6093 176.4C72.3623 176.689 73.0163 177.094 73.5716 177.613C74.1136 178.138 74.5373 178.744 74.8427 179.429C75.1481 180.115 75.311 180.845 75.3313 181.618C75.3516 182.391 75.2082 183.178 74.9009 183.979C74.5936 184.779 74.1737 185.46 73.6413 186.021C73.1088 186.582 72.5062 187.013 71.8336 187.312C71.1478 187.618 70.4248 187.778 69.6647 187.792C68.901 187.816 68.1427 187.684 67.3897 187.395C66.6272 187.102 65.975 186.693 65.4329 186.168C64.8777 185.649 64.4474 185.046 64.142 184.36C63.8329 183.684 63.6701 182.954 63.6534 182.172C63.6331 181.398 63.7747 180.616 64.0783 179.825C64.3856 179.024 64.8055 178.344 65.338 177.782C65.8704 177.221 66.4796 176.788 67.1654 176.483C67.8512 176.177 68.576 176.013 69.3398 175.989C70.0903 175.971 70.8468 176.108 71.6093 176.4ZM71.11 177.701C70.3284 177.401 69.5661 177.322 68.823 177.463C68.0762 177.614 67.4105 177.938 66.826 178.436C66.2377 178.942 65.7937 179.587 65.4937 180.368C65.1937 181.15 65.0946 181.921 65.1963 182.682C65.298 183.442 65.5777 184.124 66.0355 184.726C66.4896 185.338 67.1075 185.794 67.889 186.094C68.6706 186.394 69.4347 186.468 70.1815 186.317C70.9247 186.176 71.5885 185.857 72.173 185.359C72.7576 184.862 73.1999 184.223 73.4998 183.441C73.7998 182.66 73.9008 181.884 73.8027 181.113C73.701 180.353 73.4231 179.666 72.969 179.055C72.5017 178.449 71.882 177.998 71.11 177.701Z" fill="black"/>
<path d="M64.0535 173.459L58.3234 183.325L57.2376 182.694L56.2903 172.403L52.06 179.686L50.7491 178.925L56.4792 169.06L57.5651 169.691L58.464 180.095L62.7558 172.706L64.0535 173.459Z" fill="black"/>
<path d="M43.6609 158.501C44.1771 159.009 44.553 159.573 44.7885 160.193C45.024 160.812 45.1296 161.432 45.1052 162.053C45.0737 162.681 44.9192 163.267 44.6416 163.81L43.3383 163.278C43.6652 162.569 43.7721 161.878 43.6589 161.208C43.5386 160.545 43.2167 159.955 42.6931 159.439C42.2133 158.966 41.7204 158.695 41.2146 158.627C40.6943 158.558 40.2478 158.713 39.8752 159.091C39.5384 159.433 39.3714 159.799 39.3742 160.189C39.3771 160.578 39.5065 161.007 39.7626 161.474L40.8053 163.405C41.2151 164.167 41.3829 164.899 41.3085 165.6C41.2342 166.3 40.9462 166.905 40.4446 167.414C40.0075 167.858 39.5187 168.143 38.9781 168.27C38.4232 168.396 37.8635 168.368 37.2991 168.184C36.7202 168.001 36.1872 167.669 35.7001 167.189C35.2129 166.709 34.859 166.188 34.6383 165.626C34.4104 165.058 34.3052 164.488 34.3227 163.918C34.333 163.34 34.459 162.805 34.7009 162.312L35.9933 162.834C35.7162 163.449 35.6376 164.053 35.7574 164.644C35.8699 165.228 36.1625 165.753 36.6351 166.218C37.0714 166.648 37.5351 166.883 38.0263 166.923C38.5103 166.97 38.9386 166.804 39.3113 166.426C39.5979 166.135 39.765 165.777 39.8124 165.351C39.8527 164.932 39.741 164.47 39.4775 163.967L38.5119 162.22C37.6118 160.544 37.6848 159.176 38.7311 158.114C39.1682 157.671 39.6715 157.393 40.241 157.28C40.8032 157.161 41.3847 157.203 41.9854 157.408C42.5716 157.613 43.1301 157.978 43.6609 158.501Z" fill="black"/>
<path d="M39.0786 154.039L30.1552 161.147L25.5277 155.338L26.6056 154.48L30.2982 159.115L33.1249 156.863L29.6232 152.467L30.7012 151.609L34.2029 156.004L37.0655 153.724L33.373 149.089L34.451 148.23L39.0786 154.039Z" fill="black"/>
<path d="M33.2652 146.583L23.5509 152.565L21.439 149.136C21.0429 148.493 20.8166 147.853 20.7602 147.216C20.7038 146.579 20.8187 145.987 21.1048 145.439C21.3768 144.888 21.8214 144.422 22.4386 144.042C23.1253 143.619 23.8192 143.432 24.5201 143.48C25.2124 143.533 25.8404 143.794 26.4044 144.262L28.9531 139.581L29.8685 141.067L27.4451 145.455L28.762 147.594L32.4782 145.305L33.2652 146.583ZM27.5885 148.316L26.2395 146.126C25.8862 145.552 25.4373 145.193 24.8928 145.049C24.343 144.896 23.7899 144.99 23.2336 145.333C22.6685 145.681 22.3349 146.132 22.2328 146.687C22.1166 147.238 22.2351 147.8 22.5885 148.374L23.9375 150.565L27.5885 148.316Z" fill="black"/>
<path d="M26.7183 134.986L17.9709 143.389L17.317 141.92L24.7032 134.978L14.6081 135.834L13.9542 134.365L26.0458 133.475L26.7183 134.986Z" fill="black"/>
<path d="M23.6043 127.335L12.7798 130.939L12.3058 129.515L23.1303 125.911L23.6043 127.335Z" fill="black"/>
<path d="M21.1243 117.852C21.2935 118.641 21.3101 119.4 21.1741 120.128C21.026 120.849 20.751 121.514 20.349 122.122C19.9349 122.723 19.4074 123.233 18.7665 123.652C18.1157 124.074 17.376 124.373 16.5475 124.551C15.709 124.731 14.9115 124.761 14.155 124.642C13.3984 124.522 12.7081 124.273 12.0841 123.896C11.458 123.508 10.9345 123.015 10.5136 122.416C10.0806 121.809 9.77951 121.112 9.6103 120.323C9.44537 119.554 9.43232 118.837 9.57117 118.17C9.70788 117.493 9.94586 116.899 10.2851 116.388C10.6222 115.867 11.016 115.464 11.4666 115.179L12.3696 116.395C11.8065 116.787 11.3941 117.299 11.1326 117.929C10.8612 118.562 10.8079 119.262 10.9728 120.031C11.1399 120.809 11.4734 121.463 11.9734 121.993C12.4712 122.513 13.086 122.871 13.8176 123.069C14.5492 123.267 15.3542 123.272 16.2326 123.084C17.101 122.897 17.8282 122.564 18.4142 122.083C19.0002 121.602 19.4135 121.023 19.6544 120.345C19.893 119.657 19.9288 118.923 19.7617 118.145C19.5968 117.376 19.2658 116.758 18.7687 116.29C18.2616 115.825 17.6707 115.529 16.9962 115.402L17.3209 113.923C17.8486 113.998 18.3731 114.203 18.8944 114.541C19.4135 114.868 19.8743 115.312 20.2766 115.873C20.6768 116.424 20.9593 117.084 21.1243 117.852Z" fill="black"/>
<path d="M19.6163 110.636L8.24167 111.515L7.66927 104.11L9.04339 104.004L9.50013 109.913L13.1034 109.634L12.6702 104.031L14.0443 103.925L14.4775 109.528L18.1265 109.246L17.6698 103.337L19.0439 103.231L19.6163 110.636Z" fill="black"/>
<path d="M19.5247 91.053L8.26492 89.2164L9.42849 82.0827L10.7887 82.3046L9.86675 87.9571L13.5092 88.5513L14.3449 83.4277L15.7051 83.6496L14.8694 88.7731L19.7663 89.5718L19.5247 91.053Z" fill="black"/>
<path d="M22.7661 76.7847C22.5259 77.5546 22.1644 78.2332 21.6816 78.8205C21.1922 79.395 20.6151 79.8566 19.9501 80.2052C19.2852 80.5538 18.5676 80.763 17.7972 80.8327C17.0268 80.9024 16.2323 80.8096 15.4137 80.5541C14.5951 80.2986 13.8888 79.9232 13.2948 79.4276C12.7008 78.9321 12.2329 78.3583 11.891 77.7062C11.5423 77.0413 11.3365 76.33 11.2735 75.5724C11.2007 74.8118 11.2845 74.0466 11.5247 73.2767C11.768 72.497 12.1344 71.82 12.6238 71.2455C13.1065 70.6582 13.6803 70.1902 14.3452 69.8416C15.0004 69.4899 15.7181 69.2808 16.4982 69.2141C17.2686 69.1444 18.0582 69.2357 18.8671 69.4881C19.6857 69.7436 20.392 70.1191 20.986 70.6146C21.58 71.1101 22.0513 71.6903 22.3999 72.3552C22.7485 73.0201 22.9592 73.7329 23.032 74.4935C23.098 75.2414 23.0094 76.0051 22.7661 76.7847ZM21.4359 76.3696C21.6852 75.5705 21.7157 74.8046 21.5272 74.0721C21.329 73.3364 20.963 72.6929 20.4293 72.1413C19.8859 71.5867 19.2146 71.1847 18.4154 70.9353C17.6163 70.6859 16.8404 70.6363 16.0877 70.7864C15.335 70.9365 14.6728 71.2593 14.1012 71.7546C13.5198 72.2469 13.1044 72.8927 12.855 73.6918C12.6056 74.4909 12.58 75.2583 12.7782 75.9939C12.9667 76.7265 13.3278 77.3685 13.8615 77.9201C14.3952 78.4717 15.0616 78.8721 15.8608 79.1215C16.6599 79.3709 17.4407 79.4221 18.2031 79.275C18.9558 79.1249 19.6229 78.8037 20.2043 78.3113C20.779 77.8062 21.1895 77.159 21.4359 76.3696Z" fill="black"/>
<path d="M25.1827 69.1727L14.9028 64.2252L16.6493 60.5962C16.977 59.9155 17.3935 59.3795 17.899 58.9884C18.4045 58.5972 18.9651 58.3741 19.5807 58.3192C20.1915 58.2506 20.8235 58.3735 21.4766 58.6878C22.2033 59.0375 22.7357 59.5204 23.0738 60.1363C23.4026 60.7477 23.5223 61.4171 23.4328 62.1445L28.7489 61.7629L27.9918 63.336L22.99 63.6649L21.9009 65.9278L25.8335 67.8205L25.1827 69.1727ZM20.6591 65.3301L21.7747 63.012C22.0669 62.4048 22.1268 61.8332 21.9543 61.297C21.7863 60.7516 21.4079 60.3372 20.8191 60.0539C20.2212 59.7661 19.6613 59.7289 19.1394 59.9422C18.6128 60.1419 18.2033 60.5454 17.9111 61.1525L16.7955 63.4707L20.6591 65.3301Z" fill="black"/>
<path d="M34.9965 51.8729L26.2572 44.5395L29.3382 40.8678C29.9945 40.0858 30.7201 39.6418 31.5152 39.5361C32.3169 39.4225 33.0657 39.6577 33.7617 40.2417C34.5125 40.8717 34.8457 41.6578 34.7615 42.6C35.3439 42.3824 35.9042 42.3261 36.4424 42.4312C36.9871 42.5285 37.4785 42.7609 37.9164 43.1284C38.7219 43.8043 39.1388 44.5939 39.1671 45.4972C39.1954 46.4006 38.8355 47.298 38.0874 48.1895L34.9965 51.8729ZM30.8114 46.402L32.9081 43.9034C33.2625 43.4811 33.4267 43.0392 33.4008 42.5777C33.3671 42.1096 33.1587 41.7148 32.7755 41.3932C32.3845 41.0651 31.9751 40.9415 31.5474 41.0224C31.1119 41.0967 30.7169 41.345 30.3626 41.7673L28.2659 44.266L30.8114 46.402ZM34.9054 49.8374L37.071 47.2567C37.4975 46.7483 37.7019 46.2268 37.6841 45.6922C37.6664 45.1575 37.4229 44.6933 36.9536 44.2995C36.4922 43.9124 35.9928 43.7531 35.4553 43.8219C34.9179 43.8906 34.4358 44.1792 34.0093 44.6875L31.8437 47.2682L34.9054 49.8374Z" fill="black"/>
<path d="M45.2636 40.909C44.6519 41.4654 43.9952 41.8283 43.2934 41.9974C42.5916 42.1666 41.9059 42.1487 41.2363 41.9436C40.5598 41.7309 39.9605 41.3376 39.4384 40.7637L34.3478 35.1679L35.4692 34.1477L40.5392 39.7208C40.8895 40.106 41.2852 40.374 41.7261 40.5249C42.1677 40.6615 42.6114 40.6788 43.057 40.577C43.5102 40.4684 43.9332 40.2354 44.3259 39.8782C44.7185 39.5209 44.9866 39.1253 45.13 38.6912C45.2809 38.2503 45.3055 37.807 45.2037 37.3614C45.1026 36.9013 44.8768 36.4787 44.5265 36.0935L39.4565 30.5204L40.5779 29.5002L45.6685 35.096C46.1906 35.6699 46.5256 36.3037 46.6735 36.9972C46.8145 37.6832 46.7677 38.3676 46.5331 39.0503C46.306 39.7261 45.8828 40.3457 45.2636 40.909Z" fill="black"/>
<path d="M53.7259 34.0546C53.1305 34.468 52.5068 34.7333 51.8549 34.8504C51.2029 34.9676 50.574 34.9569 49.9681 34.8183C49.3565 34.6713 48.8092 34.4112 48.3264 34.038L49.0898 32.8554C49.7271 33.3077 50.3857 33.5402 51.0656 33.5528C51.7397 33.557 52.3786 33.3495 52.9824 32.9302C53.5358 32.5459 53.8929 32.1115 54.0536 31.627C54.2169 31.1283 54.1472 30.661 53.8444 30.2249C53.5707 29.8308 53.2421 29.5992 52.8584 29.53C52.4748 29.4608 52.0297 29.5089 51.5231 29.6742L49.433 30.3426C48.6082 30.6046 47.8583 30.6344 47.1833 30.4319C46.5083 30.2295 45.9669 29.8348 45.5593 29.2478C45.2041 28.7363 45.0142 28.2032 44.9895 27.6486C44.9674 27.0798 45.0987 26.535 45.3833 26.0142C45.6705 25.4792 46.0951 25.0166 46.6569 24.6265C47.2187 24.2363 47.7959 23.9847 48.3885 23.8715C48.9894 23.7525 49.5686 23.7542 50.126 23.8768C50.6918 23.9935 51.1944 24.2162 51.634 24.5448L50.8831 25.7188C50.3292 25.3328 49.7507 25.1441 49.1477 25.1527C48.553 25.1555 47.9832 25.3461 47.4381 25.7246C46.935 26.074 46.6185 26.4864 46.4888 26.9618C46.3532 27.4288 46.4368 27.8803 46.7396 28.3164C46.9725 28.6518 47.2941 28.8822 47.7043 29.0075C48.1086 29.1244 48.5825 29.0999 49.1259 28.9338L51.0214 28.3074C52.8343 27.7321 54.1658 28.0566 55.0159 29.2809C55.3711 29.7924 55.5514 30.3384 55.5567 30.9189C55.5705 31.4935 55.4211 32.0571 55.1088 32.6095C54.799 33.1478 54.338 33.6295 53.7259 34.0546Z" fill="black"/>
<path d="M59.5333 30.0955L53.9492 20.147L55.2579 19.4124L60.842 29.3609L59.5333 30.0955Z" fill="black"/>
<path d="M63.0304 27.9816L58.4688 17.5247L59.6198 17.0226L68.4755 22.3484L65.1079 14.6286L66.4974 14.0224L71.059 24.4793L69.9081 24.9814L60.9893 19.5494L64.4059 27.3816L63.0304 27.9816Z" fill="black"/>
<path d="M74.4942 23.2138L71.3851 12.237L78.531 10.213L78.9066 11.5391L73.2046 13.1541L74.1895 16.6313L79.5968 15.0997L79.9724 16.4258L74.5651 17.9574L75.5625 21.4788L81.2645 19.8637L81.6401 21.1898L74.4942 23.2138Z" fill="black"/>
<path d="M87.4527 20.3011C86.7365 20.4123 86.0596 20.3779 85.4221 20.198C84.7846 20.018 84.2238 19.7331 83.7397 19.3434C83.2541 18.9435 82.8758 18.4702 82.605 17.9234L83.809 17.1941C84.184 17.8797 84.6745 18.3769 85.2803 18.6858C85.8846 18.9846 86.5499 19.0776 87.2762 18.9648C87.9421 18.8614 88.4532 18.6271 88.8098 18.2618C89.1748 17.8849 89.3167 17.4341 89.2352 16.9095C89.1616 16.4354 88.9675 16.0833 88.6528 15.8532C88.3381 15.6231 87.9169 15.4715 87.389 15.3985L85.2172 15.0848C84.3609 14.9595 83.6735 14.6581 83.1552 14.1807C82.6368 13.7033 82.3228 13.1115 82.2132 12.4053C82.1177 11.7899 82.1801 11.2275 82.4007 10.718C82.6297 10.1969 82.9861 9.76446 83.47 9.42073C83.9624 9.06534 84.5465 8.83518 85.2224 8.73025C85.8983 8.62532 86.5275 8.65162 87.1098 8.80916C87.7022 8.96514 88.2222 9.22017 88.6698 9.57427C89.1275 9.9268 89.482 10.347 89.7333 10.8349L88.5445 11.5618C88.2153 10.9724 87.7778 10.5496 87.2318 10.2934C86.6958 10.0357 86.1 9.95773 85.4443 10.0595C84.839 10.1535 84.374 10.3858 84.0493 10.7565C83.723 11.1171 83.6006 11.5597 83.682 12.0843C83.7447 12.4878 83.933 12.8357 84.247 13.1278C84.5594 13.4099 84.9962 13.5952 85.5575 13.6837L87.536 13.95C89.4178 14.226 90.4731 15.1005 90.7017 16.5734C90.7973 17.1887 90.7204 17.7586 90.4712 18.2828C90.2321 18.8055 89.8512 19.2469 89.3286 19.607C88.8144 19.9554 88.1892 20.1868 87.4527 20.3011Z" fill="black"/>
<path d="M97.8529 19.3068C97.1283 19.3264 96.4612 19.2065 95.8517 18.9472C95.2421 18.688 94.7219 18.3344 94.2911 17.8865C93.86 17.4283 93.5448 16.9109 93.3453 16.3341L94.632 15.7632C94.9172 16.4908 95.3407 17.0462 95.9026 17.4293C96.4641 17.8022 97.1123 17.9787 97.8471 17.9589C98.5206 17.9407 99.0574 17.773 99.4573 17.4558C99.8672 17.1281 100.065 16.6989 100.051 16.1683C100.038 15.6886 99.8897 15.3147 99.6067 15.0466C99.3237 14.7785 98.925 14.5749 98.4106 14.4356L96.296 13.8493C95.4625 13.6165 94.8189 13.2305 94.3652 12.6913C93.9115 12.1521 93.675 11.5253 93.6556 10.8109C93.6388 10.1884 93.772 9.63839 94.0553 9.16095C94.3485 8.67303 94.7569 8.28923 95.2804 8.00955C95.8138 7.71939 96.4224 7.56507 97.1061 7.5466C97.7899 7.52812 98.4106 7.6339 98.9683 7.86393C99.5362 8.09369 100.02 8.41253 100.419 8.82047C100.828 9.22813 101.127 9.68985 101.314 10.2056L100.043 10.7762C99.7909 10.1498 99.4105 9.67495 98.9013 9.35169C98.4023 9.02816 97.8212 8.87535 97.1578 8.89328C96.5455 8.90983 96.0549 9.08138 95.6858 9.40795C95.3165 9.72431 95.139 10.1478 95.1533 10.6785C95.1644 11.0867 95.3071 11.4556 95.5815 11.7852C95.8557 12.1046 96.2656 12.3438 96.8111 12.5026L98.7399 13.0173C100.572 13.5295 101.508 14.5306 101.548 16.0206C101.565 16.6431 101.416 17.1986 101.103 17.6871C100.799 18.1752 100.366 18.5648 99.8015 18.8558C99.2474 19.1363 98.5979 19.2867 97.8529 19.3068Z" fill="black"/>
<path d="M117.798 21.1176C117.09 20.9601 116.472 20.6814 115.944 20.2814C115.416 19.8815 114.998 19.4119 114.689 18.8725C114.383 18.3232 114.203 17.7445 114.15 17.1366L115.537 16.8962C115.636 17.6714 115.912 18.3132 116.363 18.8216C116.817 19.32 117.403 19.6491 118.12 19.8088C118.778 19.9552 119.34 19.9233 119.805 19.713C120.282 19.4951 120.578 19.127 120.694 18.6088C120.798 18.1404 120.746 17.7418 120.536 17.4128C120.327 17.0839 119.99 16.7892 119.525 16.5288L117.617 15.4452C116.865 15.0165 116.335 14.4853 116.026 13.8518C115.718 13.2183 115.641 12.5528 115.796 11.8552C115.931 11.2474 116.195 10.7464 116.586 10.3523C116.989 9.95051 117.478 9.67772 118.054 9.53396C118.642 9.38246 119.27 9.38101 119.938 9.52962C120.605 9.67823 121.182 9.932 121.667 10.2909C122.161 10.6521 122.553 11.0791 122.84 11.5719C123.138 12.067 123.315 12.5875 123.371 13.1335L121.999 13.3771C121.908 12.7083 121.654 12.1551 121.239 11.7176C120.834 11.2823 120.308 10.9925 119.66 10.8483C119.062 10.7153 118.544 10.7621 118.107 10.989C117.672 11.2059 117.396 11.5734 117.281 12.0916C117.192 12.4902 117.241 12.8828 117.427 13.2693C117.615 13.6458 117.954 13.9776 118.445 14.2646L120.19 15.2335C121.842 16.1764 122.506 17.3753 122.182 18.8302C122.047 19.4381 121.767 19.9407 121.344 20.3381C120.931 20.7377 120.416 21.0099 119.798 21.1548C119.192 21.2919 118.525 21.2795 117.798 21.1176Z" fill="black"/>
<path d="M123.86 22.4772L127.341 11.6126L128.77 12.0705L125.289 22.9351L123.86 22.4772Z" fill="black"/>
<path d="M128.485 23.8538L133.086 13.414L134.235 13.9204L136.318 24.0421L139.714 16.3349L141.101 16.9462L136.501 27.386L135.352 26.8797L133.304 16.6396L129.858 24.459L128.485 23.8538Z" fill="black"/>
<path d="M143.678 31.7036C142.998 31.2707 142.446 30.75 142.022 30.1417C141.612 29.5302 141.332 28.8678 141.181 28.1545C141.044 27.438 141.051 26.7044 141.202 25.9535C141.358 25.194 141.664 24.4568 142.119 23.7419C142.579 23.0183 143.118 22.4291 143.734 21.9741C144.35 21.5192 145.012 21.202 145.719 21.0227C146.434 20.8488 147.153 20.8221 147.875 20.9426C148.611 21.06 149.319 21.3352 150 21.7682C150.663 22.1902 151.183 22.6846 151.561 23.2514C151.947 23.8238 152.203 24.4102 152.329 25.0108C152.464 25.6168 152.474 26.1802 152.361 26.7009L150.861 26.4907C150.977 25.8142 150.902 25.1616 150.636 24.5329C150.376 23.8955 149.915 23.3659 149.252 22.9439C148.58 22.5164 147.88 22.2949 147.152 22.2793C146.432 22.2691 145.745 22.4551 145.09 22.8373C144.436 23.2194 143.867 23.7895 143.385 24.5475C142.908 25.2968 142.636 26.0489 142.567 26.8037C142.498 27.5585 142.62 28.2597 142.934 28.9072C143.257 29.5602 143.754 30.1004 144.426 30.5279C145.089 30.9499 145.762 31.1479 146.444 31.1221C147.131 31.0876 147.757 30.8745 148.321 30.483L149.147 31.7526C148.723 32.076 148.208 32.305 147.602 32.4398C147.005 32.58 146.365 32.5964 145.683 32.4892C145.01 32.3875 144.341 32.1256 143.678 31.7036Z" fill="black"/>
<path d="M149.935 35.7141L157.3 27.0016L162.972 31.7964L162.082 32.8489L157.556 29.023L155.223 31.7829L159.515 35.4111L158.625 36.4637L154.333 32.8354L151.97 35.6305L156.496 39.4564L155.607 40.5089L149.935 35.7141Z" fill="black"/>
<path d="M163.365 48.6308L164.203 48.0121L168.824 48.5206C169.721 48.619 170.455 48.6928 171.024 48.7419C171.594 48.791 172.065 48.7852 172.439 48.7247C172.813 48.6641 173.152 48.5216 173.456 48.2972C173.957 47.9272 174.234 47.4943 174.287 46.9985C174.339 46.5027 174.187 46.0126 173.829 45.5281C173.465 45.0354 173.012 44.7227 172.47 44.5901C171.936 44.4515 171.361 44.5075 170.747 44.7583L170.221 43.4527C170.792 43.1955 171.365 43.0772 171.938 43.0977C172.512 43.1183 173.055 43.2692 173.568 43.5507C174.08 43.8321 174.524 44.2274 174.9 44.7365C175.313 45.2949 175.566 45.8695 175.66 46.4603C175.761 47.045 175.707 47.599 175.497 48.1222C175.287 48.6454 174.928 49.0951 174.419 49.4711C174.082 49.7198 173.702 49.8926 173.279 49.9896C172.861 50.0948 172.369 50.1412 171.801 50.1289C171.242 50.1105 170.571 50.0607 169.787 49.9794L165.649 49.5326L168.861 53.8807L167.814 54.6541L163.365 48.6308Z" fill="black"/>
<path d="M171.188 60.5233C170.754 59.7366 170.587 58.9255 170.685 58.0899C170.793 57.2494 171.14 56.4517 171.726 55.6969C172.322 54.9371 173.133 54.2737 174.161 53.7066C175.189 53.1395 176.179 52.8093 177.13 52.716C178.09 52.6178 178.948 52.7453 179.702 53.0986C180.462 53.4608 181.058 54.0352 181.492 54.8219C181.931 55.6174 182.099 56.4286 181.995 57.2552C181.896 58.0909 181.549 58.8885 180.954 59.6483C180.368 60.4031 179.561 61.0641 178.533 61.6311C177.505 62.1982 176.511 62.5309 175.55 62.6291C174.59 62.7274 173.733 62.5999 172.978 62.2466C172.224 61.8933 171.627 61.3189 171.188 60.5233ZM172.409 59.8502C172.704 60.3865 173.122 60.7626 173.661 60.9784C174.208 61.1893 174.836 61.2393 175.545 61.1284C176.258 61.0264 177.012 60.756 177.808 60.3171C178.603 59.8782 179.23 59.3868 179.688 58.8428C180.159 58.3028 180.445 57.7429 180.545 57.1631C180.659 56.5874 180.568 56.0313 180.272 55.495C179.981 54.9675 179.559 54.5939 179.007 54.3741C178.468 54.1583 177.842 54.1014 177.129 54.2034C176.429 54.3094 175.682 54.5818 174.886 55.0207C174.1 55.4546 173.466 55.944 172.985 56.489C172.519 57.0379 172.228 57.6002 172.115 58.176C172.015 58.7558 172.113 59.3138 172.409 59.8502Z" fill="black"/>
<path d="M175.396 68.6304L184.734 64.7629L183.908 62.7681L185.11 62.27L186.517 65.6655L175.976 70.0311L175.396 68.6304Z" fill="black"/>
<path d="M178.08 76.4928C177.912 75.925 177.852 75.3625 177.9 74.8053C177.958 74.2452 178.12 73.7291 178.385 73.2569C178.66 72.7818 179.026 72.3809 179.483 72.0542L180.329 73.0815C179.851 73.4462 179.529 73.9035 179.361 74.4534C179.206 75.0101 179.21 75.5626 179.372 76.1109C179.505 76.5612 179.725 76.9274 180.032 77.2093C180.339 77.4912 180.698 77.6779 181.108 77.7696C181.521 77.871 181.948 77.8566 182.389 77.7264C182.849 77.5904 183.225 77.3675 183.516 77.0577C183.811 76.7578 184.005 76.4075 184.1 76.007C184.204 75.6036 184.191 75.1816 184.061 74.741C183.928 74.2906 183.704 73.9098 183.388 73.5986C183.073 73.2873 182.734 73.0947 182.371 73.0209L182.278 71.787L188.517 70.8532L190.192 76.5218L188.944 76.8907L187.573 72.2501L184.237 72.741C184.516 72.9671 184.748 73.2286 184.932 73.5257C185.115 73.8227 185.26 74.1523 185.368 74.5146C185.579 75.2293 185.602 75.9036 185.438 76.5376C185.284 77.1686 184.978 77.7169 184.519 78.1825C184.061 78.648 183.494 78.9806 182.818 79.1803C182.133 79.3828 181.467 79.3987 180.82 79.2278C180.177 79.0668 179.609 78.7501 179.118 78.2777C178.64 77.8123 178.294 77.2173 178.08 76.4928Z" fill="black"/>
<path d="M180.981 88.4307L182.803 88.1907L182.997 89.6634L181.175 89.9034L180.981 88.4307Z" fill="black"/>
<path d="M89.6074 86.2583L118.774 86.2583M118.774 86.2583L118.774 115.425M118.774 86.2583L81.274 123.758" stroke="black" stroke-width="3" stroke-linecap="round" stroke-linejoin="round"/>
</svg>
