<svg width="204" height="318" viewBox="0 0 204 318" fill="none" xmlns="http://www.w3.org/2000/svg">
<g opacity="0.2">
<path d="M9.66434 134.722C21.2924 114.408 28.0872 91.6895 29.5225 68.3268C30.9577 44.9641 26.9948 21.5847 17.9408 0L-50.11 39.3591L-13.3258 103.731C-11.7115 106.527 -10.8617 109.699 -10.8617 112.928C-10.8617 116.156 -11.7115 119.328 -13.3258 122.124C-14.9148 124.877 -17.1901 127.171 -19.93 128.783C-22.6699 130.394 -25.7807 131.268 -28.9591 131.32H-120V211.233C-93.604 210.837 -67.7663 203.574 -45.0304 190.158C-22.2945 176.742 -3.44431 157.637 9.66434 134.722Z" fill="#FF8A0A"/>
<path d="M41.666 214.36C44.8601 214.396 47.9898 215.262 50.7472 216.875C53.5045 218.487 55.7944 220.79 57.3913 223.556L111.924 318L180.343 278.457C168.474 251.587 149.053 228.744 124.441 212.709C99.8285 196.674 71.0868 188.137 41.712 188.137C12.3372 188.137 -16.4044 196.674 -41.0165 212.709C-65.6286 228.744 -85.0501 251.587 -96.9185 278.457L-28.04 317.816L26.4926 223.373C28.0231 220.684 30.2267 218.439 32.8869 216.859C35.5471 215.279 38.5725 214.418 41.666 214.36Z" fill="#FF8A0A"/>
<path d="M73.7613 134.722C86.9589 157.475 105.838 176.412 128.551 189.678C151.264 202.945 177.032 210.087 203.334 210.406V130.492H112.201C109.064 130.399 106.003 129.504 103.31 127.894C100.616 126.283 98.3793 124.01 96.8124 121.291C95.2455 118.572 94.4004 115.497 94.3575 112.359C94.3146 109.221 95.0754 106.125 96.5675 103.364L133.352 38.9913L65.3009 0C56.226 21.5875 52.2676 44.9817 53.7353 68.353C55.203 91.7244 62.0569 114.44 73.7613 134.722Z" fill="#FF8A0A"/>
</g>
</svg>
