<?xml version="1.0" encoding="UTF-8"?>
<svg version="1.1" xmlns="http://www.w3.org/2000/svg" width="3200" height="1194">
<path d="M0 0 C15.47351231 1.83578256 31.0679798 2.62005208 46.6496582 2.26245117 C47.56360352 2.24456543 48.47754883 2.22667969 49.41918945 2.20825195 C62.49167871 1.92665902 75.40726725 1.1966494 88.3996582 -0.30004883 C115.5069483 -3.38836225 115.5069483 -3.38836225 122.6496582 2.26245117 C126.17972816 8.10532558 126.77450518 12.71787586 126.74731445 19.46972656 C126.74517079 20.55342372 126.74517079 20.55342372 126.74298382 21.65901375 C126.73725268 24.05941526 126.72458588 26.45973204 126.7121582 28.86010742 C126.70727457 30.55267692 126.70295694 32.24524813 126.69917297 33.93782043 C126.69066629 37.53210465 126.67977365 41.12637004 126.66714478 44.72064209 C126.63593221 54.06137523 126.63175439 63.40214131 126.63012695 72.74291992 C126.62994253 73.65836327 126.62975811 74.57380661 126.6295681 75.51699066 C125.48547902 193.84267281 125.48547902 193.84267281 147.6496582 309.26245117 C152.94653427 291.3876234 157.97911734 273.47109892 162.3605957 255.34838867 C162.57036797 254.48483702 162.78014023 253.62128536 162.99626923 252.73156548 C167.99088304 232.14942184 172.64205107 211.49138107 177.23484802 190.81646729 C177.91266692 187.76641449 178.59185549 184.71666935 179.2713623 181.66699219 C185.08763617 155.55526285 190.84584283 129.43138844 196.3996582 103.26245117 C196.54058144 102.59873756 196.68150467 101.93502396 196.8266983 101.25119781 C199.78713245 87.29669347 202.66902274 73.33010013 205.3605957 59.32104492 C205.57026978 58.2322403 205.77994385 57.14343567 205.99597168 56.02163696 C206.9539872 51.0316641 207.89777918 46.03979644 208.81274414 41.04174805 C209.13586875 39.3223249 209.45910369 37.60292249 209.7824707 35.88354492 C209.97998428 34.75885048 209.97998428 34.75885048 210.18148804 33.61143494 C211.71324879 25.57296834 214.27888012 18.77226896 220.6730957 13.45385742 C226.48060824 9.95328168 232.23068527 9.95522171 238.7980957 9.96166992 C239.76945465 9.9573848 240.7408136 9.95309967 241.74160767 9.94868469 C243.79070254 9.94295752 245.83981775 9.94242921 247.88891602 9.94677734 C251.00743675 9.94993374 254.12500482 9.92646992 257.2434082 9.90112305 C259.24080285 9.89884939 261.23820003 9.89814687 263.2355957 9.89916992 C264.15980316 9.88996017 265.08401062 9.88075043 266.03622437 9.8712616 C272.5265141 9.91715074 278.33925041 10.69347067 283.63793945 14.80541992 C284.07493164 15.34811523 284.51192383 15.89081055 284.9621582 16.44995117 C285.63698242 17.2446582 285.63698242 17.2446582 286.32543945 18.05541992 C289.91901783 24.04471722 291.32334468 30.70120265 292.6027832 37.47729492 C292.96996994 39.3453764 293.33758699 41.21337333 293.70556641 43.08129883 C293.9951976 44.56862518 293.9951976 44.56862518 294.29067993 46.08599854 C298.4359857 67.28262646 303.07717788 88.35176683 307.9621582 109.38745117 C308.1220372 110.07651173 308.2819162 110.76557228 308.44664001 111.47551346 C311.91484764 126.41936648 315.4264276 141.35282865 318.97387695 156.27807617 C319.23824554 157.390522 319.50261414 158.50296783 319.7749939 159.64912415 C321.35624141 166.3018138 321.35624141 166.3018138 322.93981934 172.95394897 C326.18296196 186.57826882 329.33517855 200.21982177 332.37231445 213.89135742 C332.53007166 214.60141119 332.68782887 215.31146496 332.85036659 216.04303551 C334.13102775 221.80957741 335.40932345 227.57664399 336.68718338 233.34380722 C342.54465499 259.76970972 348.87978906 286.05385119 355.6496582 312.26245117 C365.76631857 289.14492266 366.51255169 259.16909296 368.6496582 234.26245117 C368.73366882 233.28628845 368.81767944 232.31012573 368.90423584 231.30438232 C370.90237171 207.91932164 372.66263742 184.51685022 373.8371582 161.07495117 C373.87399719 160.34795013 373.91083618 159.6209491 373.9487915 158.87191772 C374.22331196 153.33686532 374.44169278 147.80035669 374.6496582 142.26245117 C374.69136139 141.20784698 374.73306458 140.1532428 374.77603149 139.06668091 C375.48332709 120.76246099 375.73913826 102.47386758 375.82543945 84.15698242 C375.83736996 81.9353069 375.84947089 79.71363229 375.86174011 77.49195862 C375.93562756 63.77314418 375.93562756 63.77314418 375.97558594 50.05419922 C375.98565126 44.374998 376.01487376 38.69617703 376.05690575 33.01712608 C376.0691733 30.87576856 376.07434481 28.73435757 376.07210732 26.59296608 C376.06975964 23.625358 376.09185764 20.65886367 376.11962891 17.69140625 C376.1130275 16.8203978 376.10642609 15.94938934 376.09962463 15.05198669 C376.19735218 8.6997754 378.03335317 5.29736501 382.2121582 0.44995117 C387.48844502 -3.90872055 397.62379187 -1.98294953 403.96704102 -1.46850586 C407.24028645 -1.1073167 410.50712764 -0.70961795 413.7746582 -0.30004883 C437.77023286 2.48941642 461.98816775 2.99645203 486.0871582 1.38745117 C488.02171875 1.26950195 488.02171875 1.26950195 489.99536133 1.14916992 C497.87142361 0.6364568 505.61938291 -0.19481959 513.42114258 -1.35180664 C519.34971085 -2.0601504 523.72960282 -1.68012147 529.0871582 0.94995117 C532.19596364 3.75545852 532.96146244 5.13327657 533.6496582 9.26245117 C533.46780299 16.9197451 531.53911879 24.02874897 529.40356445 31.33666992 C528.91365524 33.05407127 528.91365524 33.05407127 528.41384888 34.8061676 C527.71537483 37.25346805 527.01339507 39.69977022 526.30819702 42.1451416 C524.45058841 48.59367875 522.62441324 55.05108904 520.7980957 61.50854492 C520.61623655 62.15069569 520.4343774 62.79284645 520.24700737 63.45445633 C515.82952879 79.05965366 511.74649039 94.73655293 507.84155273 110.47680664 C507.02445838 113.76750626 506.19642334 117.05519755 505.36010742 120.34106445 C481.67890132 213.40527009 466.76357011 309.02028009 451.3527832 501.08666992 C451.33314514 501.82043854 451.31350708 502.55420715 451.29327393 503.31021118 C451.20962465 506.57351224 451.14606043 509.83398801 451.11547852 513.09838867 C450.98182423 520.57426448 450.70711188 528.03972973 445.3371582 533.69995117 C438.64023923 537.59350871 433.4222241 537.29572918 425.9621582 536.44995117 C425.03209961 536.35391602 424.10204102 536.25788086 423.14379883 536.15893555 C421.25262562 535.96365848 419.36183574 535.76463545 417.47143555 535.56201172 C387.58837448 532.38961892 357.8721261 532.80320688 328.12866211 537.29663086 C311.17072334 539.8120315 311.17072334 539.8120315 304.6496582 535.26245117 C297.55279859 528.32688382 297.33236878 519.74113922 296.5715332 510.28588867 C296.38216169 508.09070377 296.19236457 505.89555556 296.00219727 503.70043945 C295.90459106 502.55061584 295.80698486 501.40079224 295.7064209 500.21612549 C288.9510624 421.40853796 274.85545907 343.40999653 258.5246582 266.07495117 C258.27188236 264.87593233 258.27188236 264.87593233 258.01399994 263.65269089 C257.04669485 259.06603791 256.07433693 254.48051043 255.09378052 249.8966713 C254.79424165 248.49507202 254.49580709 247.09323625 254.19851685 245.69115829 C253.79131132 243.77376874 253.37860225 241.85755042 252.96557617 239.94140625 C252.73450165 238.86329178 252.50342712 237.78517731 252.26535034 236.6743927 C251.88472535 234.32743732 251.88472535 234.32743732 250.6496582 233.26245117 C231.68598781 320.48338936 218.12026814 409.68380541 216.38793945 499.07885742 C216.36203232 500.33912247 216.36203232 500.33912247 216.33560181 501.62484741 C216.26027569 505.48963486 216.20840751 509.35200515 216.20336914 513.2175293 C216.13186102 521.99625258 215.42770351 529.18613913 209.2746582 535.82495117 C199.67094068 539.63332191 186.92149584 536.98644106 176.75375366 536.03646851 C144.64632219 533.07290952 113.41224378 532.74436189 81.39697266 537.29663086 C65.06305739 539.5877669 65.06305739 539.5877669 58.6496582 535.26245117 C53.39745872 529.71846283 52.35665203 524.53966452 52.12231445 517.09057617 C52.0724791 515.87118851 52.0724791 515.87118851 52.02163696 514.62716675 C51.94968089 512.8568312 51.88145097 511.08634118 51.8164978 509.31573486 C51.63522331 504.44544764 51.41772183 499.57673226 51.2043457 494.70776367 C51.16014999 493.68613129 51.11595428 492.6644989 51.07041931 491.61190796 C46.25281117 381.4931514 31.51421219 270.87948721 -24.2956543 38.22338867 C-24.5142662 37.48620605 -24.73287811 36.74902344 -24.95811462 35.98950195 C-25.92065023 32.75510483 -26.9006074 29.52928043 -27.9140625 26.31030273 C-30.1267451 19.0624776 -32.18718326 11.5790286 -29.1003418 4.32495117 C-21.51132113 -4.61925175 -10.40854182 -1.23718191 0 0 Z " fill="#FFFFFF" transform="translate(36.350341796875,468.737548828125)"/>
<path d="M0 0 C7.22859796 0.66442083 14.46018093 1.29625039 21.69123077 1.93332291 C23.50174776 2.09300374 25.31222366 2.25315112 27.12265778 2.41376877 C46.36195901 4.12029658 65.6138871 5.53272868 84.88451385 6.83820343 C86.49171547 6.94779892 86.49171547 6.94779892 88.1313858 7.05960846 C90.08264289 7.1919476 92.03405711 7.32200308 93.98566437 7.44907379 C99.13440573 7.79475167 104.22213693 8.30271873 109.33641815 8.99347687 C100.04921701 28.86577993 88.32407372 47.3482389 75.33641815 64.99347687 C74.84431854 65.66959015 74.35221893 66.34570343 73.84520721 67.04230499 C66.77359444 76.75024446 59.32198764 86.02279679 51.33641815 94.99347687 C50.87380585 95.51393585 50.41119354 96.03439484 49.93456268 96.57062531 C39.8091555 107.90734318 29.37410381 118.6685091 17.33641815 127.99347687 C16.37993378 128.74371124 15.4234494 129.49394562 14.43798065 130.26691437 C-41.26113185 173.10114 -112.68277754 165.64964402 -178.52198029 158.67072296 C-205.0748841 154.72442495 -205.0748841 154.72442495 -229.60108185 162.18097687 C-234.63164274 169.04083263 -237.97883097 175.7709778 -240.78858185 183.80597687 C-241.12244904 184.72701202 -241.45631622 185.64804718 -241.8003006 186.59699249 C-246.78611516 198.12890079 -246.78611516 198.12890079 -246.66358185 209.99347687 C-245.00390532 212.18472239 -243.31317771 214.27446506 -241.53858185 216.36847687 C-234.18144443 225.30037866 -227.78375315 234.8372596 -221.36328888 244.45343781 C-219.89028951 246.65468536 -218.40463418 248.84618338 -216.9096756 251.03253937 C-206.69470701 266.0336405 -197.55279784 281.74315083 -188.91114044 297.69513702 C-188.07571744 299.23421182 -187.23483902 300.7703372 -186.3886795 302.30353546 C-167.51503453 336.55412981 -152.85555119 373.988219 -143.66358185 411.99347687 C-135.80252567 411.60552864 -128.06737786 411.13638635 -120.28858185 409.86847687 C-113.40404756 408.82441409 -107.29264626 408.60362241 -100.72608185 411.11847687 C-97.38411746 414.15662631 -95.86173463 417.55326688 -95.50119781 421.99320221 C-95.51641725 427.72105659 -96.11468638 433.21972877 -96.98389435 438.87628937 C-97.27231004 440.83895686 -97.56029404 442.80168782 -97.84790802 444.76447296 C-98.00117554 445.79658905 -98.15444305 446.82870514 -98.31235504 447.89209747 C-103.84912684 485.40306114 -107.96720131 523.06734039 -110.91358185 560.86847687 C-110.99071411 561.84419647 -111.06784637 562.81991608 -111.14731598 563.82520294 C-111.72323202 571.21051614 -112.2132989 578.59949267 -112.66358185 585.99347687 C-112.70632736 586.6869862 -112.74907288 587.38049553 -112.79311371 588.09502029 C-114.447757 615.10788589 -114.98447541 642.05166045 -114.92432404 669.11237335 C-114.91295337 674.26409876 -114.91971214 679.41561682 -114.93120193 684.56733513 C-114.98381485 712.42694097 -114.25705676 740.17923063 -112.66358185 767.99347687 C-112.60526436 769.01586645 -112.60526436 769.01586645 -112.54576874 770.05891037 C-112.08135589 778.12675464 -111.52910896 786.18586487 -110.91358185 794.24347687 C-110.79052673 795.88351181 -110.79052673 795.88351181 -110.66498566 797.55667877 C-107.69983565 836.74857512 -103.21598684 875.7943784 -97.8628006 914.72785187 C-97.70225945 915.90639992 -97.70225945 915.90639992 -97.53847504 917.10875702 C-97.06971623 920.46337292 -96.48717856 923.71194347 -95.66358185 926.99347687 C-95.09261231 932.93375607 -95.49343176 937.77806865 -98.66358185 942.99347687 C-104.51098903 948.17640596 -111.06801349 947.56548597 -118.58692169 947.14826202 C-122.73712571 946.83892399 -126.85814668 946.31321807 -130.98462677 945.78058624 C-159.0908714 942.22833482 -188.47896837 943.22025154 -216.5503006 946.67707062 C-217.83771149 946.83490021 -217.83771149 946.83490021 -219.15113068 946.99591827 C-220.66803992 947.19291947 -222.18279404 947.40800572 -223.69361115 947.64728546 C-229.22261512 948.38999744 -233.669241 947.29451787 -238.66358185 944.99347687 C-242.58058025 941.66402822 -243.19944318 938.5317031 -243.67676544 933.64582062 C-243.65162906 928.58875238 -242.12930198 923.87973799 -240.72608185 919.05597687 C-240.15280644 917.00565927 -239.58110852 914.95489972 -239.0112381 912.90363312 C-238.75350616 912.00781525 -238.49577423 911.11199738 -238.23023224 910.18903351 C-237.58028158 908.04863658 -237.58028158 908.04863658 -237.66358185 905.99347687 C-238.1740506 906.92546906 -238.68451935 907.85746124 -239.21045685 908.81769562 C-251.26235444 930.19499593 -268.8644939 945.67214635 -292.35108185 953.36847687 C-315.46088249 959.76115122 -340.03348133 958.74756292 -361.66358185 947.99347687 C-365.5987966 945.60772086 -369.13228683 942.93886195 -372.66358185 939.99347687 C-373.57752716 939.25355499 -374.49147247 938.51363312 -375.4331131 937.75128937 C-411.94735826 906.59927601 -419.9426096 849.89346354 -423.91358185 804.80597687 C-424.19466344 801.20350509 -424.43512007 797.59961614 -424.66358185 793.99347687 C-424.71997833 793.20328156 -424.77637482 792.41308624 -424.83448029 791.59894562 C-427.03222942 760.23225387 -426.93255201 728.16431931 -422.66358185 696.99347687 C-422.5243631 695.96609406 -422.38514435 694.93871124 -422.24170685 693.88019562 C-415.69961782 647.66154815 -397.93011506 596.4164562 -359.87549591 566.59210968 C-341.24483154 553.11088267 -321.39637301 547.44849002 -298.6049881 550.46222687 C-271.64055309 555.2559042 -249.63017029 570.99905279 -233.66358185 592.99347687 C-230.43773569 597.86209294 -227.55501777 602.92234309 -224.66358185 607.99347687 C-224.00358185 608.98347687 -223.34358185 609.97347687 -222.66358185 610.99347687 C-225.33587199 559.72410952 -229.63799174 508.70393145 -235.68881989 457.72785187 C-236.10038613 454.25828888 -236.50798142 450.78827742 -236.91504669 447.3181839 C-237.38651957 443.30099222 -237.87722434 439.28701693 -238.38477325 435.27423859 C-238.5888834 433.57524221 -238.79253178 431.87619027 -238.9956131 430.17707062 C-239.09508743 429.43691208 -239.19456177 428.69675354 -239.29705048 427.93416595 C-239.84936674 423.14629336 -239.36691999 419.49810679 -237.66358185 414.99347687 C-233.53366237 410.24406946 -230.48794401 409.55647179 -224.3628006 409.06085968 C-220.11484474 408.95481447 -216.09381324 409.61206391 -211.91358185 410.30597687 C-200.71663928 411.98171632 -189.52207248 412.63068026 -178.22608185 413.18097687 C-177.35705231 413.22340515 -176.48802277 413.26583344 -175.592659 413.30954742 C-170.61680741 413.54963726 -165.6405047 413.77678446 -160.66358185 413.99347687 C-177.94150678 342.68724116 -206.93828928 266.05779028 -256.29297638 210.53595734 C-257.6659129 208.9908535 -259.02201073 207.43199157 -260.3784256 205.87238312 C-267.81437325 197.4330562 -276.15245648 188.4311915 -286.66358185 183.99347687 C-305.2719484 184.29361181 -322.22476845 204.00881436 -335.21045685 215.82160187 C-337.76322775 218.0816984 -340.38375862 220.22944786 -343.03858185 222.36847687 C-347.05190648 225.61305199 -350.88716704 228.98150837 -354.66358185 232.49347687 C-360.14588905 237.57483139 -365.80996247 242.34565923 -371.66358185 246.99347687 C-372.57841339 247.73307648 -372.57841339 247.73307648 -373.51172638 248.48761749 C-412.85905257 280.27295449 -454.50057426 306.76358475 -506.84912872 301.68439484 C-520.87167167 299.96128575 -534.30980623 296.53441948 -547.66358185 291.99347687 C-548.43444122 291.7372757 -549.2053006 291.48107452 -549.99951935 291.21710968 C-572.52171017 283.66231756 -594.44327013 273.01241557 -613.66358185 258.99347687 C-612.12331739 254.72812915 -608.91747085 252.60435688 -605.41358185 249.99347687 C-600.28088098 246.07188521 -595.29136061 242.04073901 -590.41358185 237.80597687 C-586.55160403 234.45935358 -582.67616745 231.16027237 -578.66358185 227.99347687 C-573.96879949 224.28544679 -569.44220919 220.40055849 -564.91455841 216.49225616 C-561.29263072 213.37162141 -557.63079953 210.31340051 -553.91358185 207.30597687 C-549.53850437 203.75602365 -545.35808993 200.03783866 -541.19483185 196.24347687 C-537.68558699 193.12414811 -534.03196062 190.19598554 -530.38233185 187.24347687 C-527.74210455 185.05846118 -525.19628464 182.80176296 -522.66358185 180.49347687 C-518.35936177 176.57064338 -513.8971728 172.89293995 -509.36670685 169.23566437 C-506.79882857 167.10566128 -504.35557098 164.89065881 -501.91358185 162.61847687 C-470.91076738 134.59388552 -434.68477061 126.01401369 -393.66358185 127.99347687 C-347.39799501 131.67300855 -300.42781339 156.29368383 -266.60108185 187.30597687 C-266.07715851 187.78518585 -265.55323517 188.26439484 -265.01343536 188.75812531 C-262.46111301 191.14331903 -260.12616526 193.57744699 -257.9174881 196.28644562 C-255.95022671 199.01732487 -255.95022671 199.01732487 -253.66358185 199.99347687 C-253.50502716 198.53748077 -253.50502716 198.53748077 -253.34326935 197.05207062 C-252.6884733 192.52854013 -251.3063946 188.35601464 -249.78858185 184.05597687 C-249.33273712 182.76421539 -249.33273712 182.76421539 -248.86768341 181.44635773 C-233.48215611 139.09077262 -208.60336809 98.48011771 -177.92920685 65.44269562 C-175.95600668 63.3095982 -174.05063482 61.139887 -172.16358185 58.93097687 C-165.58150637 51.3732055 -158.35907113 44.4063846 -150.66358185 37.99347687 C-150.17889435 37.57904327 -149.69420685 37.16460968 -149.19483185 36.73761749 C-103.59960106 -2.1169722 -57.14691015 -5.29191359 0 0 Z M-285.66358185 654.99347687 C-286.3287381 655.46785187 -286.99389435 655.94222687 -287.67920685 656.43097687 C-309.29517584 673.59174614 -313.84522589 708.78348661 -316.92920685 734.18097687 C-317.31942126 737.78295608 -317.54411787 741.37319886 -317.66358185 744.99347687 C-317.70354279 745.86101593 -317.74350372 746.72855499 -317.7846756 747.62238312 C-318.52983358 778.43685741 -312.93338142 813.34016932 -292.28858185 837.49347687 C-281.69029301 848.36585938 -269.75212843 854.93037143 -254.49365997 855.53107452 C-244.67363467 855.63068099 -235.03430179 854.57395683 -226.66358185 848.99347687 C-226.20967487 847.01475114 -226.20967487 847.01475114 -226.28263092 844.69615936 C-226.27417145 843.79293442 -226.26571198 842.88970947 -226.25699615 841.95911407 C-226.26306885 840.96458221 -226.26914154 839.97005035 -226.27539825 838.94538116 C-226.2701413 837.8992717 -226.26488434 836.85316223 -226.25946808 835.77535248 C-226.24618898 832.28931787 -226.25505123 828.80373557 -226.26514435 825.31769562 C-226.2631218 822.87895877 -226.26020886 820.44022252 -226.25644684 818.00148773 C-226.25200951 812.86228489 -226.25848479 807.72323781 -226.27246857 802.58405304 C-226.28932016 796.08184612 -226.27960643 789.58001384 -226.26213932 783.07782078 C-224.29770377 721.46641773 -224.29770377 721.46641773 -245.66358185 664.99347687 C-246.1121756 664.35023468 -246.56076935 663.70699249 -247.02295685 663.04425812 C-251.48229838 657.26966136 -257.76756203 653.29215014 -264.66358185 650.99347687 C-272.52760265 650.33724531 -279.12220078 650.29710072 -285.66358185 654.99347687 Z " fill="#FFFFFF" transform="translate(2930.6635818481445,58.00652313232422)"/>
<path d="M0 0 C0.57363281 0.45552246 1.14726563 0.91104492 1.73828125 1.38037109 C8.41893281 6.73711305 14.71111106 12.22477225 20 19 C20.70511719 19.88042969 21.41023438 20.76085937 22.13671875 21.66796875 C27.87315504 29.04060419 32.6813871 36.74199124 37 45 C37.30679687 45.58620117 37.61359375 46.17240234 37.9296875 46.77636719 C61.5754956 92.77959 63.31915776 154.5788211 48.3984375 203.46875 C41.40080322 224.94222059 30.66747633 242.74528693 15 259 C14.03513672 260.05960938 14.03513672 260.05960938 13.05078125 261.140625 C6.85470884 267.75335303 -0.63598341 272.78382158 -8 278 C-6.58074219 278.98613281 -6.58074219 278.98613281 -5.1328125 279.9921875 C32.3749219 306.7066056 55.72395389 345.61564124 64.76538086 390.3656311 C70.98182334 421.00782421 77.82750591 452.94208753 90.17675781 481.79003906 C92.33270384 487.57759049 92.99405519 493.41545651 90.75 499.25 C88.68556599 502.49411059 86.9189336 504.39534696 83.21484375 505.5625 C75.15513881 507.15454048 66.53281234 505.92926765 58.4375 505.0625 C27.02697808 501.75196973 -4.80329363 501.85692554 -36.20874023 505.10839844 C-36.95030869 505.18091827 -37.69187714 505.25343811 -38.45591736 505.32815552 C-40.44767428 505.52465146 -42.43779805 505.73751138 -44.42773438 505.95166016 C-49.00111369 506.01354706 -53.17733079 505.39737973 -56.875 502.5625 C-60.49487081 497.53490165 -59.4592374 490.01490143 -58.57568359 484.21435547 C-57.98064361 481.28037042 -57.33817438 478.35963212 -56.6875 475.4375 C-52.19307049 453.49945455 -50.75938141 431.23556564 -50.625 408.875 C-50.61705414 408.18801025 -50.60910828 407.50102051 -50.60092163 406.79321289 C-50.38277545 382.45763107 -56.91759383 362.35676989 -73.640625 344.37109375 C-90.53667593 327.39112204 -113.19781266 319.04754067 -136.31640625 314.7265625 C-140 314 -140 314 -142 313 C-138.72293666 356.3183908 -134.93404268 399.39881504 -128.4375 442.375 C-128.29556213 443.31496826 -128.15362427 444.25493652 -128.00738525 445.22338867 C-126.3342399 456.22049251 -124.47884938 467.1618428 -122.28587341 478.06832886 C-120.82629654 485.43940383 -119.67133026 492.27972472 -122.25 499.5 C-124.9764027 503.394861 -127.38791638 505.06933623 -132 506 C-139.025407 506.47319375 -145.81706349 505.60054492 -152.75 504.5625 C-181.45220521 500.57563111 -211.72394422 500.49516261 -240.5078125 503.83984375 C-242.44781128 504.06256958 -242.44781128 504.06256958 -244.42700195 504.28979492 C-246.9591429 504.58970605 -249.48919574 504.90799415 -252.01635742 505.24731445 C-258.90523278 506.07481699 -264.75639928 506.42680637 -271 503 C-275.84532539 498.03354148 -276.19485229 494.68365489 -276.12921143 487.99603271 C-275.93904616 483.58665994 -275.25615488 479.34328661 -274.4609375 475.0078125 C-274.12725334 473.09059474 -273.79368075 471.17335755 -273.46020508 469.25610352 C-273.19477402 467.75987961 -273.19477402 467.75987961 -272.92398071 466.23342896 C-264.34573024 417.6618097 -258.59913634 368.64437389 -255.25 319.4375 C-255.19083405 318.5703537 -255.13166809 317.7032074 -255.07070923 316.80978394 C-254.67236835 310.87532208 -254.32057575 304.93914962 -254 299 C-253.9516098 298.11921783 -253.9032196 297.23843567 -253.85336304 296.33096313 C-252.86949034 277.82957834 -252.79823611 259.33407114 -252.8125 240.8125 C-252.81290031 239.64433935 -252.81290031 239.64433935 -252.81330872 238.4525795 C-252.82468886 211.92524329 -253.21421987 185.47633439 -255 159 C-255.06552063 158.02661682 -255.13104126 157.05323364 -255.19854736 156.050354 C-257.96300486 115.52685958 -262.23594919 75.25815748 -268.0625 35.0625 C-268.22826538 33.91617096 -268.39403076 32.76984192 -268.56481934 31.58877563 C-270.37238418 19.16048007 -272.25665905 6.76896376 -274.77809143 -5.53807068 C-276.19138941 -12.79322541 -277.56092072 -20.6380169 -274.375 -27.5 C-270.94371727 -31.11187656 -267.72536183 -32.82643067 -262.73828125 -33.328125 C-261.60777344 -33.30234375 -260.47726562 -33.2765625 -259.3125 -33.25 C-258.19488281 -33.23453125 -257.07726563 -33.2190625 -255.92578125 -33.203125 C-252.94872148 -33.04908808 -250.03589844 -32.80820366 -247.07421875 -32.50390625 C-239.55861163 -31.8029688 -232.04222517 -31.71460906 -224.5 -31.6875 C-223.68719574 -31.68355225 -222.87439148 -31.67960449 -222.03695679 -31.67553711 C-205.4051847 -31.63899555 -188.89198178 -32.7772422 -172.3125 -34 C-113.36234805 -38.31374389 -48.7005332 -38.86453649 0 0 Z M-127.78515625 71.9765625 C-161.42176677 113.78575102 -145.11657855 208.71705927 -144 258 C-139.60429784 258.08852235 -135.2088306 258.14089579 -130.8125 258.1875 C-129.58595703 258.21263672 -128.35941406 258.23777344 -127.09570312 258.26367188 C-109.3089577 258.40446406 -94.02723681 253.38550101 -81 241 C-55.18740745 213.09562523 -49.99086497 171.63598905 -51 135 C-51.01788574 134.32275879 -51.03577148 133.64551758 -51.05419922 132.94775391 C-51.69515351 111.47812431 -53.25737658 85.39274732 -68.171875 68.546875 C-78.26247109 59.15218209 -88.97359162 56.42165493 -102.57421875 56.69921875 C-113.58177702 57.66567484 -120.60026272 64.02129745 -127.78515625 71.9765625 Z " fill="#FFFFFF" transform="translate(1712,500)"/>
<path d="M0 0 C1.89105469 -0.00386719 1.89105469 -0.00386719 3.8203125 -0.0078125 C7.44294588 0.05839287 10.98759522 0.44325035 14.58300781 0.87109375 C43.46255143 4.07036147 74.30249769 3.53647506 103.18823242 0.7487793 C120.96539604 -0.91465632 120.96539604 -0.91465632 126.5 3.5625 C130.71757886 8.11304562 130.17772089 11.81251089 130.12939453 17.85253906 C129.82207711 25.08366113 128.25656332 32.15729326 126.85583496 39.23999023 C125.9034633 44.0778072 125.00313366 48.92521467 124.10546875 53.7734375 C123.91848419 54.78279358 123.73149963 55.79214966 123.53884888 56.83209229 C117.8904666 87.68712449 113.88196113 118.90670608 110.875 150.125 C110.69928467 151.86595947 110.69928467 151.86595947 110.52001953 153.64208984 C109.05796884 168.49504762 108.63941525 183.34169492 108.52453613 198.25808716 C108.50846186 200.21816913 108.48646504 202.17821355 108.45788574 204.13815308 C108.17755824 225.57464922 110.94554825 247.51925893 125.875 264.125 C135.34767158 272.59061015 145.62049826 275.9088339 158.23046875 275.5 C169.68556906 274.32134016 178.73633142 268.47453692 186 259.625 C201.08242127 237.72978048 203.45000848 213.17322544 202.6875 187.3125 C202.66200073 186.34135254 202.63650146 185.37020508 202.61022949 184.36962891 C201.18639628 130.83350028 195.85177349 77.23125873 185.47290039 24.66772461 C184.34698973 17.99639364 183.71590719 11.87784542 186.375 5.5625 C190.87888365 1.17121344 194.38456034 0.11704332 200.54296875 0.13671875 C204.03923003 0.30316843 207.52081835 0.60470982 211.00830078 0.90087891 C224.17806035 1.93050242 237.29882904 2.28596471 250.50585938 2.25537109 C253.24094211 2.25001773 255.97585972 2.25535355 258.7109375 2.26171875 C267.72724103 2.26555625 276.72017067 2.11845208 285.7265625 1.6796875 C286.52992035 1.64094513 287.3332782 1.60220276 288.16098022 1.56228638 C293.10613736 1.29503161 297.96488329 0.76674678 302.875 0.125 C305.2686147 -0.00755374 307.66543042 -0.09307454 310.0625 -0.125 C311.23167969 -0.15078125 312.40085937 -0.1765625 313.60546875 -0.203125 C318.36511898 0.27454599 320.72495017 1.92482115 323.9921875 5.33447266 C330.08554048 14.3654665 324.77766056 31.89510377 323.16854858 41.96975708 C320.28135953 60.15686847 317.91399344 78.36686372 316.0625 96.6875 C315.96385651 97.64340027 315.86521301 98.59930054 315.76358032 99.58416748 C315.06260372 106.42557505 314.45845309 113.27269908 313.875 120.125 C313.78591779 121.13065695 313.69683558 122.1363139 313.6050539 123.1724453 C311.42995478 148.46996191 311.65957135 173.74425248 311.77100682 199.11382937 C311.79506498 205.28973991 311.80472507 211.46567096 311.81529236 217.64161682 C311.84904305 235.93411822 311.90193545 254.22655685 311.9644165 272.51898193 C312.01309531 286.78805183 312.05507501 301.05706733 312.07592481 315.32620865 C312.08732246 322.62965844 312.1124944 329.93287992 312.14867222 337.23624694 C312.16808627 341.80109488 312.17456944 346.36589887 312.17773628 350.93078423 C312.18169825 353.01868363 312.19072559 355.10658184 312.20569992 357.1944313 C312.55572904 407.89260234 298.20781094 456.11187305 263.875 494.125 C262.72837891 495.39730469 262.72837891 495.39730469 261.55859375 496.6953125 C249.90553084 508.95961899 235.89211303 518.48567649 220.875 526.125 C219.4828125 526.84236328 219.4828125 526.84236328 218.0625 527.57421875 C206.78702836 533.02288416 194.56563132 536.69309331 182.375 539.4375 C181.67044678 539.59677979 180.96589355 539.75605957 180.23999023 539.92016602 C168.58929308 542.39773079 156.91705475 542.32367261 145.0625 542.3125 C143.73351685 542.31308914 143.73351685 542.31308914 142.37768555 542.31369019 C129.99871503 542.3071518 117.75733139 541.89041831 105.41357422 540.91357422 C96.50887955 540.21199221 87.61350746 539.73339342 78.6875 539.4375 C78.01976563 539.41485077 77.35203125 539.39220154 76.6640625 539.36886597 C66.14190759 539.03125244 55.69543963 539.2167155 45.19458008 539.98168945 C38.26322552 540.40647589 32.72518052 540.09284748 27 535.6796875 C23.97556784 531.16404226 23.55622318 526.93264974 23.62890625 521.61328125 C23.63443008 520.87538864 23.63995392 520.13749603 23.64564514 519.37724304 C23.7991072 510.01849408 24.82042285 500.73704834 25.8125 491.4375 C27.4077173 476.10296603 28.87280301 460.89751432 29.0859375 445.46875 C29.10038406 444.42869308 29.11483063 443.38863617 29.12971497 442.31706238 C29.18695105 437.98354715 29.24183011 433.65016938 29.27636719 429.31640625 C29.30394935 426.11687537 29.34974912 422.91802002 29.3984375 419.71875 C29.40169037 418.74369507 29.40494324 417.76864014 29.40829468 416.76403809 C29.50359231 411.49851077 29.86701951 407.65124184 32.875 403.125 C35.98453379 401.5702331 38.43766761 401.83855563 41.875 402.125 C46.13343748 404.69635159 49.97986096 407.72719216 53.875 410.8125 C79.10874164 430.3878983 106.49077548 441.38171193 138.9375 437.4375 C157.79023933 434.3206292 175.88024619 426.77902459 187.38671875 410.7578125 C206.7998876 382.17052119 207.52241369 349.22439579 206.5 315.875 C206.47885132 315.17364929 206.45770264 314.47229858 206.43591309 313.74969482 C206.22857236 304.87324732 206.22857236 304.87324732 204.875 296.125 C204.43929687 297.15238281 204.00359375 298.17976563 203.5546875 299.23828125 C195.60229912 317.82310741 185.88706436 333.56673823 171.875 348.125 C170.91013672 349.20201172 170.91013672 349.20201172 169.92578125 350.30078125 C153.40986002 368.17810163 127.35217935 377.32074976 103.48046875 378.34375 C79.18612246 379.00584429 55.38031404 373.62227908 37.17236328 356.58203125 C3.16185774 323.12098656 2.18313527 264.2764813 1.48739624 219.92300415 C0.51346381 160.42853982 -3.67775035 101.31073895 -12.9140625 42.48828125 C-13.05842743 41.5622258 -13.20279236 40.63617035 -13.35153198 39.68205261 C-14.03418325 35.31963646 -14.73521584 30.9617305 -15.47216797 26.6081543 C-15.72141972 25.06174918 -15.97030192 23.51528444 -16.21875 21.96875 C-16.40251694 20.94706474 -16.40251694 20.94706474 -16.58999634 19.90473938 C-17.40127335 14.71294614 -16.73438234 11.04154606 -15.125 6.125 C-10.4475578 0.48808247 -7.11127994 -0.01436622 0 0 Z " fill="#FFFFFF" transform="translate(2864.125,618.875)"/>
<path d="M0 0 C1.13824219 0.10828125 2.27648437 0.2165625 3.44921875 0.328125 C6.09888391 0.62222966 8.74688859 0.9232479 11.39453125 1.234375 C35.03067256 4.00605704 58.56530556 4.46016884 82.3125 2.875 C83.50093506 2.79660889 84.68937012 2.71821777 85.91381836 2.63745117 C92.78360606 2.13712378 99.52502361 1.33181227 106.31640625 0.1784668 C113.35393231 -0.8494009 120.20485372 -1.52583518 126.25 2.75 C130.99313362 8.00590483 131.53779983 11.12514167 131.47314453 18.04736328 C131.08413342 24.50222379 129.84247951 30.79234014 128.65863037 37.14151001 C118.26314672 93.318736 112.9343228 150.37442933 109.73046875 207.37109375 C109.65589699 208.69224434 109.65589699 208.69224434 109.57981873 210.04008484 C109.36809705 213.94842295 109.18855631 217.83408847 109.25 221.75 C109.65089844 220.69683594 110.05179688 219.64367187 110.46484375 218.55859375 C116.30589514 203.58718554 123.61660998 190.87057743 134.25 178.75 C134.94609375 177.90953125 135.6421875 177.0690625 136.359375 176.203125 C153.80903313 155.69659246 179.73792752 143.58348602 206.25 140.75 C228.97173044 139.09531546 250.30393485 141.9358351 268.3125 157.03125 C268.951875 157.5984375 269.59125 158.165625 270.25 158.75 C271.11625 159.47703125 271.11625 159.47703125 272 160.21875 C307.60620485 192.52808403 310.47331321 256.43012979 312.64979553 300.46955872 C313.29459067 314.29111426 313.4916295 328.10204633 313.5 341.9375 C313.50100708 343.10921753 313.50201416 344.28093506 313.50305176 345.48815918 C313.46662868 408.61791671 306.85081141 481.86710995 261.5 529.9375 C247.45239323 543.61543291 231.27642605 548.11848508 212.296875 547.8984375 C188.76468693 547.3559343 164.90263168 540.94450569 147.25 524.75 C146.50621094 524.09773437 145.76242187 523.44546875 144.99609375 522.7734375 C134.57793348 513.09813736 127.64091606 500.29905041 121.25 487.75 C121.5599766 490.93775058 121.87344236 494.1251491 122.1875 497.3125 C122.27451172 498.20775391 122.36152344 499.10300781 122.45117188 500.02539062 C122.83084517 503.86430952 123.23891828 507.6747072 123.80078125 511.4921875 C124.82118916 518.89236311 125.92301597 527.46559921 121.25 533.75 C117.39450264 537.8258115 113.68133769 538.57178683 108.25 538.75 C104.43047457 538.47301561 100.6630435 537.92886774 96.875 537.375 C86.65484881 535.99776142 76.55827356 535.01932132 66.25 534.75 C65.48284668 534.72808594 64.71569336 534.70617187 63.92529297 534.68359375 C43.12140817 534.17525203 22.07248289 535.55728131 1.45092773 538.31591797 C-3.41928987 538.89716185 -7.072885 538.55112503 -11.75 536.75 C-15.63752182 533.20052355 -17.16357857 530.46331527 -17.69171143 525.24493408 C-17.81752562 519.85969113 -16.97223526 514.53961577 -16.2734375 509.2109375 C-16.10518196 507.8684319 -15.93799763 506.52579168 -15.77180481 505.18302917 C-15.41641706 502.3212944 -15.05604028 499.46025383 -14.69174194 496.59963989 C-13.72644153 489.00375171 -12.80537867 481.40242925 -11.88671875 473.80078125 C-11.79385149 473.03373053 -11.70098423 472.2666798 -11.60530281 471.47638512 C-7.15140174 434.59804059 -4.02142656 397.53745788 -1.90429688 360.45251465 C-1.80157623 358.65335924 -1.69741355 356.85428558 -1.59179688 355.05529785 C4.14916724 256.97606443 -0.25484055 157.56485202 -12.66015625 58.1484375 C-12.90421959 56.19222221 -12.90421959 56.19222221 -13.1532135 54.19648743 C-13.94942503 47.84879487 -14.76292035 41.50393034 -15.6027832 35.16186523 C-15.8992763 32.8644238 -16.19574562 30.56697929 -16.4921875 28.26953125 C-16.70579674 26.71684036 -16.70579674 26.71684036 -16.92372131 25.13278198 C-18.85081102 10.01669625 -18.85081102 10.01669625 -14.5625 4.3125 C-10.07497752 0.2238684 -5.94346017 -0.5974907 0 0 Z M135.25 252.75 C122.00326342 270.07481897 117.25885075 292.43871375 115.25 313.75 C115.16736404 314.51741013 115.08472809 315.28482025 114.99958801 316.07548523 C113.87399951 328.05125863 114.12529019 340.06616676 114.15234375 352.08203125 C114.15421172 354.52967805 114.15563383 356.97732523 114.15663147 359.42497253 C114.16042678 365.8281459 114.17023118 372.23129614 114.18133545 378.63446045 C114.19161417 385.18403816 114.19614286 391.73361965 114.20117188 398.28320312 C114.21185645 411.10547855 114.22870086 423.92773804 114.25 436.75 C115.66402333 437.39358008 117.07971965 438.03348506 118.49609375 438.671875 C119.2842749 439.02862305 120.07245605 439.38537109 120.88452148 439.75292969 C132.62849362 444.70311879 146.51557138 444.13825793 158.359375 439.9375 C175.48417547 432.90244683 187.06437362 419.22390956 194.359375 402.5234375 C199.54753194 389.90174001 203.10587109 376.34920309 204.25 362.75 C204.31558105 362.02506348 204.38116211 361.30012695 204.44873047 360.55322266 C207.34767438 326.70440276 204.39839413 281.09284999 181.80859375 253.421875 C175.2837869 246.42283407 169.32834434 241.71672352 159.4375 241.3125 C149.53983393 241.60905928 141.8340006 245.38251708 135.25 252.75 Z " fill="#FFFFFF" transform="translate(951.75,467.25)"/>
<path d="M0 0 C2.43375838 2.25207156 4.74294033 4.57271516 7 7 C7.97540791 7.98291105 8.95426764 8.96241598 9.9375 9.9375 C10.618125 10.618125 11.29875 11.29875 12 12 C11.835 11.484375 11.67 10.96875 11.5 10.4375 C10.23195435 4.25577744 10.88444955 -0.49586087 14 -6 C23.12388084 -13.22307233 33.53956422 -11.1598714 44.4375 -10.01171875 C56.76735262 -8.83529186 69.03192198 -8.72900778 81.40966797 -8.79418945 C85.02448517 -8.81262487 88.6390465 -8.81469688 92.25390625 -8.81445312 C103.88834391 -8.83248445 115.40029102 -9.07507736 127 -10 C129.85980628 -10.14676264 132.69763564 -10.21474013 135.5625 -10.25 C136.84253906 -10.27578125 138.12257813 -10.3015625 139.44140625 -10.328125 C144.17749968 -9.89142703 147.59502099 -8.55032166 150.8125 -5 C154.86832342 1.8308605 152.84563474 9.95855748 151.42578125 17.32421875 C151.08664712 19.15628199 150.74779172 20.98839684 150.40917969 22.82055664 C150.14059143 24.25384811 150.14059143 24.25384811 149.86657715 25.71609497 C144.45461995 54.73934 140.4374028 83.72662155 137.75 113.125 C137.66673462 114.03476593 137.58346924 114.94453186 137.49768066 115.88186646 C135.56195761 137.30206778 134.79302943 158.55274644 134.8125 180.0625 C134.81310425 181.2991037 134.8137085 182.5357074 134.81433105 183.80978394 C134.84053409 203.61943865 135.26450982 223.25879921 137 243 C137.06316406 243.73428223 137.12632812 244.46856445 137.19140625 245.22509766 C140.08339826 278.70274048 144.49326032 312.06396344 151.17138672 345.00561523 C154.56654133 362.07145453 154.56654133 362.07145453 150 369 C146.32038073 373.12563373 143.08330918 373.45029152 137.8581543 373.89477539 C132.84815648 374.07922137 127.92179538 373.52713157 122.9375 373.0625 C93.80452113 370.72751754 63.96350884 370.7677414 34.8671875 373.5625 C27.41693713 374.27177745 21.11900047 374.86769925 15 370 C11.02952938 364.42335195 12.04151179 358.3952023 13 352 C13.90554128 347.26993608 14.9437252 342.57342989 16 337.875 C18.44232876 327.01228455 18.44232876 327.01228455 20 316 C19.5875 317.07636719 19.175 318.15273438 18.75 319.26171875 C9.20154567 343.63466706 -5.71199705 363.92234205 -30 375 C-53.6106169 384.47160553 -82.3570239 386.14065863 -106.01953125 376.375 C-130.77171404 365.45016228 -145.58072067 343.27177763 -155.13671875 318.78222656 C-171.01225736 276.78734826 -174.41569357 231.53912851 -175.93035889 187.03985596 C-175.99172358 185.24242436 -176.05820707 183.44516907 -176.12548828 181.64794922 C-178.13555889 122.2650091 -164.37506684 53.73338823 -126 7 C-125.28199219 6.11570312 -124.56398438 5.23140625 -123.82421875 4.3203125 C-110.45038746 -11.37621343 -92.18970539 -21.74571644 -71.6875 -24.75 C-44.41694552 -26.59885115 -20.46937613 -17.83074561 0 0 Z M-42 86 C-53.44795245 100.17365541 -59.42129735 116.8659414 -63.1875 134.5 C-63.34226807 135.221875 -63.49703613 135.94375 -63.65649414 136.6875 C-66.39485098 150.21995619 -67.37676917 163.42562258 -67.3125 177.1875 C-67.31067719 177.99982086 -67.30885437 178.81214172 -67.30697632 179.64907837 C-67.2604454 191.98098455 -66.77696185 203.93800285 -64 216 C-63.83902832 216.74088867 -63.67805664 217.48177734 -63.51220703 218.24511719 C-58.98173325 238.55173645 -49.55841104 260.69591046 -32 273 C-20.02589419 280.10581926 -8.23444441 283.14934469 5.58984375 280.24609375 C10.34679797 278.83066396 14.7658243 277.15537774 19.19360352 274.92089844 C19.90815201 274.56106873 20.6227005 274.20123901 21.35890198 273.83050537 C21.90046432 273.5564386 22.44202667 273.28237183 23 273 C23.07072572 258.45493903 23.12329417 243.90990142 23.15543652 229.36470222 C23.17077108 222.60798448 23.19159644 215.85137481 23.22631836 209.09472656 C23.25934479 202.55238602 23.27694248 196.01015669 23.28463173 189.46773911 C23.29009871 186.99397917 23.30076921 184.52022408 23.31719017 182.0465126 C23.52248217 149.78460152 22.75179312 110.29449579 -0.58984375 85.23828125 C-7.59712481 78.73070905 -14.73949126 76.61872124 -24.1171875 76.71875 C-31.30225613 77.41973231 -36.86447199 81.0821728 -42 86 Z M21 310 C22 312 22 312 22 312 Z " fill="#FFFFFF" transform="translate(2337,631)"/>
<path d="M0 0 C0.67256836 0.17337891 1.34513672 0.34675781 2.03808594 0.52539062 C20.24865331 5.32418581 38.12518351 15.31840098 52 28 C52.58040039 28.52287598 53.16080078 29.04575195 53.75878906 29.58447266 C82.90897991 56.19678975 95.66350818 93.74849694 97.89038086 132.40600586 C99.3456099 166.84210505 88.51814638 197.47496554 65.3203125 222.97265625 C44.1371857 245.5726169 10.48090125 260.79974893 -20.56640625 262.1081543 C-48.40036051 262.68567113 -75.45345458 259.59065926 -102 251 C-97.48399666 267.73754709 -92.6288676 281.52541176 -80 294 C-79.06220703 294.97066406 -79.06220703 294.97066406 -78.10546875 295.9609375 C-63.58369507 309.96298455 -42.42815617 311.50337699 -23.37109375 311.28125 C9.20339765 310.30023836 37.34417438 293.8308963 59.7734375 271.20703125 C60.43996338 270.53502686 61.10648926 269.86302246 61.79321289 269.1706543 C63.11358398 267.83304224 64.42814545 266.4896639 65.73608398 265.13989258 C68.91560457 261.89813564 71.82818229 258.94829681 76 257 C79.1875 257.0625 79.1875 257.0625 82 258 C87.71684566 266.63668711 85.01793228 282.63777498 84.90377808 292.61825562 C84.66653239 315.86003084 85.83973753 338.89088466 88.578125 361.9765625 C89.08050619 366.37966155 89.25585551 370.75790086 89.3125 375.1875 C89.34150391 375.95513672 89.37050781 376.72277344 89.40039062 377.51367188 C89.45936091 382.80738855 88.71901776 385.95300587 85 390 C79.02139746 394.64716088 71.70143057 394.95420579 64.40921021 395.66851807 C60.74278123 396.02958434 57.08238172 396.44302816 53.421875 396.859375 C52.65508926 396.94611481 51.88830353 397.03285461 51.09828186 397.1222229 C43.15974994 398.04861259 35.2988374 399.37382273 27.42303467 400.72241211 C-33.5054524 411.1137321 -97.58860145 409.21516983 -150 373 C-153.82167658 370.15963134 -157.43500858 367.15485966 -161 364 C-161.48952148 363.57074219 -161.97904297 363.14148438 -162.48339844 362.69921875 C-196.94265649 332.36982739 -216.35491912 289.8297135 -224 245 C-224.16226074 244.07155273 -224.32452148 243.14310547 -224.49169922 242.18652344 C-229.40982351 212.55596656 -229.43325588 179.55186755 -224 150 C-223.73461426 148.55173828 -223.73461426 148.55173828 -223.46386719 147.07421875 C-214.10936429 97.76516374 -191.92146505 50.60256627 -149.76220703 21.28369141 C-106.21305066 -8.33874898 -50.13973955 -13.5268342 0 0 Z M-80 87 C-101.42230473 114.53100881 -107.35324405 157.09392363 -107 191 C-84.69517794 197.90140193 -55.20382841 206.86698597 -32.81640625 195.93359375 C-22.11606072 189.80466238 -16.64550812 181.08771316 -13.28295898 169.4050293 C-11.63428069 163.31858935 -10.2283078 157.31651573 -10 151 C-9.92265625 149.09734375 -9.92265625 149.09734375 -9.84375 147.15625 C-9.23276569 124.52954908 -12.507655 98.41856312 -28.4921875 81.2734375 C-36.1379444 74.34223732 -44.76798385 72.57839203 -54.81640625 72.73828125 C-65.656934 73.62946574 -72.84020668 79.10185299 -80 87 Z " fill="#FFFFFF" transform="translate(2044,613)"/>
<path d="M0 0 C0.82371094 0.7425 1.64742187 1.485 2.49609375 2.25 C3.37136719 2.971875 4.24664063 3.69375 5.1484375 4.4375 C31.98403188 27.23042952 45.76900921 62.62391799 49.02929688 97.015625 C51.56329474 129.18406105 46.83612981 161.16689494 26.49609375 187.25 C25.69429687 188.27867187 24.8925 189.30734375 24.06640625 190.3671875 C2.53256182 217.22776216 -29.7664574 232.45990854 -63.53857422 236.9453125 C-91.83445821 239.85271109 -123.78568107 235.93130022 -150.50390625 226.25 C-143.55467758 248.75758445 -135.67124167 268.12585034 -113.6640625 279.75 C-89.97691232 290.4330637 -61.27061035 288.29831841 -37.25390625 279.75 C-15.364541 271.22466827 3.7487165 256.70649552 18.8984375 238.84375 C22.40165881 235.3457967 26.14780553 232.41011056 31.24609375 232.0625 C34.0648562 233.55018018 34.73070786 235.24522282 35.89181519 238.14041138 C37.00339055 242.02101691 36.81954072 245.8656148 36.71875 249.87109375 C36.70890076 250.79548248 36.69905151 251.71987122 36.68890381 252.67227173 C36.66763112 254.65090053 36.64026572 256.62947164 36.60733032 258.60794067 C36.52485893 263.81913065 36.50039003 269.03043224 36.48046875 274.2421875 C36.47422234 275.79653252 36.47422234 275.79653252 36.46784973 277.38227844 C36.43528197 297.59423393 38.24305958 317.71074583 40.53051758 337.77954102 C42.5875463 356.05468689 42.5875463 356.05468689 38.49609375 363.25 C33.63647209 367.98173688 28.71916564 369.40196331 22.09765625 370.14453125 C20.82865479 370.29293457 19.55965332 370.44133789 18.25219727 370.59423828 C17.57955841 370.67031311 16.90691956 370.74638794 16.21389771 370.82476807 C4.10710218 372.20003874 -7.92294364 373.8731903 -19.94140625 375.875 C-30.44670135 377.6127327 -40.89797423 379.26923639 -51.50390625 380.25 C-52.64085937 380.36085938 -53.7778125 380.47171875 -54.94921875 380.5859375 C-107.44786048 384.78129332 -163.23979985 377.41218056 -205.15380859 342.89111328 C-208.22695466 340.25468244 -211.16767247 337.49890439 -214.05957031 334.66357422 C-215.54517912 333.20960616 -217.05075391 331.77852646 -218.55859375 330.34765625 C-253.13523619 297.13718073 -270.45820699 248.23349577 -274.50390625 201.25 C-274.59003174 200.25282959 -274.67615723 199.25565918 -274.76489258 198.22827148 C-275.46573375 189.37695333 -275.70580665 180.56441056 -275.69140625 171.6875 C-275.69049988 170.64277023 -275.69049988 170.64277023 -275.6895752 169.57693481 C-275.66180655 157.7080405 -275.1577277 146.01328844 -273.50390625 134.25 C-273.38031738 133.35619629 -273.25672852 132.46239258 -273.12939453 131.54150391 C-267.27197614 90.78097178 -252.33711195 49.53195935 -223.46484375 19.3515625 C-221.3596752 17.20923564 -221.3596752 17.20923564 -219.50390625 14.25 C-218.84390625 14.25 -218.18390625 14.25 -217.50390625 14.25 C-217.50390625 13.59 -217.50390625 12.93 -217.50390625 12.25 C-216.84390625 12.25 -216.18390625 12.25 -215.50390625 12.25 C-215.50390625 11.59 -215.50390625 10.93 -215.50390625 10.25 C-162.54366421 -40.83846634 -56.72992358 -49.73582341 0 0 Z M-128.37890625 62.5625 C-149.52338719 89.88084656 -155.9970465 132.73729667 -154.50390625 166.25 C-137.91609437 171.76473904 -121.62076928 175.39726781 -104.06640625 175.5 C-103.18919922 175.520625 -102.31199219 175.54125 -101.40820312 175.5625 C-90.27047265 175.6281609 -79.57498555 172.20296492 -71.49609375 164.28125 C-57.26119893 147.27332372 -56.99075662 123.51843451 -58.73095703 102.50878906 C-60.55197723 85.6474909 -64.96082313 66.66548117 -78.0234375 54.87890625 C-85.39563833 49.06056508 -93.96392288 47.60334752 -103.1875 47.83203125 C-113.81466401 49.17137936 -121.52360729 54.64846761 -128.37890625 62.5625 Z " fill="#FFFFFF" transform="translate(856.50390625,637.75)"/>
</svg>
