<svg width="200" height="40" viewBox="0 0 200 40" fill="none" xmlns="http://www.w3.org/2000/svg">
<path d="M60.6809 30.9168V10.7437H64.5039V27.4586H73.772V30.9168H60.6809Z" fill="#E3E3E3"/>
<path d="M82.0262 31.3202C80.5974 31.3202 79.3133 31.032 78.1741 30.4556C77.0348 29.8793 76.137 29.0436 75.4806 27.9484C74.8241 26.8533 74.4958 25.5373 74.4958 24.0003V23.5392C74.4958 22.0021 74.8241 20.6861 75.4806 19.591C76.137 18.4958 77.0348 17.6601 78.1741 17.0837C79.3133 16.5074 80.5974 16.2192 82.0262 16.2192C83.455 16.2192 84.7391 16.5074 85.8782 17.0837C87.0174 17.6601 87.9152 18.4958 88.5718 19.591C89.2283 20.6861 89.5565 22.0021 89.5565 23.5392V24.0003C89.5565 25.5373 89.2283 26.8533 88.5718 27.9484C87.9152 29.0436 87.0174 29.8793 85.8782 30.4556C84.7391 31.032 83.455 31.3202 82.0262 31.3202ZM82.0262 28.0925C83.1461 28.0925 84.0729 27.737 84.8067 27.0262C85.5403 26.2961 85.9072 25.2586 85.9072 23.9138V23.6256C85.9072 22.2807 85.5403 21.2528 84.8067 20.5419C84.0922 19.8119 83.1654 19.4468 82.0262 19.4468C80.9063 19.4468 79.9795 19.8119 79.2457 20.5419C78.512 21.2528 78.1451 22.2807 78.1451 23.6256V23.9138C78.1451 25.2586 78.512 26.2961 79.2457 27.0262C79.9795 27.737 80.9063 28.0925 82.0262 28.0925Z" fill="#E3E3E3"/>
<path d="M90.9266 23.8274V23.3663C90.9266 21.8676 91.2258 20.59 91.8244 19.5332C92.423 18.4575 93.2147 17.6409 94.1994 17.0837C95.2035 16.5074 96.2944 16.2192 97.4722 16.2192C98.7852 16.2192 99.7796 16.4497 100.455 16.9108C101.131 17.3719 101.624 17.8522 101.932 18.3517H102.454V16.6226H106.045V33.4527C106.045 34.4327 105.756 35.2107 105.176 35.7871C104.597 36.3827 103.825 36.6805 102.859 36.6805H93.2437V33.5105H101.585C102.126 33.5105 102.396 33.2222 102.396 32.6458V28.9283H101.875C101.682 29.2357 101.411 29.5526 101.064 29.8793C100.716 30.1866 100.253 30.4461 99.6734 30.6574C99.0941 30.8687 98.3605 30.9744 97.4722 30.9744C96.2944 30.9744 95.2035 30.6958 94.1994 30.1387C93.2147 29.5623 92.423 28.7457 91.8244 27.689C91.2258 26.6132 90.9266 25.3259 90.9266 23.8274ZM98.5149 27.8043C99.6348 27.8043 100.571 27.4488 101.324 26.738C102.077 26.0271 102.454 25.0281 102.454 23.7409V23.4527C102.454 22.1462 102.077 21.1472 101.324 20.4555C100.591 19.7447 99.6541 19.3892 98.5149 19.3892C97.3949 19.3892 96.4585 19.7447 95.7055 20.4555C94.9524 21.1472 94.5759 22.1462 94.5759 23.4527V23.7409C94.5759 25.0281 94.9524 26.0271 95.7055 26.738C96.4585 27.4488 97.3949 27.8043 98.5149 27.8043Z" fill="#E3E3E3"/>
<path d="M115.624 31.3202C114.195 31.3202 112.911 31.032 111.771 30.4556C110.632 29.8793 109.734 29.0436 109.078 27.9484C108.422 26.8533 108.093 25.5373 108.093 24.0003V23.5392C108.093 22.0021 108.422 20.6861 109.078 19.591C109.734 18.4958 110.632 17.6601 111.771 17.0837C112.911 16.5074 114.195 16.2192 115.624 16.2192C117.052 16.2192 118.336 16.5074 119.476 17.0837C120.615 17.6601 121.513 18.4958 122.169 19.591C122.826 20.6861 123.154 22.0021 123.154 23.5392V24.0003C123.154 25.5373 122.826 26.8533 122.169 27.9484C121.513 29.0436 120.615 29.8793 119.476 30.4556C118.336 31.032 117.052 31.3202 115.624 31.3202ZM115.624 28.0925C116.744 28.0925 117.67 27.737 118.404 27.0262C119.138 26.2961 119.505 25.2586 119.505 23.9138V23.6256C119.505 22.2807 119.138 21.2528 118.404 20.5419C117.69 19.8119 116.763 19.4468 115.624 19.4468C114.504 19.4468 113.577 19.8119 112.843 20.5419C112.109 21.2528 111.743 22.2807 111.743 23.6256V23.9138C111.743 25.2586 112.109 26.2961 112.843 27.0262C113.577 27.737 114.504 28.0925 115.624 28.0925Z" fill="#E3E3E3"/>
<path d="M125.219 30.9168V16.6226H128.869V30.9168H125.219ZM127.044 14.9512C126.387 14.9512 125.828 14.7398 125.364 14.3171C124.92 13.8945 124.698 13.3373 124.698 12.6457C124.698 11.954 124.92 11.3968 125.364 10.9742C125.828 10.5515 126.387 10.3401 127.044 10.3401C127.72 10.3401 128.28 10.5515 128.723 10.9742C129.168 11.3968 129.39 11.954 129.39 12.6457C129.39 13.3373 129.168 13.8945 128.723 14.3171C128.28 14.7398 127.72 14.9512 127.044 14.9512Z" fill="#E3E3E3"/>
<path d="M131.609 36.6805V16.6226H135.2V18.3517H135.722C136.049 17.7946 136.561 17.3046 137.257 16.8819C137.951 16.4401 138.946 16.2192 140.24 16.2192C141.398 16.2192 142.47 16.5074 143.454 17.0837C144.44 17.6409 145.232 18.467 145.829 19.5621C146.428 20.6572 146.728 21.9829 146.728 23.5392V24.0003C146.728 25.5565 146.428 26.8821 145.829 27.9772C145.232 29.0723 144.44 29.9081 143.454 30.4845C142.47 31.0416 141.398 31.3202 140.24 31.3202C139.371 31.3202 138.637 31.2146 138.038 31.0032C137.46 30.8111 136.987 30.5613 136.619 30.2539C136.272 29.9273 135.992 29.6007 135.779 29.2741H135.258V36.6805H131.609ZM139.139 28.1501C140.279 28.1501 141.215 27.7947 141.948 27.0838C142.701 26.3537 143.078 25.2971 143.078 23.9138V23.6256C143.078 22.2423 142.701 21.1952 141.948 20.4843C141.195 19.7542 140.259 19.3892 139.139 19.3892C138.02 19.3892 137.082 19.7542 136.329 20.4843C135.576 21.1952 135.2 22.2423 135.2 23.6256V23.9138C135.2 25.2971 135.576 26.3537 136.329 27.0838C137.082 27.7947 138.02 28.1501 139.139 28.1501Z" fill="#E3E3E3"/>
<path d="M154.742 31.3202C152.869 31.3202 151.334 30.9167 150.136 30.1098C148.94 29.3029 148.216 28.1501 147.964 26.6516L151.324 25.787C151.459 26.4595 151.681 26.9877 151.991 27.372C152.318 27.7562 152.714 28.0349 153.178 28.2078C153.66 28.3615 154.182 28.4383 154.742 28.4383C155.592 28.4383 156.219 28.2942 156.624 28.006C157.03 27.6986 157.233 27.324 157.233 26.8821C157.233 26.4402 157.04 26.104 156.654 25.8734C156.267 25.6237 155.649 25.422 154.8 25.2683L153.989 25.1241C152.984 24.932 152.068 24.6727 151.238 24.3461C150.406 24.0003 149.741 23.5295 149.239 22.9339C148.737 22.3384 148.486 21.5699 148.486 20.6285C148.486 19.2066 149.007 18.1212 150.05 17.3719C151.092 16.6034 152.464 16.2192 154.163 16.2192C155.765 16.2192 157.098 16.5745 158.16 17.2854C159.222 17.9963 159.916 18.9281 160.245 20.0809L156.857 21.1183C156.702 20.3883 156.384 19.8695 155.901 19.5621C155.436 19.2547 154.858 19.101 154.163 19.101C153.467 19.101 152.937 19.226 152.57 19.4757C152.203 19.7063 152.02 20.0329 152.02 20.4555C152.02 20.9166 152.213 21.2625 152.598 21.493C152.984 21.7043 153.506 21.8676 154.163 21.9829L154.973 22.127C156.055 22.3191 157.03 22.5785 157.898 22.9051C158.787 23.2126 159.482 23.664 159.985 24.2596C160.505 24.836 160.766 25.6237 160.766 26.6227C160.766 28.1213 160.216 29.2837 159.116 30.1098C158.034 30.9167 156.577 31.3202 154.742 31.3202Z" fill="#E3E3E3"/>
<path d="M168.135 31.1473C167.015 31.1473 166.03 30.8975 165.18 30.398C164.35 29.8793 163.704 29.1684 163.24 28.2654C162.777 27.3624 162.545 26.325 162.545 25.153V16.6226H166.195V24.8648C166.195 25.9407 166.455 26.7476 166.976 27.2856C167.517 27.8235 168.28 28.0925 169.264 28.0925C170.385 28.0925 171.253 27.7275 171.871 26.9974C172.489 26.2481 172.798 25.2106 172.798 23.885V16.6226H176.448V30.9167H172.855V29.0436H172.335C172.103 29.5239 171.668 29.9945 171.032 30.4556C170.394 30.9167 169.429 31.1473 168.135 31.1473Z" fill="#E3E3E3"/>
<path d="M179.204 30.9168V16.6227H182.795V18.1789H183.317C183.568 17.6986 183.984 17.2855 184.563 16.9397C185.142 16.5746 185.905 16.3922 186.851 16.3922C187.874 16.3922 188.695 16.5939 189.313 16.9973C189.93 17.3816 190.403 17.8907 190.732 18.5248H191.253C191.582 17.91 192.045 17.4008 192.644 16.9973C193.242 16.5939 194.091 16.3922 195.192 16.3922C196.08 16.3922 196.882 16.5843 197.596 16.9686C198.33 17.3336 198.91 17.9003 199.334 18.6689C199.778 19.4182 200 20.3691 200 21.5219V30.9168H196.35V21.7813C196.35 20.9936 196.148 20.4076 195.743 20.0233C195.337 19.6199 194.767 19.4182 194.034 19.4182C193.204 19.4182 192.557 19.687 192.094 20.2251C191.649 20.7438 191.428 21.4931 191.428 22.4729V30.9168H187.778V21.7813C187.778 20.9936 187.575 20.4076 187.169 20.0233C186.764 19.6199 186.195 19.4182 185.46 19.4182C184.63 19.4182 183.983 19.687 183.52 20.2251C183.075 20.7438 182.854 21.4931 182.854 22.4729V30.9168H179.204Z" fill="#E3E3E3"/>
<path d="M49.1152 20.1101C49.1152 15.0146 47.0809 10.1276 43.4597 6.5245C39.8386 2.92138 34.9273 0.897156 29.8062 0.897156C24.6852 0.897155 19.7739 2.92138 16.1527 6.5245C12.5315 10.1276 10.4972 15.0146 10.4972 20.1101H16.5313C18.5309 20.1101 20.0903 18.4428 20.8227 16.5915C21.3035 15.376 22.0332 14.2589 22.9794 13.3173C24.79 11.5157 27.2457 10.5036 29.8062 10.5036C32.3667 10.5036 34.8225 11.5157 36.633 13.3173C38.4436 15.1188 39.4607 17.5623 39.4607 20.1101H49.1152Z" fill="#E3E3E3"/>
<path d="M37.9921 27.4625C38.9624 25.1315 39.462 22.6331 39.462 20.1101H49.1154C49.1154 30.7211 40.4704 39.3229 29.8064 39.3229C28.1363 39.3229 26.5157 39.112 24.9702 38.7154C25.8447 38.4913 26.7041 38.2058 27.5421 37.8605C29.8848 36.8949 32.0134 35.4798 33.8064 33.6957C35.5994 31.9116 37.0218 29.7935 37.9921 27.4625Z" fill="#E3E3E3"/>
<path d="M0.843658 20.11C0.843658 22.6331 1.3431 25.1315 2.31347 27.4625C3.28384 29.7935 4.70613 31.9116 6.49914 33.6957C8.29214 35.4796 10.4208 36.8949 12.7634 37.8605C15.1061 38.826 17.6169 39.3229 20.1527 39.3229C22.6883 39.3229 25.1992 38.826 27.5419 37.8605C29.8846 36.8949 32.0132 35.4796 33.8062 33.6957C35.5992 31.9116 37.0215 29.7935 37.9918 27.4625C38.9622 25.1315 39.4617 22.6331 39.4617 20.11H33.4276C31.428 20.11 29.8686 21.7773 29.1363 23.6285C29.1155 23.6813 29.0941 23.7338 29.0723 23.7863C28.5871 24.9517 27.876 26.0108 26.9794 26.9028C26.0829 27.7948 25.0186 28.5025 23.8473 28.9853C22.676 29.4681 21.4206 29.7165 20.1527 29.7165C18.8848 29.7165 17.6294 29.4681 16.4581 28.9853C15.2867 28.5025 14.2225 27.7948 13.3259 26.9028C12.4294 26.0108 11.7183 24.9517 11.2331 23.7863C10.7479 22.6207 10.4982 21.3715 10.4982 20.11H0.843658Z" fill="#484848"/>
<path d="M0.845581 20.1101C0.845581 9.49906 9.4905 0.897156 20.1545 0.897156C21.8242 0.897156 23.4443 1.10801 24.9896 1.50444C21.6738 2.35438 18.615 4.07442 16.1526 6.52451C12.5315 10.1276 10.4972 15.0146 10.4972 20.1101H0.845581Z" fill="#484848"/>
</svg>
