<svg width="247" height="229" viewBox="0 0 247 229" fill="none" xmlns="http://www.w3.org/2000/svg">
<path opacity="0.1" d="M130.73 30.7939C99.8598 13.0192 65.3356 2.63255 29.8326 0.438609C-5.6704 -1.75533 -41.1989 4.30243 -74 18.1425L-14.1881 122.166L83.6352 65.9369C87.884 63.4693 92.7038 62.1703 97.6099 62.1703C102.516 62.1702 107.336 63.4693 111.585 65.9369C115.768 68.3658 119.255 71.8439 121.704 76.0322C124.153 80.2204 125.482 84.9756 125.559 89.834L125.559 229L247 229C246.398 188.651 235.36 149.155 214.973 114.401C194.585 79.6465 165.552 50.8319 130.73 30.7939Z" fill="white"/>
</svg>
