<svg width="289" height="131" viewBox="0 0 289 131" fill="none" xmlns="http://www.w3.org/2000/svg">
<path opacity="0.07" d="M159.329 -21.7845C132.171 -29.0274 103.736 -29.8932 76.2284 -24.3148C48.7208 -18.7364 22.8789 -6.86353 0.705166 10.3838L67.5365 77.4527L130.612 14.6186C133.346 11.8702 136.754 9.89575 140.494 8.89379C144.233 7.89183 148.172 7.89762 151.914 8.91061C155.599 9.90745 158.967 11.8464 161.689 14.5384C164.411 17.2303 166.394 20.5834 167.446 24.2705L195.867 130.34L288.426 105.538C279.727 74.9082 263.248 47.0596 240.612 24.7343C217.975 2.40897 189.962 -13.6234 159.329 -21.7845Z" fill="#FF8A0A"/>
</svg>
